{"glyphs":{"0":{"ha":985,"x_min":57,"x_max":981,"o":"m 426 -25 q 207 38 293 -25 q 89 219 121 101 q 86 504 57 337 q 185 786 114 670 q 362 963 256 902 q 599 1024 467 1024 q 889 889 797 1024 q 940 504 981 753 q 841 219 912 337 q 664 38 769 101 q 426 -25 558 -25 m 459 175 q 599 256 539 175 q 689 504 660 337 q 681 746 716 667 q 567 826 646 826 q 426 746 488 826 q 336 504 364 667 q 345 256 309 336 q 459 175 380 175 z "},"1":{"ha":691,"x_min":110,"x_max":646,"o":"m 646 1010 l 478 0 l 235 0 l 365 782 l 359 782 l 110 644 l 145 855 l 420 1010 l 646 1010 z "},"2":{"ha":886,"x_min":11,"x_max":882,"o":"m 11 0 l 40 176 l 463 498 q 576 599 535 554 q 626 699 617 643 q 603 798 637 763 q 508 834 569 834 q 399 796 444 834 q 342 690 354 758 l 110 690 q 187 868 128 793 q 337 983 246 943 q 540 1024 428 1024 q 733 985 654 1024 q 847 878 811 947 q 867 719 882 810 q 824 604 857 661 q 720 479 791 548 q 523 315 649 410 l 384 203 l 382 197 l 792 197 l 759 0 l 11 0 z "},"3":{"ha":926,"x_min":36,"x_max":896,"o":"m 405 -14 q 202 26 287 -14 q 77 135 117 65 q 51 297 36 206 l 293 297 q 322 216 286 247 q 419 184 358 184 q 539 224 489 184 q 599 319 590 264 q 567 400 607 372 q 453 427 527 427 l 350 427 l 379 601 l 472 601 q 590 637 540 601 q 650 732 641 674 q 632 806 658 778 q 547 834 606 834 q 468 819 507 834 q 404 779 430 804 q 372 718 377 753 l 140 718 q 215 877 155 808 q 364 985 274 946 q 559 1024 454 1024 q 748 982 671 1024 q 860 872 825 941 q 883 722 896 803 q 805 586 869 634 q 647 526 741 538 l 647 518 q 807 438 751 505 q 846 274 862 371 q 772 126 833 191 q 616 23 711 61 q 405 -14 521 -14 z "},"4":{"ha":958,"x_min":27,"x_max":901,"o":"m 27 168 l 58 358 l 581 1010 l 888 1010 l 780 360 l 901 360 l 869 168 l 748 168 l 720 0 l 487 0 l 515 168 l 27 168 m 552 360 l 617 752 l 609 752 l 303 368 l 301 360 l 552 360 z "},"5":{"ha":912,"x_min":51,"x_max":898,"o":"m 396 -14 q 207 26 286 -14 q 89 136 127 66 q 64 297 51 207 l 301 297 q 331 208 294 242 q 427 174 368 174 q 548 218 497 174 q 611 335 599 262 q 586 454 623 409 q 479 498 549 498 q 393 479 435 498 q 325 425 351 459 l 115 466 l 250 1010 l 898 1010 l 866 813 l 419 813 l 356 575 l 362 575 q 455 644 394 617 q 587 672 515 672 q 742 629 678 672 q 834 513 805 587 q 846 342 863 438 q 768 158 830 238 q 610 32 706 78 q 396 -14 514 -14 z "},"6":{"ha":934,"x_min":56,"x_max":919,"o":"m 425 -14 q 267 14 340 -14 q 144 103 194 42 q 74 262 93 164 q 79 500 56 360 q 178 781 107 664 q 352 961 248 899 q 581 1024 455 1024 q 764 983 689 1024 q 880 874 840 943 q 914 720 919 805 l 678 720 q 646 792 677 769 q 567 816 615 816 q 408 733 472 816 q 320 513 345 650 l 328 526 q 445 630 371 594 q 600 666 518 666 q 758 622 693 666 q 850 503 822 579 q 862 330 878 427 q 784 150 845 228 q 631 29 724 73 q 425 -14 538 -14 m 434 174 q 524 197 482 174 q 594 259 566 219 q 629 348 622 298 q 606 454 639 412 q 508 496 573 496 q 419 473 461 496 q 348 410 377 450 q 312 322 320 371 q 336 215 303 256 q 434 174 370 174 z "},"7":{"ha":837,"x_min":54,"x_max":882,"o":"m 54 0 l 595 807 l 597 813 l 121 813 l 153 1010 l 882 1010 l 849 812 l 305 0 l 54 0 z "},"8":{"ha":937,"x_min":28,"x_max":912,"o":"m 404 -14 q 199 24 286 -14 q 70 127 112 62 q 42 275 28 193 q 92 389 53 337 q 188 475 131 440 q 309 520 245 510 l 309 527 q 187 606 230 543 q 159 753 145 669 q 230 892 172 831 q 377 989 288 954 q 573 1024 466 1024 q 758 988 680 1024 q 874 890 836 952 q 899 749 912 828 q 821 603 885 664 q 672 527 758 543 l 672 520 q 779 475 733 510 q 847 387 825 440 q 857 271 869 335 q 781 126 844 190 q 620 24 718 61 q 404 -14 522 -14 m 430 159 q 547 198 498 159 q 605 295 596 236 q 579 391 615 354 q 476 429 542 429 q 360 390 410 429 q 301 291 311 351 q 328 196 291 233 q 430 159 364 159 m 503 601 q 604 636 561 601 q 656 726 647 672 q 635 812 666 779 q 547 845 604 845 q 444 811 488 845 q 392 723 400 776 q 414 635 382 669 q 503 601 446 601 z "},"9":{"ha":934,"x_min":59,"x_max":922,"o":"m 552 1024 q 710 996 637 1024 q 834 907 784 968 q 903 750 884 847 q 898 513 922 653 q 800 230 871 348 q 626 49 729 111 q 396 -14 522 -14 q 213 27 289 -14 q 98 137 137 68 q 63 294 59 207 l 299 294 q 331 218 300 242 q 411 194 363 194 q 569 278 506 194 q 657 500 633 361 l 650 488 q 533 384 607 420 q 377 348 460 348 q 220 392 285 348 q 127 510 155 435 q 115 682 99 586 q 193 861 133 784 q 347 981 254 938 q 552 1024 439 1024 m 544 836 q 454 814 496 836 q 383 752 412 791 q 348 664 355 713 q 372 560 339 601 q 470 518 405 518 q 559 541 517 518 q 629 603 601 564 q 665 690 658 642 q 642 795 675 754 q 544 836 608 836 z "},"A":{"ha":1072,"x_min":-31,"x_max":976,"o":"m 232 0 l -31 0 l 478 1010 l 803 1010 l 976 0 l 714 0 l 683 212 l 334 212 l 232 0 m 423 398 l 655 398 l 603 756 l 595 756 l 423 398 z "},"Ä":{"ha":1072,"x_min":-31,"x_max":976,"o":"m 232 0 l -31 0 l 478 1010 l 803 1010 l 976 0 l 714 0 l 683 212 l 334 212 l 232 0 m 423 398 l 655 398 l 603 756 l 595 756 l 423 398 m 826 1106 q 744 1142 775 1106 q 720 1228 712 1178 q 760 1294 727 1268 q 835 1321 794 1321 q 916 1285 886 1321 q 938 1199 946 1249 q 900 1133 932 1161 q 826 1106 867 1106 m 518 1106 q 436 1143 467 1106 q 412 1228 404 1179 q 453 1294 419 1268 q 527 1321 486 1321 q 608 1285 578 1321 q 630 1199 638 1249 q 592 1133 624 1161 q 518 1106 559 1106 z "},"Ã":{"ha":1072,"x_min":-31,"x_max":976,"o":"m 232 0 l -31 0 l 478 1010 l 803 1010 l 976 0 l 714 0 l 683 212 l 334 212 l 232 0 m 423 398 l 655 398 l 603 756 l 595 756 l 423 398 m 520 1109 l 395 1110 q 468 1261 412 1210 q 592 1313 523 1313 q 653 1301 628 1313 q 694 1274 677 1290 q 727 1247 712 1259 q 763 1235 743 1235 q 808 1256 791 1235 q 831 1312 825 1277 l 954 1310 q 880 1159 936 1211 q 756 1107 824 1108 q 695 1118 719 1107 q 655 1145 671 1130 q 623 1172 638 1161 q 586 1184 608 1184 q 544 1164 562 1184 q 520 1109 526 1145 z "},"À":{"ha":1072,"x_min":-31,"x_max":976,"o":"m 232 0 l -31 0 l 478 1010 l 803 1010 l 976 0 l 714 0 l 683 212 l 334 212 l 232 0 m 423 398 l 655 398 l 603 756 l 595 756 l 423 398 m 578 1106 l 465 1329 l 678 1329 l 742 1106 l 578 1106 z "},"Á":{"ha":1072,"x_min":-31,"x_max":976,"o":"m 232 0 l -31 0 l 478 1010 l 803 1010 l 976 0 l 714 0 l 683 212 l 334 212 l 232 0 m 423 398 l 655 398 l 603 756 l 595 756 l 423 398 m 574 1106 l 711 1329 l 924 1329 l 737 1106 l 574 1106 z "},"Â":{"ha":1072,"x_min":-31,"x_max":976,"o":"m 232 0 l -31 0 l 478 1010 l 803 1010 l 976 0 l 714 0 l 683 212 l 334 212 l 232 0 m 423 398 l 655 398 l 603 756 l 595 756 l 423 398 m 558 1101 l 356 1101 l 357 1107 l 608 1328 l 781 1328 l 957 1107 l 956 1101 l 754 1101 l 675 1215 l 558 1101 z "},"Å":{"ha":1072,"x_min":-31,"x_max":976,"o":"m 232 0 l -31 0 l 478 1010 l 803 1010 l 976 0 l 714 0 l 683 212 l 334 212 l 232 0 m 423 398 l 655 398 l 603 756 l 595 756 l 423 398 m 649 1060 q 545 1105 583 1060 q 516 1212 506 1150 q 549 1289 523 1255 q 615 1344 576 1324 q 698 1364 654 1364 q 806 1320 765 1364 q 834 1212 846 1275 q 769 1104 822 1149 q 649 1060 716 1060 m 664 1149 q 715 1168 691 1149 q 741 1212 738 1187 q 728 1257 745 1239 q 684 1275 712 1275 q 635 1257 657 1275 q 608 1212 613 1238 q 619 1168 603 1187 q 664 1149 636 1149 z "},"Ǻ":{"ha":1072,"x_min":-31,"x_max":992,"o":"m 232 0 l -31 0 l 478 1010 l 803 1010 l 976 0 l 714 0 l 683 212 l 334 212 l 232 0 m 423 398 l 655 398 l 603 756 l 595 756 l 423 398 m 651 1060 q 566 1096 598 1060 q 543 1181 534 1132 q 594 1267 551 1231 q 690 1302 637 1302 q 775 1267 743 1302 q 797 1181 806 1231 q 746 1096 789 1132 q 651 1060 704 1060 m 619 1354 l 790 1503 l 992 1503 l 763 1354 l 619 1354 m 662 1134 q 699 1148 683 1134 q 719 1181 716 1162 q 710 1213 722 1199 q 678 1227 698 1227 q 641 1213 657 1227 q 621 1181 624 1199 q 630 1148 618 1162 q 662 1134 642 1134 z "},"Ā":{"ha":1072,"x_min":-31,"x_max":976,"o":"m 232 0 l -31 0 l 478 1010 l 803 1010 l 976 0 l 714 0 l 683 212 l 334 212 l 232 0 m 423 398 l 655 398 l 603 756 l 595 756 l 423 398 m 926 1263 l 907 1143 l 418 1143 l 437 1263 l 926 1263 z "},"Ă":{"ha":1072,"x_min":-31,"x_max":976,"o":"m 232 0 l -31 0 l 478 1010 l 803 1010 l 976 0 l 714 0 l 683 212 l 334 212 l 232 0 m 423 398 l 655 398 l 603 756 l 595 756 l 423 398 m 783 1278 l 943 1278 q 848 1129 927 1186 q 652 1073 769 1073 q 473 1129 533 1073 q 428 1278 413 1186 l 586 1278 q 599 1219 581 1246 q 671 1193 617 1193 q 751 1219 724 1193 q 783 1278 777 1245 z "},"Ą":{"ha":1072,"x_min":-31,"x_max":976,"o":"m 232 0 l -31 0 l 478 1010 l 803 1010 l 976 0 l 714 0 l 683 212 l 334 212 l 232 0 m 423 398 l 655 398 l 603 756 l 595 756 l 423 398 m 833 -279 q 726 -245 765 -279 q 681 -148 686 -211 q 691 -65 678 -107 q 731 12 704 -22 q 797 62 758 46 l 976 0 q 896 -39 927 -18 q 860 -93 865 -61 q 897 -144 850 -144 q 924 -140 912 -144 q 946 -134 936 -136 l 954 -249 q 903 -269 934 -259 q 833 -279 872 -279 z "},"Ǎ":{"ha":1072,"x_min":-31,"x_max":993,"o":"m 232 0 l -31 0 l 478 1010 l 803 1010 l 976 0 l 714 0 l 683 212 l 334 212 l 232 0 m 423 398 l 655 398 l 603 756 l 595 756 l 423 398 m 595 1328 l 674 1214 l 791 1328 l 993 1328 l 992 1322 l 743 1101 l 570 1101 l 392 1322 l 393 1328 l 595 1328 z "},"Ǟ":{"ha":1072,"x_min":-31,"x_max":976,"o":"m 232 0 l -31 0 l 478 1010 l 803 1010 l 976 0 l 714 0 l 683 212 l 334 212 l 232 0 m 423 398 l 655 398 l 603 756 l 595 756 l 423 398 m 826 1106 q 744 1142 775 1106 q 720 1228 712 1178 q 760 1294 727 1268 q 835 1321 794 1321 q 916 1285 886 1321 q 938 1199 946 1249 q 900 1133 932 1161 q 826 1106 867 1106 m 518 1106 q 436 1143 467 1106 q 412 1228 404 1179 q 453 1294 419 1268 q 527 1321 486 1321 q 608 1285 578 1321 q 630 1199 638 1249 q 592 1133 624 1161 q 518 1106 559 1106 m 969 1515 l 950 1396 l 461 1396 l 480 1515 l 969 1515 z "},"Ǡ":{"ha":1072,"x_min":-31,"x_max":976,"o":"m 232 0 l -31 0 l 478 1010 l 803 1010 l 976 0 l 714 0 l 683 212 l 334 212 l 232 0 m 423 398 l 655 398 l 603 756 l 595 756 l 423 398 m 969 1515 l 950 1396 l 461 1396 l 480 1515 l 969 1515 m 659 1106 q 584 1138 613 1106 q 561 1213 554 1169 q 605 1290 568 1258 q 689 1321 642 1321 q 764 1290 735 1321 q 787 1213 793 1258 q 744 1138 781 1169 q 659 1106 706 1106 z "},"Ȁ":{"ha":1072,"x_min":-31,"x_max":976,"o":"m 232 0 l -31 0 l 478 1010 l 803 1010 l 976 0 l 714 0 l 683 212 l 334 212 l 232 0 m 423 398 l 655 398 l 603 756 l 595 756 l 423 398 m 598 1106 l 430 1152 l 370 1329 l 573 1283 l 598 1106 m 850 1106 l 693 1152 l 677 1329 l 860 1283 l 850 1106 z "},"Ȃ":{"ha":1072,"x_min":-31,"x_max":976,"o":"m 232 0 l -31 0 l 478 1010 l 803 1010 l 976 0 l 714 0 l 683 212 l 334 212 l 232 0 m 423 398 l 655 398 l 603 756 l 595 756 l 423 398 m 403 1130 q 497 1283 419 1223 q 695 1342 576 1342 q 874 1283 813 1342 q 919 1130 935 1223 l 760 1130 q 746 1189 764 1163 q 675 1215 728 1215 q 594 1189 621 1215 q 563 1130 567 1163 l 403 1130 z "},"Ȧ":{"ha":1072,"x_min":-31,"x_max":976,"o":"m 232 0 l -31 0 l 478 1010 l 803 1010 l 976 0 l 714 0 l 683 212 l 334 212 l 232 0 m 423 398 l 655 398 l 603 756 l 595 756 l 423 398 m 658 1098 q 575 1132 607 1098 q 550 1214 543 1166 q 599 1295 557 1262 q 690 1329 640 1329 q 773 1295 742 1329 q 798 1214 804 1262 q 751 1132 792 1166 q 658 1098 710 1098 z "},"Ḁ":{"ha":1072,"x_min":-31,"x_max":976,"o":"m 232 0 l -31 0 l 478 1010 l 803 1010 l 976 0 l 714 0 l 683 212 l 334 212 l 232 0 m 423 398 l 655 398 l 603 756 l 595 756 l 423 398 m 312 -150 q 365 -68 320 -102 q 468 -34 409 -34 q 556 -68 524 -34 q 581 -150 589 -102 q 529 -235 573 -202 q 429 -267 485 -267 q 337 -234 370 -267 q 312 -150 304 -201 m 397 -150 q 405 -185 394 -171 q 440 -198 417 -198 q 476 -185 460 -198 q 495 -150 491 -171 q 487 -118 498 -131 q 455 -105 475 -105 q 416 -118 432 -105 q 397 -150 400 -131 z "},"Ạ":{"ha":1072,"x_min":-31,"x_max":976,"o":"m 232 0 l -31 0 l 478 1010 l 803 1010 l 976 0 l 714 0 l 683 212 l 334 212 l 232 0 m 423 398 l 655 398 l 603 756 l 595 756 l 423 398 m 429 -294 q 345 -260 377 -294 q 320 -179 313 -226 q 369 -98 327 -131 q 461 -64 410 -64 q 543 -98 512 -64 q 568 -179 575 -131 q 521 -260 562 -226 q 429 -294 480 -294 z "},"Ả":{"ha":1072,"x_min":-31,"x_max":976,"o":"m 232 0 l -31 0 l 478 1010 l 803 1010 l 976 0 l 714 0 l 683 212 l 334 212 l 232 0 m 423 398 l 655 398 l 603 756 l 595 756 l 423 398 m 746 1121 l 570 1121 l 569 1203 q 646 1217 621 1205 q 672 1246 670 1229 q 651 1281 677 1273 q 584 1290 625 1290 l 607 1392 q 817 1356 748 1392 q 874 1257 885 1321 q 831 1191 867 1213 q 752 1162 794 1168 l 746 1121 z "},"Ấ":{"ha":1072,"x_min":-31,"x_max":1193,"o":"m 232 0 l -31 0 l 478 1010 l 803 1010 l 976 0 l 714 0 l 683 212 l 334 212 l 232 0 m 423 398 l 655 398 l 603 756 l 595 756 l 423 398 m 396 1085 l 618 1229 l 733 1229 l 908 1085 l 754 1085 l 665 1161 l 549 1085 l 396 1085 m 870 1161 l 1023 1347 l 1193 1347 l 995 1161 l 870 1161 z "},"Ầ":{"ha":1072,"x_min":-31,"x_max":976,"o":"m 232 0 l -31 0 l 478 1010 l 803 1010 l 976 0 l 714 0 l 683 212 l 334 212 l 232 0 m 423 398 l 655 398 l 603 756 l 595 756 l 423 398 m 734 1230 l 910 1086 l 756 1086 l 667 1162 l 551 1086 l 399 1086 l 619 1230 l 734 1230 m 370 1347 l 462 1162 l 339 1162 l 203 1347 l 370 1347 z "},"Ẩ":{"ha":1072,"x_min":-31,"x_max":1089,"o":"m 232 0 l -31 0 l 478 1010 l 803 1010 l 976 0 l 714 0 l 683 212 l 334 212 l 232 0 m 423 398 l 655 398 l 603 756 l 595 756 l 423 398 m 734 1231 l 906 1087 l 754 1087 l 665 1160 l 549 1087 l 397 1087 l 618 1231 l 734 1231 m 973 1170 l 856 1170 l 854 1239 q 941 1274 936 1242 q 923 1304 945 1297 q 865 1311 900 1311 l 886 1395 q 1039 1366 990 1395 q 1080 1283 1089 1337 q 1043 1229 1074 1248 q 979 1203 1012 1209 l 973 1170 z "},"Ẫ":{"ha":1072,"x_min":-31,"x_max":976,"o":"m 232 0 l -31 0 l 478 1010 l 803 1010 l 976 0 l 714 0 l 683 212 l 334 212 l 232 0 m 423 398 l 655 398 l 603 756 l 595 756 l 423 398 m 738 1235 l 909 1089 l 758 1089 l 666 1164 l 553 1089 l 398 1089 l 619 1235 l 738 1235 m 809 1401 l 883 1373 q 848 1299 876 1333 q 778 1266 819 1266 q 724 1277 747 1266 q 679 1298 700 1287 q 634 1308 658 1308 q 609 1295 618 1308 q 597 1263 600 1281 l 524 1284 q 558 1355 529 1322 q 628 1388 586 1388 q 677 1378 653 1388 q 725 1358 701 1368 q 772 1347 749 1347 q 796 1365 786 1347 q 809 1401 806 1382 z "},"Ậ":{"ha":1072,"x_min":-31,"x_max":976,"o":"m 232 0 l -31 0 l 478 1010 l 803 1010 l 976 0 l 714 0 l 683 212 l 334 212 l 232 0 m 423 398 l 655 398 l 603 756 l 595 756 l 423 398 m 558 1101 l 356 1101 l 357 1107 l 608 1328 l 781 1328 l 957 1107 l 956 1101 l 754 1101 l 675 1215 l 558 1101 m 429 -294 q 345 -260 377 -294 q 320 -179 313 -226 q 369 -98 327 -131 q 461 -64 410 -64 q 543 -98 512 -64 q 568 -179 575 -131 q 521 -260 562 -226 q 429 -294 480 -294 z "},"Ắ":{"ha":1072,"x_min":-31,"x_max":976,"o":"m 232 0 l -31 0 l 478 1010 l 803 1010 l 976 0 l 714 0 l 683 212 l 334 212 l 232 0 m 423 398 l 655 398 l 603 756 l 595 756 l 423 398 m 793 1254 l 939 1254 q 847 1132 925 1179 q 651 1085 769 1085 q 472 1132 533 1085 q 423 1254 410 1179 l 565 1254 q 583 1201 560 1225 q 667 1177 606 1177 q 759 1201 729 1177 q 793 1254 788 1225 m 615 1247 l 727 1371 l 883 1371 l 737 1247 l 615 1247 z "},"Ằ":{"ha":1072,"x_min":-31,"x_max":976,"o":"m 232 0 l -31 0 l 478 1010 l 803 1010 l 976 0 l 714 0 l 683 212 l 334 212 l 232 0 m 423 398 l 655 398 l 603 756 l 595 756 l 423 398 m 793 1255 l 939 1255 q 849 1135 927 1182 q 653 1088 772 1088 q 473 1135 535 1088 q 423 1255 411 1182 l 565 1255 q 583 1202 560 1227 q 667 1178 606 1178 q 758 1202 728 1178 q 793 1255 788 1227 m 627 1247 l 520 1371 l 676 1371 l 746 1247 l 627 1247 z "},"Ẳ":{"ha":1072,"x_min":-31,"x_max":976,"o":"m 232 0 l -31 0 l 478 1010 l 803 1010 l 976 0 l 714 0 l 683 212 l 334 212 l 232 0 m 423 398 l 655 398 l 603 756 l 595 756 l 423 398 m 791 1239 l 937 1239 q 846 1119 924 1164 q 647 1073 768 1073 q 464 1119 527 1073 q 413 1239 401 1164 l 558 1239 q 577 1189 554 1209 q 662 1168 601 1168 q 756 1189 725 1168 q 791 1239 787 1210 m 742 1264 l 602 1264 l 597 1329 q 673 1338 649 1330 q 698 1359 697 1346 q 677 1389 703 1382 q 610 1395 651 1395 l 628 1475 q 814 1447 754 1475 q 865 1368 874 1419 q 824 1316 860 1334 q 748 1295 788 1299 l 742 1264 z "},"Ẵ":{"ha":1072,"x_min":-31,"x_max":976,"o":"m 232 0 l -31 0 l 478 1010 l 803 1010 l 976 0 l 714 0 l 683 212 l 334 212 l 232 0 m 423 398 l 655 398 l 603 756 l 595 756 l 423 398 m 788 1240 l 933 1240 q 843 1118 920 1164 q 648 1072 765 1072 q 467 1118 530 1072 q 417 1240 404 1164 l 561 1240 q 579 1191 556 1211 q 664 1170 601 1170 q 754 1190 724 1170 q 788 1240 783 1210 m 822 1455 l 912 1426 q 866 1341 905 1379 q 778 1304 827 1304 q 715 1315 740 1304 q 668 1336 690 1326 q 616 1347 645 1347 q 581 1331 598 1347 q 560 1289 564 1314 l 472 1316 q 518 1402 480 1365 q 607 1439 556 1439 q 662 1428 637 1439 q 713 1407 688 1417 q 770 1396 739 1396 q 801 1413 786 1396 q 822 1455 817 1430 z "},"Ặ":{"ha":1072,"x_min":-31,"x_max":976,"o":"m 232 0 l -31 0 l 478 1010 l 803 1010 l 976 0 l 714 0 l 683 212 l 334 212 l 232 0 m 423 398 l 655 398 l 603 756 l 595 756 l 423 398 m 783 1278 l 943 1278 q 848 1129 927 1186 q 652 1073 769 1073 q 473 1129 533 1073 q 428 1278 413 1186 l 586 1278 q 599 1219 581 1246 q 671 1193 617 1193 q 751 1219 724 1193 q 783 1278 777 1245 m 429 -294 q 345 -260 377 -294 q 320 -179 313 -226 q 369 -98 327 -131 q 461 -64 410 -64 q 543 -98 512 -64 q 568 -179 575 -131 q 521 -260 562 -226 q 429 -294 480 -294 z "},"Α":{"ha":1072,"x_min":-31,"x_max":976,"o":"m 232 0 l -31 0 l 478 1010 l 803 1010 l 976 0 l 714 0 l 683 212 l 334 212 l 232 0 m 423 398 l 655 398 l 603 756 l 595 756 l 423 398 z "},"Ά":{"ha":1072,"x_min":-31,"x_max":976,"o":"m 232 0 l -31 0 l 478 1010 l 803 1010 l 976 0 l 714 0 l 683 212 l 334 212 l 232 0 m 423 398 l 655 398 l 603 756 l 595 756 l 423 398 m 141 850 l 238 1086 l 447 1086 l 278 850 l 141 850 z "},"Ἀ":{"ha":1072,"x_min":-31,"x_max":976,"o":"m 232 0 l -31 0 l 478 1010 l 803 1010 l 976 0 l 714 0 l 683 212 l 334 212 l 232 0 m 423 398 l 655 398 l 603 756 l 595 756 l 423 398 m 369 1010 l 358 942 q 307 832 347 877 q 218 765 267 786 l 169 834 q 219 880 204 852 q 242 946 235 909 l 251 1010 l 369 1010 z "},"Ἁ":{"ha":1072,"x_min":-31,"x_max":976,"o":"m 232 0 l -31 0 l 478 1010 l 803 1010 l 976 0 l 714 0 l 683 212 l 334 212 l 232 0 m 423 398 l 655 398 l 603 756 l 595 756 l 423 398 m 210 942 l 221 1010 l 340 1010 l 329 946 q 330 884 325 915 q 363 834 335 853 l 291 765 q 225 832 250 786 q 210 942 200 877 z "},"Ἂ":{"ha":1072,"x_min":-69,"x_max":976,"o":"m 232 0 l -31 0 l 478 1010 l 803 1010 l 976 0 l 714 0 l 683 212 l 334 212 l 232 0 m 423 398 l 655 398 l 603 756 l 595 756 l 423 398 m 150 1010 l 142 955 q 89 847 132 896 q -20 765 46 798 l -69 807 q -14 874 -35 838 q 13 959 6 911 l 21 1010 l 150 1010 m 374 791 l 372 781 l 306 781 l 180 996 l 182 1010 l 329 1010 l 374 791 z "},"Ἃ":{"ha":1072,"x_min":-31,"x_max":976,"o":"m 232 0 l -31 0 l 478 1010 l 803 1010 l 976 0 l 714 0 l 683 212 l 334 212 l 232 0 m 423 398 l 655 398 l 603 756 l 595 756 l 423 398 m -9 942 l 2 1010 l 123 1010 l 112 946 q 111 884 106 915 q 148 834 115 853 l 76 765 q 5 832 30 786 q -9 942 -20 877 m 374 798 l 372 780 l 306 780 l 179 996 l 181 1010 l 331 1010 l 374 798 z "},"Ἄ":{"ha":1072,"x_min":-47,"x_max":976,"o":"m 232 0 l -31 0 l 478 1010 l 803 1010 l 976 0 l 714 0 l 683 212 l 334 212 l 232 0 m 423 398 l 655 398 l 603 756 l 595 756 l 423 398 m 156 1010 l 145 942 q 93 832 134 878 q 0 765 51 786 l -47 834 q 5 884 -9 853 q 25 946 19 915 l 36 1010 l 156 1010 m 143 780 l 145 798 l 260 1010 l 409 1010 l 407 996 l 209 780 l 143 780 z "},"Ἅ":{"ha":1072,"x_min":-57,"x_max":976,"o":"m 232 0 l -31 0 l 478 1010 l 803 1010 l 976 0 l 714 0 l 683 212 l 334 212 l 232 0 m 423 398 l 655 398 l 603 756 l 595 756 l 423 398 m 36 765 q -30 830 -4 785 q -46 942 -57 875 l -35 1010 l 85 1010 l 74 946 q 74 880 69 909 q 108 834 79 852 l 36 765 m 143 780 l 145 798 l 256 1010 l 407 1010 l 405 996 l 206 780 l 143 780 z "},"Ἆ":{"ha":1072,"x_min":-31,"x_max":976,"o":"m 232 0 l -31 0 l 478 1010 l 803 1010 l 976 0 l 714 0 l 683 212 l 334 212 l 232 0 m 423 398 l 655 398 l 603 756 l 595 756 l 423 398 m 422 1181 l 511 1153 q 465 1067 503 1104 q 377 1030 428 1030 q 316 1041 341 1030 q 269 1064 291 1053 q 216 1075 247 1075 q 182 1057 196 1075 q 162 1016 167 1040 l 73 1043 q 120 1129 81 1091 q 208 1167 158 1167 q 263 1157 238 1167 q 314 1135 289 1146 q 368 1124 340 1124 q 403 1141 387 1124 q 422 1181 419 1158 m 344 995 l 334 939 q 287 847 325 883 q 202 794 250 810 l 157 849 q 204 890 192 863 q 220 943 217 917 l 230 995 l 344 995 z "},"Ἇ":{"ha":1072,"x_min":-31,"x_max":976,"o":"m 232 0 l -31 0 l 478 1010 l 803 1010 l 976 0 l 714 0 l 683 212 l 334 212 l 232 0 m 423 398 l 655 398 l 603 756 l 595 756 l 423 398 m 404 1182 l 493 1154 q 447 1068 485 1105 q 359 1031 410 1031 q 298 1042 323 1031 q 251 1065 274 1054 q 198 1076 229 1076 q 164 1058 179 1076 q 145 1017 149 1041 l 56 1044 q 102 1130 64 1092 q 190 1168 140 1168 q 246 1158 220 1168 q 297 1136 271 1147 q 350 1125 322 1125 q 385 1142 369 1125 q 404 1182 401 1159 m 203 940 l 213 996 l 327 996 l 317 944 q 317 891 314 918 q 351 850 321 864 l 285 795 q 221 846 248 810 q 203 940 194 882 z "},"Ᾰ":{"ha":1072,"x_min":-31,"x_max":976,"o":"m 232 0 l -31 0 l 478 1010 l 803 1010 l 976 0 l 714 0 l 683 212 l 334 212 l 232 0 m 423 398 l 655 398 l 603 756 l 595 756 l 423 398 m 783 1278 l 943 1278 q 848 1129 927 1186 q 652 1073 769 1073 q 473 1129 533 1073 q 428 1278 413 1186 l 586 1278 q 599 1219 581 1246 q 671 1193 617 1193 q 751 1219 724 1193 q 783 1278 777 1245 z "},"Ᾱ":{"ha":1072,"x_min":-31,"x_max":976,"o":"m 232 0 l -31 0 l 478 1010 l 803 1010 l 976 0 l 714 0 l 683 212 l 334 212 l 232 0 m 423 398 l 655 398 l 603 756 l 595 756 l 423 398 m 926 1263 l 907 1143 l 418 1143 l 437 1263 l 926 1263 z "},"Ὰ":{"ha":1072,"x_min":-31,"x_max":976,"o":"m 232 0 l -31 0 l 478 1010 l 803 1010 l 976 0 l 714 0 l 683 212 l 334 212 l 232 0 m 423 398 l 655 398 l 603 756 l 595 756 l 423 398 m 293 779 l 167 996 l 167 1010 l 317 1010 l 360 800 l 360 779 l 293 779 z "},"Ⱥ":{"ha":1072,"x_min":-31,"x_max":1001,"o":"m 1001 1138 l 839 800 l 976 0 l 714 0 l 683 212 l 557 212 l 394 -128 l 259 -128 l 423 212 l 334 212 l 232 0 l -31 0 l 478 1010 l 803 1010 l 803 1007 l 867 1138 l 1001 1138 m 511 398 l 621 627 l 603 756 l 595 756 l 423 398 l 511 398 m 653 413 l 646 398 l 655 398 l 653 413 z "},"Ά":{"ha":1072,"x_min":-31,"x_max":976,"o":"m 232 0 l -31 0 l 478 1010 l 803 1010 l 976 0 l 714 0 l 683 212 l 334 212 l 232 0 m 423 398 l 655 398 l 603 756 l 595 756 l 423 398 m 147 852 l 150 873 l 263 1083 l 466 1083 l 464 1069 l 265 852 l 147 852 z "},"А":{"ha":1072,"x_min":-31,"x_max":976,"o":"m 232 0 l -31 0 l 478 1010 l 803 1010 l 976 0 l 714 0 l 683 212 l 334 212 l 232 0 m 423 398 l 655 398 l 603 756 l 595 756 l 423 398 z "},"Ӑ":{"ha":1072,"x_min":-31,"x_max":976,"o":"m 232 0 l -31 0 l 478 1010 l 803 1010 l 976 0 l 714 0 l 683 212 l 334 212 l 232 0 m 423 398 l 655 398 l 603 756 l 595 756 l 423 398 m 783 1278 l 943 1278 q 848 1129 927 1186 q 652 1073 769 1073 q 473 1129 533 1073 q 428 1278 413 1186 l 586 1278 q 599 1219 581 1246 q 671 1193 617 1193 q 751 1219 724 1193 q 783 1278 777 1245 z "},"Ӓ":{"ha":1072,"x_min":-31,"x_max":976,"o":"m 232 0 l -31 0 l 478 1010 l 803 1010 l 976 0 l 714 0 l 683 212 l 334 212 l 232 0 m 423 398 l 655 398 l 603 756 l 595 756 l 423 398 m 826 1106 q 744 1142 775 1106 q 720 1228 712 1178 q 760 1294 727 1268 q 835 1321 794 1321 q 916 1285 886 1321 q 938 1199 946 1249 q 900 1133 932 1161 q 826 1106 867 1106 m 518 1106 q 436 1143 467 1106 q 412 1228 404 1179 q 453 1294 419 1268 q 527 1321 486 1321 q 608 1285 578 1321 q 630 1199 638 1249 q 592 1133 624 1161 q 518 1106 559 1106 z "},"ᾈ":{"ha":1072,"x_min":-31,"x_max":976,"o":"m 232 0 l -31 0 l 478 1010 l 803 1010 l 976 0 l 714 0 l 683 212 l 334 212 l 232 0 m 423 398 l 655 398 l 603 756 l 595 756 l 423 398 m 487 -335 q 398 -305 433 -335 q 375 -208 363 -275 l 399 -67 l 531 -67 l 508 -207 q 511 -234 505 -225 q 540 -243 517 -243 q 559 -242 551 -243 q 572 -241 566 -241 l 557 -326 q 525 -333 541 -330 q 487 -335 508 -335 m 369 1010 l 358 942 q 307 832 347 877 q 218 765 267 786 l 169 834 q 219 880 204 852 q 242 946 235 909 l 251 1010 l 369 1010 z "},"ᾉ":{"ha":1072,"x_min":-31,"x_max":976,"o":"m 232 0 l -31 0 l 478 1010 l 803 1010 l 976 0 l 714 0 l 683 212 l 334 212 l 232 0 m 423 398 l 655 398 l 603 756 l 595 756 l 423 398 m 487 -335 q 398 -305 433 -335 q 375 -208 363 -275 l 399 -67 l 531 -67 l 508 -207 q 511 -234 505 -225 q 540 -243 517 -243 q 559 -242 551 -243 q 572 -241 566 -241 l 557 -326 q 525 -333 541 -330 q 487 -335 508 -335 m 210 942 l 221 1010 l 340 1010 l 329 946 q 330 884 325 915 q 363 834 335 853 l 291 765 q 225 832 250 786 q 210 942 200 877 z "},"ᾊ":{"ha":1072,"x_min":-69,"x_max":976,"o":"m 232 0 l -31 0 l 478 1010 l 803 1010 l 976 0 l 714 0 l 683 212 l 334 212 l 232 0 m 423 398 l 655 398 l 603 756 l 595 756 l 423 398 m 487 -335 q 398 -305 433 -335 q 375 -208 363 -275 l 399 -67 l 531 -67 l 508 -207 q 511 -234 505 -225 q 540 -243 517 -243 q 559 -242 551 -243 q 572 -241 566 -241 l 557 -326 q 525 -333 541 -330 q 487 -335 508 -335 m 150 1010 l 142 955 q 89 847 132 896 q -20 765 46 798 l -69 807 q -14 874 -35 838 q 13 959 6 911 l 21 1010 l 150 1010 m 374 791 l 372 781 l 306 781 l 180 996 l 182 1010 l 329 1010 l 374 791 z "},"ᾋ":{"ha":1072,"x_min":-31,"x_max":976,"o":"m 232 0 l -31 0 l 478 1010 l 803 1010 l 976 0 l 714 0 l 683 212 l 334 212 l 232 0 m 423 398 l 655 398 l 603 756 l 595 756 l 423 398 m 487 -335 q 398 -305 433 -335 q 375 -208 363 -275 l 399 -67 l 531 -67 l 508 -207 q 511 -234 505 -225 q 540 -243 517 -243 q 559 -242 551 -243 q 572 -241 566 -241 l 557 -326 q 525 -333 541 -330 q 487 -335 508 -335 m -9 942 l 2 1010 l 123 1010 l 112 946 q 111 884 106 915 q 148 834 115 853 l 76 765 q 5 832 30 786 q -9 942 -20 877 m 374 798 l 372 780 l 306 780 l 179 996 l 181 1010 l 331 1010 l 374 798 z "},"ᾌ":{"ha":1072,"x_min":-47,"x_max":976,"o":"m 232 0 l -31 0 l 478 1010 l 803 1010 l 976 0 l 714 0 l 683 212 l 334 212 l 232 0 m 423 398 l 655 398 l 603 756 l 595 756 l 423 398 m 156 1010 l 145 942 q 93 832 134 878 q 0 765 51 786 l -47 834 q 5 884 -9 853 q 25 946 19 915 l 36 1010 l 156 1010 m 143 780 l 145 798 l 260 1010 l 409 1010 l 407 996 l 209 780 l 143 780 m 487 -335 q 398 -305 433 -335 q 375 -208 363 -275 l 399 -67 l 531 -67 l 508 -207 q 511 -234 505 -225 q 540 -243 517 -243 q 559 -242 551 -243 q 572 -241 566 -241 l 557 -326 q 525 -333 541 -330 q 487 -335 508 -335 z "},"ᾍ":{"ha":1072,"x_min":-57,"x_max":976,"o":"m 232 0 l -31 0 l 478 1010 l 803 1010 l 976 0 l 714 0 l 683 212 l 334 212 l 232 0 m 423 398 l 655 398 l 603 756 l 595 756 l 423 398 m 487 -335 q 398 -305 433 -335 q 375 -208 363 -275 l 399 -67 l 531 -67 l 508 -207 q 511 -234 505 -225 q 540 -243 517 -243 q 559 -242 551 -243 q 572 -241 566 -241 l 557 -326 q 525 -333 541 -330 q 487 -335 508 -335 m 36 765 q -30 830 -4 785 q -46 942 -57 875 l -35 1010 l 85 1010 l 74 946 q 74 880 69 909 q 108 834 79 852 l 36 765 m 143 780 l 145 798 l 256 1010 l 407 1010 l 405 996 l 206 780 l 143 780 z "},"ᾎ":{"ha":1072,"x_min":-31,"x_max":976,"o":"m 232 0 l -31 0 l 478 1010 l 803 1010 l 976 0 l 714 0 l 683 212 l 334 212 l 232 0 m 423 398 l 655 398 l 603 756 l 595 756 l 423 398 m 422 1181 l 511 1153 q 465 1067 503 1104 q 377 1030 428 1030 q 316 1041 341 1030 q 269 1064 291 1053 q 216 1075 247 1075 q 182 1057 196 1075 q 162 1016 167 1040 l 73 1043 q 120 1129 81 1091 q 208 1167 158 1167 q 263 1157 238 1167 q 314 1135 289 1146 q 368 1124 340 1124 q 403 1141 387 1124 q 422 1181 419 1158 m 344 995 l 334 939 q 287 847 325 883 q 202 794 250 810 l 157 849 q 204 890 192 863 q 220 943 217 917 l 230 995 l 344 995 m 487 -335 q 398 -305 433 -335 q 375 -208 363 -275 l 399 -67 l 531 -67 l 508 -207 q 511 -234 505 -225 q 540 -243 517 -243 q 559 -242 551 -243 q 572 -241 566 -241 l 557 -326 q 525 -333 541 -330 q 487 -335 508 -335 z "},"ᾏ":{"ha":1072,"x_min":-31,"x_max":976,"o":"m 232 0 l -31 0 l 478 1010 l 803 1010 l 976 0 l 714 0 l 683 212 l 334 212 l 232 0 m 423 398 l 655 398 l 603 756 l 595 756 l 423 398 m 487 -335 q 398 -305 433 -335 q 375 -208 363 -275 l 399 -67 l 531 -67 l 508 -207 q 511 -234 505 -225 q 540 -243 517 -243 q 559 -242 551 -243 q 572 -241 566 -241 l 557 -326 q 525 -333 541 -330 q 487 -335 508 -335 m 404 1182 l 493 1154 q 447 1068 485 1105 q 359 1031 410 1031 q 298 1042 323 1031 q 251 1065 274 1054 q 198 1076 229 1076 q 164 1058 179 1076 q 145 1017 149 1041 l 56 1044 q 102 1130 64 1092 q 190 1168 140 1168 q 246 1158 220 1168 q 297 1136 271 1147 q 350 1125 322 1125 q 385 1142 369 1125 q 404 1182 401 1159 m 203 940 l 213 996 l 327 996 l 317 944 q 317 891 314 918 q 351 850 321 864 l 285 795 q 221 846 248 810 q 203 940 194 882 z "},"ᾼ":{"ha":1072,"x_min":-31,"x_max":976,"o":"m 232 0 l -31 0 l 478 1010 l 803 1010 l 976 0 l 714 0 l 683 212 l 334 212 l 232 0 m 423 398 l 655 398 l 603 756 l 595 756 l 423 398 m 487 -335 q 398 -305 433 -335 q 375 -208 363 -275 l 399 -67 l 531 -67 l 508 -207 q 511 -234 505 -225 q 540 -243 517 -243 q 559 -242 551 -243 q 572 -241 566 -241 l 557 -326 q 525 -333 541 -330 q 487 -335 508 -335 z "},"Λ":{"ha":1072,"x_min":-31,"x_max":976,"o":"m 232 0 l -31 0 l 478 1010 l 803 1010 l 976 0 l 714 0 l 603 756 l 595 756 l 232 0 z "},"Æ":{"ha":1449,"x_min":-31,"x_max":1477,"o":"m -31 0 l 550 1010 l 1477 1010 l 1444 812 l 983 812 l 950 605 l 1374 605 l 1341 406 l 916 406 l 883 198 l 1343 198 l 1309 0 l 605 0 l 641 212 l 356 212 l 238 0 l -31 0 m 459 398 l 671 398 l 733 766 l 663 766 l 459 398 z "},"Ǣ":{"ha":1449,"x_min":-31,"x_max":1477,"o":"m -31 0 l 550 1010 l 1477 1010 l 1444 812 l 983 812 l 950 605 l 1374 605 l 1341 406 l 916 406 l 883 198 l 1343 198 l 1309 0 l 605 0 l 641 212 l 356 212 l 238 0 l -31 0 m 459 398 l 671 398 l 733 766 l 663 766 l 459 398 m 1303 1263 l 1284 1143 l 796 1143 l 815 1263 l 1303 1263 z "},"Ǽ":{"ha":1449,"x_min":-31,"x_max":1477,"o":"m -31 0 l 550 1010 l 1477 1010 l 1444 812 l 983 812 l 950 605 l 1374 605 l 1341 406 l 916 406 l 883 198 l 1343 198 l 1309 0 l 605 0 l 641 212 l 356 212 l 238 0 l -31 0 m 459 398 l 671 398 l 733 766 l 663 766 l 459 398 m 951 1106 l 1088 1329 l 1302 1329 l 1115 1106 l 951 1106 z "},"Ӕ":{"ha":1449,"x_min":-31,"x_max":1477,"o":"m -31 0 l 550 1010 l 1477 1010 l 1444 812 l 983 812 l 950 605 l 1374 605 l 1341 406 l 916 406 l 883 198 l 1343 198 l 1309 0 l 605 0 l 641 212 l 356 212 l 238 0 l -31 0 m 459 398 l 671 398 l 733 766 l 663 766 l 459 398 z "},"B":{"ha":922,"x_min":13,"x_max":924,"o":"m 13 0 l 181 1010 l 602 1010 q 848 940 772 1010 q 905 755 924 869 q 827 611 889 669 q 679 536 764 553 l 677 526 q 785 493 738 524 q 855 409 832 463 q 865 283 877 356 q 799 137 852 201 q 663 37 747 73 q 467 0 578 0 l 13 0 m 291 197 l 442 197 q 563 227 520 197 q 615 311 607 257 q 590 403 624 369 q 485 437 555 437 l 329 437 l 291 197 m 357 595 l 492 595 q 595 625 551 595 q 648 707 639 654 q 624 787 656 759 q 532 816 592 816 l 393 816 l 357 595 z "},"Ḃ":{"ha":922,"x_min":13,"x_max":924,"o":"m 13 0 l 181 1010 l 602 1010 q 848 940 772 1010 q 905 755 924 869 q 827 611 889 669 q 679 536 764 553 l 677 526 q 785 493 738 524 q 855 409 832 463 q 865 283 877 356 q 799 137 852 201 q 663 37 747 73 q 467 0 578 0 l 13 0 m 291 197 l 442 197 q 563 227 520 197 q 615 311 607 257 q 590 403 624 369 q 485 437 555 437 l 329 437 l 291 197 m 357 595 l 492 595 q 595 625 551 595 q 648 707 639 654 q 624 787 656 759 q 532 816 592 816 l 393 816 l 357 595 m 571 1098 q 487 1132 519 1098 q 462 1214 455 1166 q 511 1295 470 1262 q 603 1329 552 1329 q 685 1295 654 1329 q 710 1214 717 1262 q 663 1132 704 1166 q 571 1098 622 1098 z "},"Ḅ":{"ha":922,"x_min":13,"x_max":924,"o":"m 13 0 l 181 1010 l 602 1010 q 848 940 772 1010 q 905 755 924 869 q 827 611 889 669 q 679 536 764 553 l 677 526 q 785 493 738 524 q 855 409 832 463 q 865 283 877 356 q 799 137 852 201 q 663 37 747 73 q 467 0 578 0 l 13 0 m 291 197 l 442 197 q 563 227 520 197 q 615 311 607 257 q 590 403 624 369 q 485 437 555 437 l 329 437 l 291 197 m 357 595 l 492 595 q 595 625 551 595 q 648 707 639 654 q 624 787 656 759 q 532 816 592 816 l 393 816 l 357 595 m 340 -294 q 257 -260 289 -294 q 232 -179 225 -226 q 280 -98 239 -131 q 372 -64 322 -64 q 455 -98 424 -64 q 480 -179 486 -131 q 433 -260 473 -226 q 340 -294 392 -294 z "},"Ḇ":{"ha":922,"x_min":13,"x_max":924,"o":"m 13 0 l 181 1010 l 602 1010 q 848 940 772 1010 q 905 755 924 869 q 827 611 889 669 q 679 536 764 553 l 677 526 q 785 493 738 524 q 855 409 832 463 q 865 283 877 356 q 799 137 852 201 q 663 37 747 73 q 467 0 578 0 l 13 0 m 291 197 l 442 197 q 563 227 520 197 q 615 311 607 257 q 590 403 624 369 q 485 437 555 437 l 329 437 l 291 197 m 357 595 l 492 595 q 595 625 551 595 q 648 707 639 654 q 624 787 656 759 q 532 816 592 816 l 393 816 l 357 595 m 608 -127 l 589 -246 l 100 -246 l 119 -127 l 608 -127 z "},"Ƀ":{"ha":1014,"x_min":4,"x_max":1016,"o":"m 105 0 l 273 1010 l 694 1010 q 940 940 864 1010 q 996 755 1016 869 q 918 611 981 669 q 770 536 856 553 l 768 526 q 877 493 830 524 q 946 409 924 463 q 957 283 969 356 q 891 137 944 201 q 754 37 839 73 q 558 0 670 0 l 105 0 m 383 197 l 534 197 q 655 227 612 197 q 706 311 698 257 q 682 403 716 369 q 577 437 647 437 l 421 437 l 383 197 m 448 595 l 584 595 q 687 625 643 595 q 739 707 731 654 q 716 787 748 759 q 624 816 684 816 l 485 816 l 448 595 m 4 250 l 28 385 l 539 385 l 515 250 l 4 250 z "},"Ɓ":{"ha":1233,"x_min":84,"x_max":1235,"o":"m 324 0 l 459 813 l 435 813 q 367 794 393 813 q 328 745 341 775 q 310 686 315 716 l 299 620 l 84 620 l 102 730 q 221 936 122 861 q 466 1010 319 1010 l 913 1010 q 1159 940 1083 1010 q 1215 755 1235 869 q 1137 611 1200 669 q 989 536 1075 553 l 987 526 q 1096 493 1049 524 q 1165 409 1143 463 q 1176 283 1188 356 q 1110 137 1163 201 q 973 37 1058 73 q 777 0 889 0 l 324 0 m 602 197 l 753 197 q 874 227 831 197 q 925 311 917 257 q 901 403 935 369 q 796 437 866 437 l 640 437 l 602 197 m 667 595 l 803 595 q 906 625 862 595 q 958 707 950 654 q 935 787 967 759 q 843 816 903 816 l 704 816 l 667 595 z "},"В":{"ha":922,"x_min":13,"x_max":924,"o":"m 13 0 l 181 1010 l 602 1010 q 848 940 772 1010 q 905 755 924 869 q 827 611 889 669 q 679 536 764 553 l 677 526 q 785 493 738 524 q 855 409 832 463 q 865 283 877 356 q 799 137 852 201 q 663 37 747 73 q 467 0 578 0 l 13 0 m 291 197 l 442 197 q 563 227 520 197 q 615 311 607 257 q 590 403 624 369 q 485 437 555 437 l 329 437 l 291 197 m 357 595 l 492 595 q 595 625 551 595 q 648 707 639 654 q 624 787 656 759 q 532 816 592 816 l 393 816 l 357 595 z "},"Β":{"ha":922,"x_min":13,"x_max":924,"o":"m 13 0 l 181 1010 l 602 1010 q 848 940 772 1010 q 905 755 924 869 q 827 611 889 669 q 679 536 764 553 l 677 526 q 785 493 738 524 q 855 409 832 463 q 865 283 877 356 q 799 137 852 201 q 663 37 747 73 q 467 0 578 0 l 13 0 m 291 197 l 442 197 q 563 227 520 197 q 615 311 607 257 q 590 403 624 369 q 485 437 555 437 l 329 437 l 291 197 m 357 595 l 492 595 q 595 625 551 595 q 648 707 639 654 q 624 787 656 759 q 532 816 592 816 l 393 816 l 357 595 z "},"C":{"ha":1056,"x_min":62,"x_max":1044,"o":"m 1036 644 l 793 644 q 756 765 797 721 q 635 810 715 810 q 440 726 521 810 q 334 491 359 641 q 358 273 311 345 q 506 200 404 200 q 656 242 593 200 q 744 355 719 284 l 989 355 q 930 223 971 288 q 825 104 888 157 q 678 18 762 50 q 493 -14 595 -14 q 252 49 353 -14 q 107 231 151 111 q 90 519 62 350 q 197 796 117 684 q 393 966 278 908 q 638 1024 508 1024 q 856 979 764 1024 q 996 850 948 935 q 1036 644 1044 765 z "},"Ƈ":{"ha":1191,"x_min":62,"x_max":1312,"o":"m 1036 644 l 793 644 q 756 765 797 721 q 635 810 715 810 q 440 726 521 810 q 334 491 359 641 q 358 273 311 345 q 506 200 404 200 q 656 242 593 200 q 744 355 719 284 l 989 355 q 930 223 971 288 q 825 104 888 157 q 678 18 762 50 q 493 -14 595 -14 q 252 49 353 -14 q 107 231 151 111 q 90 519 62 350 q 197 796 117 684 q 393 966 278 908 q 638 1024 508 1024 q 918 941 813 1024 q 1049 1019 974 993 q 1203 1046 1124 1046 q 1257 1045 1232 1046 q 1312 1040 1283 1045 l 1281 847 q 1247 848 1268 847 q 1213 849 1227 849 q 1146 837 1182 849 q 1082 795 1110 824 q 1046 715 1054 766 l 1037 654 q 1036 644 1037 649 z "},"Ç":{"ha":1056,"x_min":62,"x_max":1044,"o":"m 1036 644 l 793 644 q 756 765 797 721 q 635 810 715 810 q 440 726 521 810 q 334 491 359 641 q 358 273 311 345 q 506 200 404 200 q 656 242 593 200 q 744 355 719 284 l 989 355 q 930 223 971 288 q 825 104 888 157 q 678 18 762 50 q 493 -14 595 -14 q 252 49 353 -14 q 107 231 151 111 q 90 519 62 350 q 197 796 117 684 q 393 966 278 908 q 638 1024 508 1024 q 856 979 764 1024 q 996 850 948 935 q 1036 644 1044 765 m 432 5 l 529 5 l 513 -39 q 593 -79 566 -47 q 612 -160 620 -110 q 519 -281 600 -236 q 306 -326 438 -326 l 323 -227 q 475 -165 461 -227 q 391 -96 487 -109 l 432 5 z "},"Ć":{"ha":1056,"x_min":62,"x_max":1044,"o":"m 1036 644 l 793 644 q 756 765 797 721 q 635 810 715 810 q 440 726 521 810 q 334 491 359 641 q 358 273 311 345 q 506 200 404 200 q 656 242 593 200 q 744 355 719 284 l 989 355 q 930 223 971 288 q 825 104 888 157 q 678 18 762 50 q 493 -14 595 -14 q 252 49 353 -14 q 107 231 151 111 q 90 519 62 350 q 197 796 117 684 q 393 966 278 908 q 638 1024 508 1024 q 856 979 764 1024 q 996 850 948 935 q 1036 644 1044 765 m 582 1106 l 720 1329 l 933 1329 l 746 1106 l 582 1106 z "},"Ĉ":{"ha":1056,"x_min":62,"x_max":1044,"o":"m 1036 644 l 793 644 q 756 765 797 721 q 635 810 715 810 q 440 726 521 810 q 334 491 359 641 q 358 273 311 345 q 506 200 404 200 q 656 242 593 200 q 744 355 719 284 l 989 355 q 930 223 971 288 q 825 104 888 157 q 678 18 762 50 q 493 -14 595 -14 q 252 49 353 -14 q 107 231 151 111 q 90 519 62 350 q 197 796 117 684 q 393 966 278 908 q 638 1024 508 1024 q 856 979 764 1024 q 996 850 948 935 q 1036 644 1044 765 m 567 1101 l 365 1101 l 366 1107 l 617 1328 l 790 1328 l 966 1107 l 965 1101 l 763 1101 l 684 1215 l 567 1101 z "},"Ċ":{"ha":1056,"x_min":62,"x_max":1044,"o":"m 1036 644 l 793 644 q 756 765 797 721 q 635 810 715 810 q 440 726 521 810 q 334 491 359 641 q 358 273 311 345 q 506 200 404 200 q 656 242 593 200 q 744 355 719 284 l 989 355 q 930 223 971 288 q 825 104 888 157 q 678 18 762 50 q 493 -14 595 -14 q 252 49 353 -14 q 107 231 151 111 q 90 519 62 350 q 197 796 117 684 q 393 966 278 908 q 638 1024 508 1024 q 856 979 764 1024 q 996 850 948 935 q 1036 644 1044 765 m 668 1098 q 584 1132 617 1098 q 559 1214 552 1166 q 608 1295 567 1262 q 700 1329 649 1329 q 782 1295 751 1329 q 807 1214 814 1262 q 760 1132 801 1166 q 668 1098 719 1098 z "},"Č":{"ha":1056,"x_min":62,"x_max":1044,"o":"m 1036 644 l 793 644 q 756 765 797 721 q 635 810 715 810 q 440 726 521 810 q 334 491 359 641 q 358 273 311 345 q 506 200 404 200 q 656 242 593 200 q 744 355 719 284 l 989 355 q 930 223 971 288 q 825 104 888 157 q 678 18 762 50 q 493 -14 595 -14 q 252 49 353 -14 q 107 231 151 111 q 90 519 62 350 q 197 796 117 684 q 393 966 278 908 q 638 1024 508 1024 q 856 979 764 1024 q 996 850 948 935 q 1036 644 1044 765 m 604 1328 l 683 1214 l 800 1328 l 1002 1328 l 1001 1322 l 752 1101 l 579 1101 l 401 1322 l 402 1328 l 604 1328 z "},"Ḉ":{"ha":1056,"x_min":62,"x_max":1044,"o":"m 1036 644 l 793 644 q 756 765 797 721 q 635 810 715 810 q 440 726 521 810 q 334 491 359 641 q 358 273 311 345 q 506 200 404 200 q 656 242 593 200 q 744 355 719 284 l 989 355 q 930 223 971 288 q 825 104 888 157 q 678 18 762 50 q 493 -14 595 -14 q 252 49 353 -14 q 107 231 151 111 q 90 519 62 350 q 197 796 117 684 q 393 966 278 908 q 638 1024 508 1024 q 856 979 764 1024 q 996 850 948 935 q 1036 644 1044 765 m 432 5 l 529 5 l 513 -39 q 593 -79 566 -47 q 612 -160 620 -110 q 519 -281 600 -236 q 306 -326 438 -326 l 323 -227 q 475 -165 461 -227 q 391 -96 487 -109 l 432 5 m 582 1106 l 720 1329 l 933 1329 l 746 1106 l 582 1106 z "},"Ȼ":{"ha":1054,"x_min":61,"x_max":1044,"o":"m 181 -128 l 262 42 q 110 224 158 103 q 90 519 61 345 q 197 796 117 684 q 393 966 278 908 q 638 1024 508 1024 q 729 1017 686 1024 l 788 1138 l 922 1138 l 848 983 q 993 854 943 940 q 1036 644 1044 768 l 793 644 q 747 773 797 729 l 473 202 q 506 200 489 200 q 656 242 593 200 q 744 355 719 284 l 989 355 q 930 223 971 288 q 825 104 888 157 q 678 18 762 50 q 493 -14 595 -14 q 376 -1 431 -14 l 315 -128 l 181 -128 m 366 260 l 630 810 q 438 724 517 808 q 334 491 359 639 q 330 354 321 411 q 366 260 339 296 z "},"Ɔ":{"ha":1055,"x_min":55,"x_max":1040,"o":"m 108 644 q 216 850 141 765 q 399 979 292 935 q 631 1024 506 1024 q 858 966 763 1024 q 997 796 954 908 q 1013 519 1040 684 q 900 231 984 350 q 695 49 816 111 q 434 -14 574 -14 q 259 18 331 -14 q 140 104 186 50 q 75 223 95 157 q 59 355 55 288 l 304 355 q 355 242 305 284 q 491 200 404 200 q 664 273 593 200 q 759 491 734 345 q 731 726 784 641 q 564 810 678 810 q 428 765 484 810 q 351 644 373 721 l 108 644 z "},"Ϲ":{"ha":1056,"x_min":62,"x_max":1044,"o":"m 1036 644 l 793 644 q 756 765 797 721 q 635 810 715 810 q 440 726 521 810 q 334 491 359 641 q 358 273 311 345 q 506 200 404 200 q 656 242 593 200 q 744 355 719 284 l 989 355 q 930 223 971 288 q 825 104 888 157 q 678 18 762 50 q 493 -14 595 -14 q 252 49 353 -14 q 107 231 151 111 q 90 519 62 350 q 197 796 117 684 q 393 966 278 908 q 638 1024 508 1024 q 856 979 764 1024 q 996 850 948 935 q 1036 644 1044 765 z "},"D":{"ha":1014,"x_min":13,"x_max":993,"o":"m 392 0 l 13 0 l 181 1010 l 548 1010 q 805 948 703 1010 q 951 769 908 885 q 967 493 993 654 q 864 227 941 338 q 666 58 786 117 q 392 0 546 0 m 292 208 l 407 208 q 617 279 535 208 q 727 518 700 350 q 698 740 754 677 q 512 802 642 802 l 391 802 l 292 208 z "},"Ɗ":{"ha":1326,"x_min":82,"x_max":1306,"o":"m 82 620 l 100 730 q 220 936 121 861 q 465 1010 318 1010 l 861 1010 q 1118 948 1015 1010 q 1263 769 1220 885 q 1279 493 1306 654 q 1176 227 1253 338 q 978 58 1098 117 q 704 0 858 0 l 326 0 l 459 802 l 430 802 q 342 767 368 802 q 309 686 316 731 l 298 620 l 82 620 m 703 802 l 604 208 l 720 208 q 929 279 847 208 q 1039 518 1012 350 q 1010 740 1066 677 q 824 802 954 802 l 703 802 z "},"Ď":{"ha":1014,"x_min":13,"x_max":993,"o":"m 392 0 l 13 0 l 181 1010 l 548 1010 q 805 948 703 1010 q 951 769 908 885 q 967 493 993 654 q 864 227 941 338 q 666 58 786 117 q 392 0 546 0 m 292 208 l 407 208 q 617 279 535 208 q 727 518 700 350 q 698 740 754 677 q 512 802 642 802 l 391 802 l 292 208 m 490 1328 l 569 1214 l 686 1328 l 888 1328 l 887 1322 l 638 1101 l 465 1101 l 287 1322 l 288 1328 l 490 1328 z "},"Ḋ":{"ha":1014,"x_min":13,"x_max":993,"o":"m 392 0 l 13 0 l 181 1010 l 548 1010 q 805 948 703 1010 q 951 769 908 885 q 967 493 993 654 q 864 227 941 338 q 666 58 786 117 q 392 0 546 0 m 292 208 l 407 208 q 617 279 535 208 q 727 518 700 350 q 698 740 754 677 q 512 802 642 802 l 391 802 l 292 208 m 553 1098 q 470 1132 502 1098 q 445 1214 438 1166 q 493 1295 452 1262 q 585 1329 535 1329 q 668 1295 637 1329 q 693 1214 699 1262 q 646 1132 687 1166 q 553 1098 605 1098 z "},"Ḍ":{"ha":1014,"x_min":13,"x_max":993,"o":"m 392 0 l 13 0 l 181 1010 l 548 1010 q 805 948 703 1010 q 951 769 908 885 q 967 493 993 654 q 864 227 941 338 q 666 58 786 117 q 392 0 546 0 m 292 208 l 407 208 q 617 279 535 208 q 727 518 700 350 q 698 740 754 677 q 512 802 642 802 l 391 802 l 292 208 m 331 -294 q 248 -260 280 -294 q 222 -179 216 -226 q 271 -98 230 -131 q 363 -64 312 -64 q 446 -98 414 -64 q 471 -179 477 -131 q 423 -260 464 -226 q 331 -294 382 -294 z "},"Ḏ":{"ha":1014,"x_min":13,"x_max":993,"o":"m 392 0 l 13 0 l 181 1010 l 548 1010 q 805 948 703 1010 q 951 769 908 885 q 967 493 993 654 q 864 227 941 338 q 666 58 786 117 q 392 0 546 0 m 292 208 l 407 208 q 617 279 535 208 q 727 518 700 350 q 698 740 754 677 q 512 802 642 802 l 391 802 l 292 208 m 598 -127 l 580 -246 l 91 -246 l 110 -127 l 598 -127 z "},"Ḑ":{"ha":1014,"x_min":13,"x_max":993,"o":"m 392 0 l 13 0 l 181 1010 l 548 1010 q 805 948 703 1010 q 951 769 908 885 q 967 493 993 654 q 864 227 941 338 q 666 58 786 117 q 392 0 546 0 m 292 208 l 407 208 q 617 279 535 208 q 727 518 700 350 q 698 740 754 677 q 512 802 642 802 l 391 802 l 292 208 m 151 -320 l 254 -80 l 474 -80 l 318 -320 l 151 -320 z "},"Ḓ":{"ha":1014,"x_min":13,"x_max":993,"o":"m 392 0 l 13 0 l 181 1010 l 548 1010 q 805 948 703 1010 q 951 769 908 885 q 967 493 993 654 q 864 227 941 338 q 666 58 786 117 q 392 0 546 0 m 292 208 l 407 208 q 617 279 535 208 q 727 518 700 350 q 698 740 754 677 q 512 802 642 802 l 391 802 l 292 208 m 241 -291 l 38 -291 l 39 -284 l 291 -63 l 464 -63 l 639 -284 l 638 -291 l 436 -291 l 358 -176 l 241 -291 z "},"Ɖ":{"ha":1014,"x_min":-40,"x_max":993,"o":"m 392 0 l 13 0 l 181 1010 l 548 1010 q 805 948 703 1010 q 951 769 908 885 q 967 493 993 654 q 864 227 941 338 q 666 58 786 117 q 392 0 546 0 m 292 208 l 407 208 q 617 279 535 208 q 727 518 700 350 q 698 740 754 677 q 512 802 642 802 l 391 802 l 292 208 m -40 470 l -16 604 l 495 604 l 472 470 l -40 470 z "},"ǲ":{"ha":1826,"x_min":13,"x_max":1796,"o":"m 392 0 l 13 0 l 181 1010 l 548 1010 q 805 948 703 1010 q 951 769 908 885 q 967 493 993 654 q 864 227 941 338 q 666 58 786 117 q 392 0 546 0 m 292 208 l 407 208 q 617 279 535 208 q 727 518 700 350 q 698 740 754 677 q 512 802 642 802 l 391 802 l 292 208 m 1031 0 l 1053 138 l 1475 565 l 1477 570 l 1137 570 l 1169 758 l 1796 758 l 1772 607 l 1378 192 l 1376 187 l 1713 187 l 1683 0 l 1031 0 z "},"ǅ":{"ha":1826,"x_min":13,"x_max":1832,"o":"m 392 0 l 13 0 l 181 1010 l 548 1010 q 805 948 703 1010 q 951 769 908 885 q 967 493 993 654 q 864 227 941 338 q 666 58 786 117 q 392 0 546 0 m 292 208 l 407 208 q 617 279 535 208 q 727 518 700 350 q 698 740 754 677 q 512 802 642 802 l 391 802 l 292 208 m 1031 0 l 1053 138 l 1475 565 l 1477 570 l 1137 570 l 1169 758 l 1796 758 l 1772 607 l 1378 192 l 1376 187 l 1713 187 l 1683 0 l 1031 0 m 1435 1076 l 1514 961 l 1631 1076 l 1832 1076 l 1831 1069 l 1582 848 l 1409 848 l 1232 1069 l 1233 1076 l 1435 1076 z "},"E":{"ha":857,"x_min":13,"x_max":885,"o":"m 13 0 l 181 1010 l 885 1010 l 852 812 l 392 812 l 358 605 l 782 605 l 749 406 l 325 406 l 291 198 l 751 198 l 718 0 l 13 0 z "},"È":{"ha":857,"x_min":13,"x_max":885,"o":"m 13 0 l 181 1010 l 885 1010 l 852 812 l 392 812 l 358 605 l 782 605 l 749 406 l 325 406 l 291 198 l 751 198 l 718 0 l 13 0 m 472 1106 l 360 1329 l 573 1329 l 637 1106 l 472 1106 z "},"É":{"ha":857,"x_min":13,"x_max":885,"o":"m 13 0 l 181 1010 l 885 1010 l 852 812 l 392 812 l 358 605 l 782 605 l 749 406 l 325 406 l 291 198 l 751 198 l 718 0 l 13 0 m 469 1106 l 606 1329 l 819 1329 l 632 1106 l 469 1106 z "},"Ê":{"ha":857,"x_min":13,"x_max":885,"o":"m 13 0 l 181 1010 l 885 1010 l 852 812 l 392 812 l 358 605 l 782 605 l 749 406 l 325 406 l 291 198 l 751 198 l 718 0 l 13 0 m 453 1101 l 251 1101 l 252 1107 l 503 1328 l 676 1328 l 852 1107 l 851 1101 l 649 1101 l 570 1215 l 453 1101 z "},"Ë":{"ha":857,"x_min":13,"x_max":885,"o":"m 13 0 l 181 1010 l 885 1010 l 852 812 l 392 812 l 358 605 l 782 605 l 749 406 l 325 406 l 291 198 l 751 198 l 718 0 l 13 0 m 721 1106 q 638 1142 670 1106 q 615 1228 607 1178 q 655 1294 622 1268 q 729 1321 689 1321 q 811 1285 781 1321 q 833 1199 841 1249 q 795 1133 827 1161 q 721 1106 762 1106 m 413 1106 q 331 1143 362 1106 q 307 1228 299 1179 q 347 1294 314 1268 q 422 1321 381 1321 q 503 1285 473 1321 q 525 1199 533 1249 q 487 1133 519 1161 q 413 1106 454 1106 z "},"Ē":{"ha":857,"x_min":13,"x_max":885,"o":"m 13 0 l 181 1010 l 885 1010 l 852 812 l 392 812 l 358 605 l 782 605 l 749 406 l 325 406 l 291 198 l 751 198 l 718 0 l 13 0 m 821 1263 l 802 1143 l 313 1143 l 332 1263 l 821 1263 z "},"Ĕ":{"ha":857,"x_min":13,"x_max":885,"o":"m 13 0 l 181 1010 l 885 1010 l 852 812 l 392 812 l 358 605 l 782 605 l 749 406 l 325 406 l 291 198 l 751 198 l 718 0 l 13 0 m 678 1278 l 837 1278 q 743 1129 822 1186 q 546 1073 664 1073 q 368 1129 428 1073 q 323 1278 308 1186 l 481 1278 q 494 1219 475 1246 q 566 1193 512 1193 q 646 1219 619 1193 q 678 1278 672 1245 z "},"Ė":{"ha":857,"x_min":13,"x_max":885,"o":"m 13 0 l 181 1010 l 885 1010 l 852 812 l 392 812 l 358 605 l 782 605 l 749 406 l 325 406 l 291 198 l 751 198 l 718 0 l 13 0 m 553 1098 q 470 1132 502 1098 q 445 1214 438 1166 q 493 1295 452 1262 q 585 1329 535 1329 q 668 1295 637 1329 q 693 1214 699 1262 q 646 1132 687 1166 q 553 1098 605 1098 z "},"Ę":{"ha":857,"x_min":13,"x_max":885,"o":"m 13 0 l 181 1010 l 885 1010 l 852 812 l 392 812 l 358 605 l 782 605 l 749 406 l 325 406 l 291 198 l 751 198 l 718 0 l 13 0 m 574 -279 q 467 -245 507 -279 q 423 -148 428 -211 q 432 -65 419 -107 q 472 12 445 -22 q 538 62 500 46 l 718 0 q 638 -39 669 -18 q 602 -93 607 -61 q 639 -144 592 -144 q 666 -140 654 -144 q 688 -134 678 -136 l 696 -249 q 644 -269 675 -259 q 574 -279 613 -279 z "},"Ě":{"ha":857,"x_min":13,"x_max":888,"o":"m 13 0 l 181 1010 l 885 1010 l 852 812 l 392 812 l 358 605 l 782 605 l 749 406 l 325 406 l 291 198 l 751 198 l 718 0 l 13 0 m 490 1328 l 569 1214 l 686 1328 l 888 1328 l 887 1322 l 638 1101 l 465 1101 l 287 1322 l 288 1328 l 490 1328 z "},"Ȅ":{"ha":857,"x_min":13,"x_max":885,"o":"m 13 0 l 181 1010 l 885 1010 l 852 812 l 392 812 l 358 605 l 782 605 l 749 406 l 325 406 l 291 198 l 751 198 l 718 0 l 13 0 m 494 1106 l 325 1152 l 265 1329 l 469 1283 l 494 1106 m 745 1106 l 589 1152 l 572 1329 l 756 1283 l 745 1106 z "},"Ȇ":{"ha":857,"x_min":13,"x_max":885,"o":"m 13 0 l 181 1010 l 885 1010 l 852 812 l 392 812 l 358 605 l 782 605 l 749 406 l 325 406 l 291 198 l 751 198 l 718 0 l 13 0 m 298 1130 q 392 1283 314 1223 q 590 1342 471 1342 q 769 1283 708 1342 q 814 1130 830 1223 l 655 1130 q 641 1189 659 1163 q 570 1215 623 1215 q 489 1189 516 1215 q 458 1130 462 1163 l 298 1130 z "},"Ȩ":{"ha":857,"x_min":13,"x_max":885,"o":"m 13 0 l 181 1010 l 885 1010 l 852 812 l 392 812 l 358 605 l 782 605 l 749 406 l 325 406 l 291 198 l 751 198 l 718 0 l 13 0 m 322 4 l 418 4 l 402 -40 q 483 -80 455 -48 q 501 -161 510 -112 q 408 -283 489 -238 q 196 -327 327 -327 l 212 -228 q 365 -167 350 -228 q 281 -98 376 -111 l 322 4 z "},"Ḕ":{"ha":857,"x_min":13,"x_max":885,"o":"m 13 0 l 181 1010 l 885 1010 l 852 812 l 392 812 l 358 605 l 782 605 l 749 406 l 325 406 l 291 198 l 751 198 l 718 0 l 13 0 m 817 1241 l 798 1122 l 309 1122 l 328 1241 l 817 1241 m 512 1331 l 372 1513 l 579 1513 l 683 1331 l 512 1331 z "},"Ḗ":{"ha":857,"x_min":13,"x_max":885,"o":"m 13 0 l 181 1010 l 885 1010 l 852 812 l 392 812 l 358 605 l 782 605 l 749 406 l 325 406 l 291 198 l 751 198 l 718 0 l 13 0 m 814 1241 l 796 1122 l 307 1122 l 326 1241 l 814 1241 m 494 1331 l 659 1513 l 866 1513 l 665 1331 l 494 1331 z "},"Ḙ":{"ha":857,"x_min":13,"x_max":885,"o":"m 13 0 l 181 1010 l 885 1010 l 852 812 l 392 812 l 358 605 l 782 605 l 749 406 l 325 406 l 291 198 l 751 198 l 718 0 l 13 0 m 232 -291 l 30 -291 l 31 -284 l 282 -63 l 455 -63 l 630 -284 l 629 -291 l 428 -291 l 349 -176 l 232 -291 z "},"Ḛ":{"ha":857,"x_min":13,"x_max":885,"o":"m 13 0 l 181 1010 l 885 1010 l 852 812 l 392 812 l 358 605 l 782 605 l 749 406 l 325 406 l 291 198 l 751 198 l 718 0 l 13 0 m 196 -278 l 71 -277 q 143 -125 87 -177 q 267 -73 199 -73 q 328 -85 304 -73 q 370 -112 352 -97 q 403 -139 387 -128 q 438 -151 419 -151 q 484 -130 467 -151 q 507 -74 501 -109 l 629 -76 q 556 -227 612 -176 q 432 -280 500 -279 q 370 -268 394 -280 q 330 -241 347 -256 q 298 -214 314 -226 q 262 -203 283 -203 q 220 -222 238 -203 q 196 -278 202 -242 z "},"Ḝ":{"ha":857,"x_min":13,"x_max":885,"o":"m 13 0 l 181 1010 l 885 1010 l 852 812 l 392 812 l 358 605 l 782 605 l 749 406 l 325 406 l 291 198 l 751 198 l 718 0 l 13 0 m 322 4 l 418 4 l 402 -40 q 483 -80 455 -48 q 501 -161 510 -112 q 408 -283 489 -238 q 196 -327 327 -327 l 212 -228 q 365 -167 350 -228 q 281 -98 376 -111 l 322 4 m 678 1278 l 837 1278 q 743 1129 822 1186 q 546 1073 664 1073 q 368 1129 428 1073 q 323 1278 308 1186 l 481 1278 q 494 1219 475 1246 q 566 1193 512 1193 q 646 1219 619 1193 q 678 1278 672 1245 z "},"Ẹ":{"ha":857,"x_min":13,"x_max":885,"o":"m 13 0 l 181 1010 l 885 1010 l 852 812 l 392 812 l 358 605 l 782 605 l 749 406 l 325 406 l 291 198 l 751 198 l 718 0 l 13 0 m 322 -294 q 239 -260 271 -294 q 214 -179 207 -226 q 262 -98 221 -131 q 354 -64 303 -64 q 437 -98 405 -64 q 462 -179 468 -131 q 414 -260 455 -226 q 322 -294 373 -294 z "},"Ẻ":{"ha":857,"x_min":13,"x_max":885,"o":"m 13 0 l 181 1010 l 885 1010 l 852 812 l 392 812 l 358 605 l 782 605 l 749 406 l 325 406 l 291 198 l 751 198 l 718 0 l 13 0 m 641 1121 l 465 1121 l 464 1203 q 541 1217 516 1205 q 567 1246 565 1229 q 546 1281 572 1273 q 479 1290 520 1290 l 502 1392 q 711 1356 643 1392 q 769 1257 780 1321 q 726 1191 762 1213 q 647 1162 689 1168 l 641 1121 z "},"Ẽ":{"ha":857,"x_min":13,"x_max":885,"o":"m 13 0 l 181 1010 l 885 1010 l 852 812 l 392 812 l 358 605 l 782 605 l 749 406 l 325 406 l 291 198 l 751 198 l 718 0 l 13 0 m 415 1104 l 290 1105 q 363 1256 307 1205 q 487 1308 418 1308 q 547 1296 523 1308 q 589 1269 572 1285 q 622 1242 607 1254 q 658 1231 638 1231 q 703 1252 686 1231 q 726 1307 720 1272 l 849 1306 q 775 1154 831 1206 q 651 1102 719 1103 q 590 1113 614 1102 q 550 1140 566 1125 q 518 1167 533 1156 q 481 1179 503 1179 q 439 1159 457 1179 q 415 1104 421 1140 z "},"Ế":{"ha":857,"x_min":13,"x_max":1088,"o":"m 13 0 l 181 1010 l 885 1010 l 852 812 l 392 812 l 358 605 l 782 605 l 749 406 l 325 406 l 291 198 l 751 198 l 718 0 l 13 0 m 291 1085 l 513 1229 l 628 1229 l 803 1085 l 649 1085 l 560 1161 l 444 1085 l 291 1085 m 765 1161 l 918 1347 l 1088 1347 l 890 1161 l 765 1161 z "},"Ề":{"ha":857,"x_min":13,"x_max":885,"o":"m 13 0 l 181 1010 l 885 1010 l 852 812 l 392 812 l 358 605 l 782 605 l 749 406 l 325 406 l 291 198 l 751 198 l 718 0 l 13 0 m 629 1230 l 806 1086 l 651 1086 l 563 1162 l 447 1086 l 294 1086 l 515 1230 l 629 1230 m 265 1347 l 357 1162 l 235 1162 l 99 1347 l 265 1347 z "},"Ể":{"ha":857,"x_min":13,"x_max":984,"o":"m 13 0 l 181 1010 l 885 1010 l 852 812 l 392 812 l 358 605 l 782 605 l 749 406 l 325 406 l 291 198 l 751 198 l 718 0 l 13 0 m 629 1231 l 801 1087 l 649 1087 l 560 1160 l 444 1087 l 291 1087 l 513 1231 l 629 1231 m 868 1170 l 751 1170 l 749 1239 q 836 1274 831 1242 q 818 1304 840 1297 q 760 1311 795 1311 l 781 1395 q 934 1366 885 1395 q 975 1283 984 1337 q 938 1229 969 1248 q 874 1203 907 1209 l 868 1170 z "},"Ễ":{"ha":857,"x_min":13,"x_max":885,"o":"m 13 0 l 181 1010 l 885 1010 l 852 812 l 392 812 l 358 605 l 782 605 l 749 406 l 325 406 l 291 198 l 751 198 l 718 0 l 13 0 m 633 1235 l 804 1089 l 653 1089 l 561 1164 l 448 1089 l 292 1089 l 514 1235 l 633 1235 m 704 1401 l 778 1373 q 743 1299 771 1333 q 673 1266 714 1266 q 619 1277 642 1266 q 574 1298 595 1287 q 529 1308 553 1308 q 504 1295 513 1308 q 492 1263 495 1281 l 419 1284 q 453 1355 424 1322 q 523 1388 481 1388 q 572 1378 547 1388 q 620 1358 596 1368 q 667 1347 644 1347 q 691 1365 681 1347 q 704 1401 701 1382 z "},"Ệ":{"ha":857,"x_min":13,"x_max":885,"o":"m 13 0 l 181 1010 l 885 1010 l 852 812 l 392 812 l 358 605 l 782 605 l 749 406 l 325 406 l 291 198 l 751 198 l 718 0 l 13 0 m 453 1101 l 251 1101 l 252 1107 l 503 1328 l 676 1328 l 852 1107 l 851 1101 l 649 1101 l 570 1215 l 453 1101 m 322 -294 q 239 -260 271 -294 q 214 -179 207 -226 q 262 -98 221 -131 q 354 -64 303 -64 q 437 -98 405 -64 q 462 -179 468 -131 q 414 -260 455 -226 q 322 -294 373 -294 z "},"Ɇ":{"ha":857,"x_min":13,"x_max":885,"o":"m 823 1138 l 764 1010 l 885 1010 l 852 812 l 674 812 l 580 605 l 782 605 l 749 406 l 490 406 l 395 198 l 751 198 l 718 0 l 305 0 l 247 -128 l 134 -128 l 192 0 l 13 0 l 181 1010 l 652 1010 l 710 1138 l 823 1138 m 562 812 l 392 812 l 358 605 l 468 605 l 562 812 m 377 406 l 325 406 l 295 227 l 377 406 z "},"Ǝ":{"ha":861,"x_min":-54,"x_max":818,"o":"m 818 1010 l 651 0 l -54 0 l -20 198 l 440 198 l 473 405 l 49 405 l 83 604 l 507 604 l 541 812 l 80 812 l 114 1010 l 818 1010 z "},"Ε":{"ha":857,"x_min":13,"x_max":885,"o":"m 13 0 l 181 1010 l 885 1010 l 852 812 l 392 812 l 358 605 l 782 605 l 749 406 l 325 406 l 291 198 l 751 198 l 718 0 l 13 0 z "},"Έ":{"ha":1135,"x_min":150,"x_max":1163,"o":"m 291 0 l 459 1010 l 1163 1010 l 1129 812 l 669 812 l 636 605 l 1060 605 l 1026 406 l 602 406 l 569 198 l 1029 198 l 995 0 l 291 0 m 150 850 l 248 1086 l 456 1086 l 288 850 l 150 850 z "},"Ἐ":{"ha":1093,"x_min":136,"x_max":1121,"o":"m 249 0 l 417 1010 l 1121 1010 l 1088 812 l 627 812 l 594 605 l 1018 605 l 984 406 l 560 406 l 527 198 l 987 198 l 953 0 l 249 0 m 336 1010 l 325 942 q 275 832 315 877 q 185 765 235 786 l 136 834 q 187 880 171 852 q 209 946 203 909 l 218 1010 l 336 1010 z "},"Ἑ":{"ha":1077,"x_min":152,"x_max":1105,"o":"m 233 0 l 401 1010 l 1105 1010 l 1072 812 l 612 812 l 578 605 l 1002 605 l 969 406 l 545 406 l 511 198 l 971 198 l 938 0 l 233 0 m 161 942 l 173 1010 l 292 1010 l 281 946 q 281 884 276 915 q 315 834 287 853 l 243 765 q 177 832 201 786 q 161 942 152 877 z "},"Ἒ":{"ha":1333,"x_min":138,"x_max":1360,"o":"m 488 0 l 656 1010 l 1360 1010 l 1327 812 l 867 812 l 833 605 l 1257 605 l 1224 406 l 799 406 l 766 198 l 1226 198 l 1193 0 l 488 0 m 357 1010 l 349 955 q 295 847 338 896 q 186 765 253 798 l 138 807 q 192 874 172 838 q 220 959 213 911 l 228 1010 l 357 1010 m 581 791 l 579 781 l 512 781 l 386 996 l 388 1010 l 536 1010 l 581 791 z "},"Ἓ":{"ha":1292,"x_min":146,"x_max":1320,"o":"m 448 0 l 616 1010 l 1320 1010 l 1286 812 l 826 812 l 793 605 l 1217 605 l 1183 406 l 759 406 l 726 198 l 1186 198 l 1152 0 l 448 0 m 157 942 l 168 1010 l 289 1010 l 278 946 q 276 884 272 915 q 314 834 281 853 l 242 765 q 171 832 196 786 q 157 942 146 877 m 540 798 l 538 780 l 472 780 l 345 996 l 347 1010 l 497 1010 l 540 798 z "},"Ἔ":{"ha":1318,"x_min":145,"x_max":1346,"o":"m 474 0 l 642 1010 l 1346 1010 l 1312 812 l 852 812 l 819 605 l 1243 605 l 1209 406 l 785 406 l 752 198 l 1212 198 l 1178 0 l 474 0 m 349 1010 l 337 942 q 285 832 327 878 q 192 765 244 786 l 145 834 q 197 884 183 853 q 217 946 211 915 l 228 1010 l 349 1010 m 335 780 l 337 798 l 453 1010 l 601 1010 l 599 996 l 401 780 l 335 780 z "},"Ἕ":{"ha":1333,"x_min":150,"x_max":1361,"o":"m 489 0 l 656 1010 l 1361 1010 l 1327 812 l 867 812 l 834 605 l 1258 605 l 1224 406 l 800 406 l 766 198 l 1227 198 l 1193 0 l 489 0 m 243 765 q 177 830 203 785 q 161 942 150 875 l 173 1010 l 292 1010 l 281 946 q 281 880 276 909 q 315 834 287 852 l 243 765 m 350 780 l 352 798 l 464 1010 l 614 1010 l 612 996 l 413 780 l 350 780 z "},"Ὲ":{"ha":1130,"x_min":171,"x_max":1158,"o":"m 286 0 l 454 1010 l 1158 1010 l 1125 812 l 664 812 l 631 605 l 1055 605 l 1021 406 l 597 406 l 564 198 l 1024 198 l 990 0 l 286 0 m 298 779 l 171 996 l 171 1010 l 322 1010 l 364 800 l 364 779 l 298 779 z "},"Έ":{"ha":1113,"x_min":134,"x_max":1141,"o":"m 269 0 l 436 1010 l 1141 1010 l 1107 812 l 647 812 l 614 605 l 1038 605 l 1004 406 l 580 406 l 546 198 l 1007 198 l 973 0 l 269 0 m 134 852 l 138 873 l 251 1083 l 453 1083 l 451 1069 l 253 852 l 134 852 z "},"Е":{"ha":857,"x_min":13,"x_max":885,"o":"m 13 0 l 181 1010 l 885 1010 l 852 812 l 392 812 l 358 605 l 782 605 l 749 406 l 325 406 l 291 198 l 751 198 l 718 0 l 13 0 z "},"Ѐ":{"ha":857,"x_min":13,"x_max":885,"o":"m 13 0 l 181 1010 l 885 1010 l 852 812 l 392 812 l 358 605 l 782 605 l 749 406 l 325 406 l 291 198 l 751 198 l 718 0 l 13 0 m 472 1106 l 360 1329 l 573 1329 l 637 1106 l 472 1106 z "},"Ё":{"ha":857,"x_min":13,"x_max":885,"o":"m 13 0 l 181 1010 l 885 1010 l 852 812 l 392 812 l 358 605 l 782 605 l 749 406 l 325 406 l 291 198 l 751 198 l 718 0 l 13 0 m 721 1106 q 638 1142 670 1106 q 615 1228 607 1178 q 655 1294 622 1268 q 729 1321 689 1321 q 811 1285 781 1321 q 833 1199 841 1249 q 795 1133 827 1161 q 721 1106 762 1106 m 413 1106 q 331 1143 362 1106 q 307 1228 299 1179 q 347 1294 314 1268 q 422 1321 381 1321 q 503 1285 473 1321 q 525 1199 533 1249 q 487 1133 519 1161 q 413 1106 454 1106 z "},"Ӗ":{"ha":857,"x_min":13,"x_max":885,"o":"m 13 0 l 181 1010 l 885 1010 l 852 812 l 392 812 l 358 605 l 782 605 l 749 406 l 325 406 l 291 198 l 751 198 l 718 0 l 13 0 m 678 1278 l 837 1278 q 743 1129 822 1186 q 546 1073 664 1073 q 368 1129 428 1073 q 323 1278 308 1186 l 481 1278 q 494 1219 475 1246 q 566 1193 512 1193 q 646 1219 619 1193 q 678 1278 672 1245 z "},"F":{"ha":812,"x_min":13,"x_max":871,"o":"m 13 0 l 181 1010 l 871 1010 l 837 812 l 392 812 l 358 605 l 760 605 l 726 406 l 325 406 l 257 0 l 13 0 z "},"Ƒ":{"ha":856,"x_min":-135,"x_max":915,"o":"m 58 0 l 225 1010 l 915 1010 l 881 812 l 436 812 l 402 605 l 804 605 l 770 406 l 369 406 l 302 0 l 301 0 l 295 -35 q 249 -166 282 -116 q 170 -241 216 -215 q 72 -275 124 -266 q -33 -284 20 -284 q -85 -284 -52 -284 q -135 -280 -118 -283 l -106 -99 q -90 -100 -100 -100 q -72 -100 -81 -100 q -61 -100 -64 -100 q 11 -87 -23 -100 q 52 -35 45 -75 l 58 0 z "},"Ḟ":{"ha":812,"x_min":13,"x_max":871,"o":"m 13 0 l 181 1010 l 871 1010 l 837 812 l 392 812 l 358 605 l 760 605 l 726 406 l 325 406 l 257 0 l 13 0 m 548 1098 q 465 1132 497 1098 q 439 1214 433 1166 q 488 1295 447 1262 q 580 1329 529 1329 q 663 1295 631 1329 q 688 1214 694 1262 q 640 1132 681 1166 q 548 1098 599 1098 z "},"Ⅎ":{"ha":812,"x_min":-17,"x_max":840,"o":"m 840 1010 l 672 0 l -17 0 l 16 198 l 462 198 l 495 405 l 94 405 l 127 604 l 529 604 l 596 1010 l 840 1010 z "},"G":{"ha":1065,"x_min":60,"x_max":1041,"o":"m 789 680 q 746 776 783 742 q 635 810 709 810 q 443 730 525 810 q 336 507 360 651 q 359 281 312 361 q 518 200 405 200 q 682 247 618 200 q 761 374 747 294 l 561 374 l 591 552 l 1026 552 l 1004 419 q 908 186 981 283 q 726 38 835 89 q 486 -14 617 -14 q 243 49 342 -14 q 102 228 144 112 q 86 504 60 344 q 198 785 114 669 q 401 963 281 902 q 656 1024 521 1024 q 860 980 772 1024 q 994 858 947 936 q 1036 680 1041 781 l 789 680 z "},"Ǥ":{"ha":1065,"x_min":60,"x_max":1041,"o":"m 1029 333 l 1018 264 l 955 264 q 766 59 891 132 q 486 -14 641 -14 q 243 49 342 -14 q 102 228 144 112 q 86 504 60 344 q 198 785 114 669 q 401 963 281 902 q 656 1024 521 1024 q 860 980 772 1024 q 994 858 947 936 q 1036 680 1041 781 l 789 680 q 746 776 783 742 q 635 810 709 810 q 443 730 525 810 q 336 507 360 651 q 359 281 312 361 q 518 200 405 200 q 702 264 635 200 l 544 264 l 555 333 l 749 333 q 761 374 757 353 l 561 374 l 591 552 l 1026 552 l 1004 419 q 983 333 996 374 l 1029 333 z "},"Ɠ":{"ha":1189,"x_min":60,"x_max":1315,"o":"m 1037 680 l 788 680 l 789 684 q 745 777 782 743 q 635 810 707 810 q 443 730 525 810 q 336 507 360 651 q 359 281 312 361 q 518 200 405 200 q 682 247 618 200 q 761 374 747 294 l 561 374 l 591 552 l 1026 552 l 1004 419 q 908 186 981 283 q 726 38 835 89 q 486 -14 617 -14 q 243 49 342 -14 q 102 228 144 112 q 86 504 60 344 q 198 785 114 669 q 401 963 281 902 q 656 1024 521 1024 q 866 977 775 1024 q 1014 1103 920 1059 q 1207 1146 1107 1146 q 1261 1143 1235 1146 q 1315 1132 1287 1139 l 1283 942 q 1252 946 1267 944 q 1220 948 1236 948 q 1152 941 1184 948 q 1096 913 1119 934 q 1066 850 1073 892 l 1037 680 z "},"Ĝ":{"ha":1065,"x_min":60,"x_max":1041,"o":"m 789 680 q 746 776 783 742 q 635 810 709 810 q 443 730 525 810 q 336 507 360 651 q 359 281 312 361 q 518 200 405 200 q 682 247 618 200 q 761 374 747 294 l 561 374 l 591 552 l 1026 552 l 1004 419 q 908 186 981 283 q 726 38 835 89 q 486 -14 617 -14 q 243 49 342 -14 q 102 228 144 112 q 86 504 60 344 q 198 785 114 669 q 401 963 281 902 q 656 1024 521 1024 q 860 980 772 1024 q 994 858 947 936 q 1036 680 1041 781 l 789 680 m 564 1101 l 362 1101 l 363 1107 l 614 1328 l 787 1328 l 962 1107 l 961 1101 l 760 1101 l 681 1215 l 564 1101 z "},"Ğ":{"ha":1065,"x_min":60,"x_max":1041,"o":"m 789 680 q 746 776 783 742 q 635 810 709 810 q 443 730 525 810 q 336 507 360 651 q 359 281 312 361 q 518 200 405 200 q 682 247 618 200 q 761 374 747 294 l 561 374 l 591 552 l 1026 552 l 1004 419 q 908 186 981 283 q 726 38 835 89 q 486 -14 617 -14 q 243 49 342 -14 q 102 228 144 112 q 86 504 60 344 q 198 785 114 669 q 401 963 281 902 q 656 1024 521 1024 q 860 980 772 1024 q 994 858 947 936 q 1036 680 1041 781 l 789 680 m 789 1278 l 948 1278 q 854 1129 932 1186 q 657 1073 775 1073 q 478 1129 538 1073 q 434 1278 418 1186 l 591 1278 q 604 1219 586 1246 q 676 1193 622 1193 q 756 1219 729 1193 q 789 1278 783 1245 z "},"Ġ":{"ha":1065,"x_min":60,"x_max":1041,"o":"m 789 680 q 746 776 783 742 q 635 810 709 810 q 443 730 525 810 q 336 507 360 651 q 359 281 312 361 q 518 200 405 200 q 682 247 618 200 q 761 374 747 294 l 561 374 l 591 552 l 1026 552 l 1004 419 q 908 186 981 283 q 726 38 835 89 q 486 -14 617 -14 q 243 49 342 -14 q 102 228 144 112 q 86 504 60 344 q 198 785 114 669 q 401 963 281 902 q 656 1024 521 1024 q 860 980 772 1024 q 994 858 947 936 q 1036 680 1041 781 l 789 680 m 664 1098 q 581 1132 613 1098 q 555 1214 548 1166 q 604 1295 563 1262 q 696 1329 645 1329 q 779 1295 747 1329 q 803 1214 810 1262 q 756 1132 797 1166 q 664 1098 715 1098 z "},"Ģ":{"ha":1065,"x_min":60,"x_max":1041,"o":"m 789 680 q 746 776 783 742 q 635 810 709 810 q 443 730 525 810 q 336 507 360 651 q 359 281 312 361 q 518 200 405 200 q 682 247 618 200 q 761 374 747 294 l 561 374 l 591 552 l 1026 552 l 1004 419 q 908 186 981 283 q 726 38 835 89 q 486 -14 617 -14 q 243 49 342 -14 q 102 228 144 112 q 86 504 60 344 q 198 785 114 669 q 401 963 281 902 q 656 1024 521 1024 q 860 980 772 1024 q 994 858 947 936 q 1036 680 1041 781 l 789 680 m 254 -317 l 358 -77 l 577 -77 l 421 -317 l 254 -317 z "},"Ǧ":{"ha":1065,"x_min":60,"x_max":1041,"o":"m 789 680 q 746 776 783 742 q 635 810 709 810 q 443 730 525 810 q 336 507 360 651 q 359 281 312 361 q 518 200 405 200 q 682 247 618 200 q 761 374 747 294 l 561 374 l 591 552 l 1026 552 l 1004 419 q 908 186 981 283 q 726 38 835 89 q 486 -14 617 -14 q 243 49 342 -14 q 102 228 144 112 q 86 504 60 344 q 198 785 114 669 q 401 963 281 902 q 656 1024 521 1024 q 860 980 772 1024 q 994 858 947 936 q 1036 680 1041 781 l 789 680 m 601 1328 l 680 1214 l 797 1328 l 998 1328 l 997 1322 l 748 1101 l 575 1101 l 398 1322 l 399 1328 l 601 1328 z "},"Ǵ":{"ha":1065,"x_min":60,"x_max":1041,"o":"m 789 680 q 746 776 783 742 q 635 810 709 810 q 443 730 525 810 q 336 507 360 651 q 359 281 312 361 q 518 200 405 200 q 682 247 618 200 q 761 374 747 294 l 561 374 l 591 552 l 1026 552 l 1004 419 q 908 186 981 283 q 726 38 835 89 q 486 -14 617 -14 q 243 49 342 -14 q 102 228 144 112 q 86 504 60 344 q 198 785 114 669 q 401 963 281 902 q 656 1024 521 1024 q 860 980 772 1024 q 994 858 947 936 q 1036 680 1041 781 l 789 680 m 579 1106 l 716 1329 l 930 1329 l 743 1106 l 579 1106 z "},"Ḡ":{"ha":1065,"x_min":60,"x_max":1041,"o":"m 789 680 q 746 776 783 742 q 635 810 709 810 q 443 730 525 810 q 336 507 360 651 q 359 281 312 361 q 518 200 405 200 q 682 247 618 200 q 761 374 747 294 l 561 374 l 591 552 l 1026 552 l 1004 419 q 908 186 981 283 q 726 38 835 89 q 486 -14 617 -14 q 243 49 342 -14 q 102 228 144 112 q 86 504 60 344 q 198 785 114 669 q 401 963 281 902 q 656 1024 521 1024 q 860 980 772 1024 q 994 858 947 936 q 1036 680 1041 781 l 789 680 m 931 1263 l 912 1143 l 424 1143 l 443 1263 l 931 1263 z "},"":{"ha":1073,"x_min":60,"x_max":1051,"o":"m 487 -14 q 244 49 343 -14 q 102 228 145 112 q 86 504 60 344 q 161 724 107 627 q 292 888 215 821 q 465 989 370 954 q 660 1024 559 1024 q 866 980 777 1024 q 1003 859 954 937 q 1047 680 1051 782 l 800 680 q 749 776 794 742 q 631 810 705 810 q 441 730 521 810 q 336 507 360 651 q 361 281 312 361 q 522 200 409 200 q 685 248 622 200 q 763 374 748 295 l 561 374 l 591 552 l 1034 552 l 943 0 l 782 0 l 790 113 l 784 113 q 651 19 725 52 q 487 -14 578 -14 z "},"":{"ha":1075,"x_min":60,"x_max":1051,"o":"m 1039 333 l 1028 264 l 986 264 l 943 0 l 782 0 l 790 113 l 784 113 q 651 19 725 52 q 487 -14 578 -14 q 244 49 343 -14 q 102 228 145 112 q 86 504 60 344 q 161 724 107 627 q 292 888 215 821 q 465 989 370 954 q 660 1024 559 1024 q 866 980 777 1024 q 1003 859 954 937 q 1047 680 1051 782 l 800 680 q 749 776 794 742 q 631 810 705 810 q 441 730 521 810 q 336 507 360 651 q 361 281 312 361 q 522 200 409 200 q 626 217 580 200 q 704 264 673 234 l 544 264 l 555 333 l 751 333 q 763 374 759 353 l 561 374 l 591 552 l 1034 552 l 998 333 l 1039 333 z "},"":{"ha":1187,"x_min":59,"x_max":1323,"o":"m 1046 680 l 797 680 l 798 689 q 745 778 790 747 q 630 810 701 810 q 440 730 520 810 q 335 507 359 651 q 360 281 311 361 q 521 200 408 200 q 684 248 621 200 q 763 374 747 295 l 560 374 l 590 552 l 1033 552 l 942 0 l 781 0 l 789 113 l 783 113 q 650 19 724 52 q 486 -14 577 -14 q 243 49 342 -14 q 101 228 144 112 q 85 504 59 344 q 160 724 106 627 q 291 888 214 821 q 464 989 369 954 q 659 1024 558 1024 q 873 976 780 1024 q 1022 1103 928 1059 q 1216 1146 1116 1146 q 1270 1143 1243 1146 q 1323 1132 1296 1139 l 1292 942 q 1260 946 1276 944 q 1228 948 1245 948 q 1161 941 1193 948 q 1105 913 1128 934 q 1074 850 1082 892 l 1046 680 z "},"":{"ha":1073,"x_min":60,"x_max":1051,"o":"m 487 -14 q 244 49 343 -14 q 102 228 145 112 q 86 504 60 344 q 161 724 107 627 q 292 888 215 821 q 465 989 370 954 q 660 1024 559 1024 q 866 980 777 1024 q 1003 859 954 937 q 1047 680 1051 782 l 800 680 q 749 776 794 742 q 631 810 705 810 q 441 730 521 810 q 336 507 360 651 q 361 281 312 361 q 522 200 409 200 q 685 248 622 200 q 763 374 748 295 l 561 374 l 591 552 l 1034 552 l 943 0 l 782 0 l 790 113 l 784 113 q 651 19 725 52 q 487 -14 578 -14 m 564 1101 l 362 1101 l 363 1107 l 614 1328 l 787 1328 l 962 1107 l 961 1101 l 760 1101 l 681 1215 l 564 1101 z "},"":{"ha":1073,"x_min":60,"x_max":1051,"o":"m 487 -14 q 244 49 343 -14 q 102 228 145 112 q 86 504 60 344 q 161 724 107 627 q 292 888 215 821 q 465 989 370 954 q 660 1024 559 1024 q 866 980 777 1024 q 1003 859 954 937 q 1047 680 1051 782 l 800 680 q 749 776 794 742 q 631 810 705 810 q 441 730 521 810 q 336 507 360 651 q 361 281 312 361 q 522 200 409 200 q 685 248 622 200 q 763 374 748 295 l 561 374 l 591 552 l 1034 552 l 943 0 l 782 0 l 790 113 l 784 113 q 651 19 725 52 q 487 -14 578 -14 m 789 1278 l 948 1278 q 854 1129 932 1186 q 657 1073 775 1073 q 478 1129 538 1073 q 434 1278 418 1186 l 591 1278 q 604 1219 586 1246 q 676 1193 622 1193 q 756 1219 729 1193 q 789 1278 783 1245 z "},"":{"ha":1073,"x_min":60,"x_max":1051,"o":"m 487 -14 q 244 49 343 -14 q 102 228 145 112 q 86 504 60 344 q 161 724 107 627 q 292 888 215 821 q 465 989 370 954 q 660 1024 559 1024 q 866 980 777 1024 q 1003 859 954 937 q 1047 680 1051 782 l 800 680 q 749 776 794 742 q 631 810 705 810 q 441 730 521 810 q 336 507 360 651 q 361 281 312 361 q 522 200 409 200 q 685 248 622 200 q 763 374 748 295 l 561 374 l 591 552 l 1034 552 l 943 0 l 782 0 l 790 113 l 784 113 q 651 19 725 52 q 487 -14 578 -14 m 664 1098 q 581 1132 613 1098 q 555 1214 548 1166 q 604 1295 563 1262 q 696 1329 645 1329 q 779 1295 747 1329 q 803 1214 810 1262 q 756 1132 797 1166 q 664 1098 715 1098 z "},"":{"ha":1073,"x_min":60,"x_max":1051,"o":"m 487 -14 q 244 49 343 -14 q 102 228 145 112 q 86 504 60 344 q 161 724 107 627 q 292 888 215 821 q 465 989 370 954 q 660 1024 559 1024 q 866 980 777 1024 q 1003 859 954 937 q 1047 680 1051 782 l 800 680 q 749 776 794 742 q 631 810 705 810 q 441 730 521 810 q 336 507 360 651 q 361 281 312 361 q 522 200 409 200 q 685 248 622 200 q 763 374 748 295 l 561 374 l 591 552 l 1034 552 l 943 0 l 782 0 l 790 113 l 784 113 q 651 19 725 52 q 487 -14 578 -14 m 254 -317 l 358 -77 l 577 -77 l 421 -317 l 254 -317 z "},"":{"ha":1073,"x_min":60,"x_max":1051,"o":"m 487 -14 q 244 49 343 -14 q 102 228 145 112 q 86 504 60 344 q 161 724 107 627 q 292 888 215 821 q 465 989 370 954 q 660 1024 559 1024 q 866 980 777 1024 q 1003 859 954 937 q 1047 680 1051 782 l 800 680 q 749 776 794 742 q 631 810 705 810 q 441 730 521 810 q 336 507 360 651 q 361 281 312 361 q 522 200 409 200 q 685 248 622 200 q 763 374 748 295 l 561 374 l 591 552 l 1034 552 l 943 0 l 782 0 l 790 113 l 784 113 q 651 19 725 52 q 487 -14 578 -14 m 601 1328 l 680 1214 l 797 1328 l 998 1328 l 997 1322 l 748 1101 l 575 1101 l 398 1322 l 399 1328 l 601 1328 z "},"":{"ha":1073,"x_min":60,"x_max":1051,"o":"m 487 -14 q 244 49 343 -14 q 102 228 145 112 q 86 504 60 344 q 161 724 107 627 q 292 888 215 821 q 465 989 370 954 q 660 1024 559 1024 q 866 980 777 1024 q 1003 859 954 937 q 1047 680 1051 782 l 800 680 q 749 776 794 742 q 631 810 705 810 q 441 730 521 810 q 336 507 360 651 q 361 281 312 361 q 522 200 409 200 q 685 248 622 200 q 763 374 748 295 l 561 374 l 591 552 l 1034 552 l 943 0 l 782 0 l 790 113 l 784 113 q 651 19 725 52 q 487 -14 578 -14 m 579 1106 l 716 1329 l 930 1329 l 743 1106 l 579 1106 z "},"":{"ha":1073,"x_min":60,"x_max":1051,"o":"m 487 -14 q 244 49 343 -14 q 102 228 145 112 q 86 504 60 344 q 161 724 107 627 q 292 888 215 821 q 465 989 370 954 q 660 1024 559 1024 q 866 980 777 1024 q 1003 859 954 937 q 1047 680 1051 782 l 800 680 q 749 776 794 742 q 631 810 705 810 q 441 730 521 810 q 336 507 360 651 q 361 281 312 361 q 522 200 409 200 q 685 248 622 200 q 763 374 748 295 l 561 374 l 591 552 l 1034 552 l 943 0 l 782 0 l 790 113 l 784 113 q 651 19 725 52 q 487 -14 578 -14 m 931 1263 l 912 1143 l 424 1143 l 443 1263 l 931 1263 z "},"H":{"ha":1039,"x_min":13,"x_max":1067,"o":"m 13 0 l 181 1010 l 425 1010 l 358 605 l 756 605 l 823 1010 l 1067 1010 l 899 0 l 655 0 l 723 406 l 325 406 l 257 0 l 13 0 z "},"Ḩ":{"ha":1039,"x_min":-39,"x_max":1067,"o":"m 13 0 l 181 1010 l 425 1010 l 358 605 l 756 605 l 823 1010 l 1067 1010 l 899 0 l 655 0 l 723 406 l 325 406 l 257 0 l 13 0 m 87 4 l 183 4 l 168 -40 q 248 -80 220 -48 q 266 -161 275 -112 q 174 -283 254 -238 q -39 -327 93 -327 l -23 -228 q 130 -167 115 -228 q 46 -98 142 -111 l 87 4 z "},"Ĥ":{"ha":1039,"x_min":13,"x_max":1067,"o":"m 13 0 l 181 1010 l 425 1010 l 358 605 l 756 605 l 823 1010 l 1067 1010 l 899 0 l 655 0 l 723 406 l 325 406 l 257 0 l 13 0 m 543 1101 l 341 1101 l 342 1108 l 593 1329 l 766 1329 l 942 1108 l 941 1101 l 739 1101 l 660 1216 l 543 1101 z "},"Ȟ":{"ha":1039,"x_min":13,"x_max":1067,"o":"m 13 0 l 181 1010 l 425 1010 l 358 605 l 756 605 l 823 1010 l 1067 1010 l 899 0 l 655 0 l 723 406 l 325 406 l 257 0 l 13 0 m 580 1329 l 659 1214 l 776 1329 l 978 1329 l 977 1322 l 727 1101 l 554 1101 l 377 1322 l 378 1329 l 580 1329 z "},"Ḣ":{"ha":1039,"x_min":13,"x_max":1067,"o":"m 13 0 l 181 1010 l 425 1010 l 358 605 l 756 605 l 823 1010 l 1067 1010 l 899 0 l 655 0 l 723 406 l 325 406 l 257 0 l 13 0 m 643 1099 q 560 1133 592 1099 q 535 1214 528 1167 q 583 1296 542 1262 q 675 1329 624 1329 q 758 1296 727 1329 q 783 1214 789 1262 q 735 1133 776 1167 q 643 1099 694 1099 z "},"Ḥ":{"ha":1039,"x_min":13,"x_max":1067,"o":"m 13 0 l 181 1010 l 425 1010 l 358 605 l 756 605 l 823 1010 l 1067 1010 l 899 0 l 655 0 l 723 406 l 325 406 l 257 0 l 13 0 m 412 -294 q 329 -260 361 -294 q 304 -179 297 -226 q 352 -98 311 -131 q 444 -64 394 -64 q 527 -98 496 -64 q 552 -179 558 -131 q 505 -260 545 -226 q 412 -294 464 -294 z "},"Ḧ":{"ha":1039,"x_min":13,"x_max":1067,"o":"m 13 0 l 181 1010 l 425 1010 l 358 605 l 756 605 l 823 1010 l 1067 1010 l 899 0 l 655 0 l 723 406 l 325 406 l 257 0 l 13 0 m 811 1107 q 728 1143 760 1107 q 705 1229 697 1179 q 745 1295 712 1268 q 819 1321 778 1321 q 901 1286 871 1321 q 922 1200 931 1250 q 884 1134 917 1161 q 811 1107 852 1107 m 503 1107 q 420 1143 452 1107 q 397 1229 389 1179 q 437 1295 404 1268 q 511 1321 471 1321 q 593 1286 563 1321 q 615 1200 623 1250 q 577 1134 609 1161 q 503 1107 544 1107 z "},"Ḫ":{"ha":1039,"x_min":13,"x_max":1067,"o":"m 13 0 l 181 1010 l 425 1010 l 358 605 l 756 605 l 823 1010 l 1067 1010 l 899 0 l 655 0 l 723 406 l 325 406 l 257 0 l 13 0 m 549 -53 l 706 -53 q 612 -204 690 -144 q 413 -264 533 -264 q 237 -206 298 -264 q 192 -53 176 -147 l 350 -53 q 362 -112 343 -85 q 435 -139 380 -139 q 515 -111 487 -139 q 549 -53 544 -84 z "},"Ħ":{"ha":1141,"x_min":63,"x_max":1174,"o":"m 1174 847 l 1154 723 l 1068 723 l 948 0 l 705 0 l 772 406 l 374 406 l 307 0 l 63 0 l 182 723 l 100 723 l 120 847 l 203 847 l 230 1010 l 474 1010 l 447 847 l 845 847 l 872 1010 l 1116 1010 l 1089 847 l 1174 847 m 825 723 l 427 723 l 407 605 l 805 605 l 825 723 z "},"Ӈ":{"ha":1039,"x_min":13,"x_max":1067,"o":"m 655 0 l 723 406 l 325 406 l 257 0 l 13 0 l 181 1010 l 425 1010 l 358 605 l 756 605 l 823 1010 l 1067 1010 l 899 0 l 893 -39 q 879 -98 890 -64 q 844 -168 869 -132 q 776 -235 820 -204 q 662 -286 732 -266 q 490 -305 592 -305 q 440 -302 464 -305 q 411 -298 416 -299 l 441 -105 q 474 -108 454 -107 q 508 -109 495 -109 q 572 -102 539 -109 q 629 -76 605 -95 q 653 -21 652 -57 l 655 0 z "},"Ң":{"ha":1226,"x_min":13,"x_max":1156,"o":"m 13 0 l 181 1010 l 425 1010 l 358 605 l 756 605 l 823 1010 l 1067 1010 l 899 0 l 655 0 l 723 406 l 325 406 l 257 0 l 13 0 m 1156 157 l 1090 -243 l 858 -243 l 923 157 l 1156 157 z "},"Ӊ":{"ha":1178,"x_min":13,"x_max":1105,"o":"m 13 0 l 181 1010 l 425 1010 l 358 605 l 756 605 l 823 1010 l 1067 1010 l 899 0 l 655 0 l 723 406 l 325 406 l 257 0 l 13 0 m 1105 127 l 1084 1 q 1047 -112 1076 -56 q 978 -217 1019 -169 q 890 -298 937 -265 l 784 -239 q 827 -179 804 -210 q 868 -109 849 -148 q 896 -15 887 -70 l 918 127 l 1105 127 z "},"Ҥ":{"ha":1407,"x_min":13,"x_max":1468,"o":"m 1468 1010 l 1435 812 l 1034 812 l 899 0 l 655 0 l 723 406 l 325 406 l 257 0 l 13 0 l 181 1010 l 425 1010 l 358 605 l 756 605 l 823 1010 l 1468 1010 z "},"Ƕ":{"ha":1564,"x_min":13,"x_max":1546,"o":"m 1039 -14 q 773 82 861 -14 q 713 346 686 178 l 723 406 l 325 406 l 257 0 l 13 0 l 181 1010 l 425 1010 l 358 605 l 756 605 l 823 1010 l 1067 1010 l 957 346 q 975 229 944 270 q 1072 188 1006 188 q 1182 229 1138 188 q 1238 346 1225 270 l 1302 731 l 1546 731 l 1483 346 q 1404 153 1464 233 q 1250 29 1344 72 q 1039 -14 1157 -14 z "},"Η":{"ha":1039,"x_min":13,"x_max":1067,"o":"m 13 0 l 181 1010 l 425 1010 l 358 605 l 756 605 l 823 1010 l 1067 1010 l 899 0 l 655 0 l 723 406 l 325 406 l 257 0 l 13 0 z "},"Ή":{"ha":1322,"x_min":160,"x_max":1350,"o":"m 297 0 l 465 1010 l 709 1010 l 642 605 l 1040 605 l 1107 1010 l 1350 1010 l 1183 0 l 939 0 l 1006 406 l 608 406 l 541 0 l 297 0 m 160 850 l 257 1086 l 466 1086 l 297 850 l 160 850 z "},"Ἠ":{"ha":1282,"x_min":147,"x_max":1310,"o":"m 256 0 l 424 1010 l 668 1010 l 601 605 l 999 605 l 1066 1010 l 1310 1010 l 1142 0 l 899 0 l 966 406 l 568 406 l 501 0 l 256 0 m 348 1010 l 336 942 q 286 832 326 877 q 196 765 246 786 l 147 834 q 198 880 182 852 q 220 946 214 909 l 230 1010 l 348 1010 z "},"Ἡ":{"ha":1265,"x_min":162,"x_max":1293,"o":"m 239 0 l 407 1010 l 651 1010 l 584 605 l 982 605 l 1049 1010 l 1293 1010 l 1125 0 l 881 0 l 948 406 l 550 406 l 483 0 l 239 0 m 171 942 l 182 1010 l 302 1010 l 291 946 q 291 884 286 915 q 325 834 296 853 l 253 765 q 186 832 211 786 q 171 942 162 877 z "},"Ἢ":{"ha":1520,"x_min":147,"x_max":1548,"o":"m 494 0 l 662 1010 l 906 1010 l 839 605 l 1237 605 l 1304 1010 l 1548 1010 l 1380 0 l 1136 0 l 1203 406 l 805 406 l 738 0 l 494 0 m 366 1010 l 359 955 q 305 847 348 896 q 196 765 262 798 l 147 807 q 202 874 182 838 q 230 959 223 911 l 238 1010 l 366 1010 m 591 791 l 589 781 l 522 781 l 396 996 l 398 1010 l 546 1010 l 591 791 z "},"Ἣ":{"ha":1479,"x_min":156,"x_max":1507,"o":"m 454 0 l 621 1010 l 866 1010 l 799 605 l 1197 605 l 1264 1010 l 1507 1010 l 1340 0 l 1096 0 l 1163 406 l 765 406 l 698 0 l 454 0 m 167 942 l 178 1010 l 299 1010 l 288 946 q 286 884 282 915 q 324 834 291 853 l 252 765 q 181 832 206 786 q 167 942 156 877 m 549 798 l 547 780 l 481 780 l 355 996 l 357 1010 l 507 1010 l 549 798 z "},"Ἤ":{"ha":1505,"x_min":155,"x_max":1533,"o":"m 480 0 l 648 1010 l 892 1010 l 825 605 l 1223 605 l 1290 1010 l 1533 1010 l 1366 0 l 1122 0 l 1189 406 l 791 406 l 724 0 l 480 0 m 359 1010 l 347 942 q 295 832 336 878 q 202 765 254 786 l 155 834 q 207 884 193 853 q 227 946 221 915 l 238 1010 l 359 1010 m 345 780 l 347 798 l 463 1010 l 611 1010 l 609 996 l 411 780 l 345 780 z "},"Ἥ":{"ha":1520,"x_min":160,"x_max":1548,"o":"m 495 0 l 662 1010 l 907 1010 l 839 605 l 1237 605 l 1305 1010 l 1548 1010 l 1381 0 l 1137 0 l 1204 406 l 806 406 l 739 0 l 495 0 m 253 765 q 187 830 213 785 q 171 942 160 875 l 182 1010 l 302 1010 l 291 946 q 291 880 286 909 q 325 834 296 852 l 253 765 m 360 780 l 362 798 l 473 1010 l 624 1010 l 622 996 l 423 780 l 360 780 z "},"Ἦ":{"ha":1414,"x_min":184,"x_max":1442,"o":"m 388 0 l 556 1010 l 800 1010 l 733 605 l 1131 605 l 1198 1010 l 1442 1010 l 1274 0 l 1030 0 l 1097 406 l 699 406 l 632 0 l 388 0 m 533 1181 l 621 1153 q 576 1067 613 1104 q 487 1030 538 1030 q 427 1041 451 1030 q 380 1064 402 1053 q 327 1075 357 1075 q 292 1057 307 1075 q 273 1016 278 1040 l 184 1043 q 230 1129 192 1091 q 318 1167 268 1167 q 374 1157 348 1167 q 425 1135 400 1146 q 478 1124 450 1124 q 513 1141 498 1124 q 533 1181 529 1158 m 454 995 l 445 939 q 398 847 436 883 q 313 794 360 810 l 267 849 q 315 890 302 863 q 331 943 327 917 l 340 995 l 454 995 z "},"Ἧ":{"ha":1431,"x_min":184,"x_max":1459,"o":"m 405 0 l 573 1010 l 817 1010 l 750 605 l 1148 605 l 1215 1010 l 1459 1010 l 1291 0 l 1048 0 l 1115 406 l 717 406 l 650 0 l 405 0 m 533 1182 l 621 1154 q 576 1068 613 1105 q 487 1031 538 1031 q 427 1042 451 1031 q 380 1065 402 1054 q 327 1076 357 1076 q 292 1058 307 1076 q 273 1017 278 1041 l 184 1044 q 230 1130 192 1092 q 318 1168 268 1168 q 374 1158 348 1168 q 425 1136 400 1147 q 478 1125 450 1125 q 513 1142 498 1125 q 533 1182 529 1159 m 331 940 l 341 996 l 455 996 l 445 944 q 445 891 442 918 q 479 850 449 864 l 413 795 q 349 846 376 810 q 331 940 322 882 z "},"Ὴ":{"ha":1317,"x_min":181,"x_max":1345,"o":"m 292 0 l 460 1010 l 704 1010 l 637 605 l 1035 605 l 1102 1010 l 1345 1010 l 1178 0 l 934 0 l 1001 406 l 603 406 l 536 0 l 292 0 m 308 779 l 181 996 l 181 1010 l 331 1010 l 374 800 l 374 779 l 308 779 z "},"Ή":{"ha":1300,"x_min":144,"x_max":1328,"o":"m 275 0 l 442 1010 l 687 1010 l 619 605 l 1017 605 l 1085 1010 l 1328 1010 l 1161 0 l 917 0 l 984 406 l 586 406 l 519 0 l 275 0 m 144 852 l 147 873 l 260 1083 l 463 1083 l 461 1069 l 262 852 l 144 852 z "},"Н":{"ha":1039,"x_min":13,"x_max":1067,"o":"m 13 0 l 181 1010 l 425 1010 l 358 605 l 756 605 l 823 1010 l 1067 1010 l 899 0 l 655 0 l 723 406 l 325 406 l 257 0 l 13 0 z "},"ᾘ":{"ha":1256,"x_min":122,"x_max":1284,"o":"m 231 0 l 399 1010 l 643 1010 l 576 605 l 974 605 l 1041 1010 l 1284 1010 l 1117 0 l 873 0 l 940 406 l 542 406 l 475 0 l 231 0 m 688 -335 q 599 -305 633 -335 q 576 -208 564 -275 l 599 -67 l 731 -67 l 709 -207 q 712 -234 705 -225 q 740 -243 718 -243 q 760 -242 752 -243 q 772 -241 767 -241 l 758 -326 q 725 -333 742 -330 q 688 -335 709 -335 m 322 1010 l 311 942 q 260 832 300 877 q 171 765 220 786 l 122 834 q 173 880 157 852 q 195 946 188 909 l 204 1010 l 322 1010 z "},"ᾙ":{"ha":1265,"x_min":162,"x_max":1293,"o":"m 239 0 l 407 1010 l 651 1010 l 584 605 l 982 605 l 1049 1010 l 1293 1010 l 1125 0 l 881 0 l 948 406 l 550 406 l 483 0 l 239 0 m 696 -335 q 607 -305 642 -335 q 584 -208 573 -275 l 608 -67 l 740 -67 l 717 -207 q 720 -234 714 -225 q 749 -243 727 -243 q 768 -242 761 -243 q 781 -241 775 -241 l 766 -326 q 734 -333 750 -330 q 696 -335 717 -335 m 171 942 l 182 1010 l 302 1010 l 291 946 q 291 884 286 915 q 325 834 296 853 l 253 765 q 186 832 211 786 q 171 942 162 877 z "},"ᾚ":{"ha":1520,"x_min":147,"x_max":1548,"o":"m 494 0 l 662 1010 l 906 1010 l 839 605 l 1237 605 l 1304 1010 l 1548 1010 l 1380 0 l 1136 0 l 1203 406 l 805 406 l 738 0 l 494 0 m 951 -335 q 862 -305 897 -335 q 839 -208 828 -275 l 863 -67 l 995 -67 l 972 -207 q 975 -234 969 -225 q 1004 -243 981 -243 q 1023 -242 1016 -243 q 1036 -241 1030 -241 l 1021 -326 q 989 -333 1005 -330 q 951 -335 972 -335 m 366 1010 l 359 955 q 305 847 348 896 q 196 765 262 798 l 147 807 q 202 874 182 838 q 230 959 223 911 l 238 1010 l 366 1010 m 591 791 l 589 781 l 522 781 l 396 996 l 398 1010 l 546 1010 l 591 791 z "},"ᾛ":{"ha":1479,"x_min":156,"x_max":1507,"o":"m 454 0 l 621 1010 l 866 1010 l 799 605 l 1197 605 l 1264 1010 l 1507 1010 l 1340 0 l 1096 0 l 1163 406 l 765 406 l 698 0 l 454 0 m 911 -335 q 822 -305 856 -335 q 799 -208 787 -275 l 822 -67 l 954 -67 l 932 -207 q 935 -234 928 -225 q 963 -243 941 -243 q 982 -242 975 -243 q 995 -241 990 -241 l 981 -326 q 948 -333 965 -330 q 911 -335 932 -335 m 167 942 l 178 1010 l 299 1010 l 288 946 q 286 884 282 915 q 324 834 291 853 l 252 765 q 181 832 206 786 q 167 942 156 877 m 549 798 l 547 780 l 481 780 l 355 996 l 357 1010 l 507 1010 l 549 798 z "},"ᾜ":{"ha":1505,"x_min":155,"x_max":1533,"o":"m 480 0 l 648 1010 l 892 1010 l 825 605 l 1223 605 l 1290 1010 l 1533 1010 l 1366 0 l 1122 0 l 1189 406 l 791 406 l 724 0 l 480 0 m 937 -335 q 848 -305 882 -335 q 825 -208 813 -275 l 848 -67 l 981 -67 l 958 -207 q 961 -234 954 -225 q 989 -243 967 -243 q 1009 -242 1001 -243 q 1021 -241 1016 -241 l 1007 -326 q 974 -333 991 -330 q 937 -335 958 -335 m 359 1010 l 347 942 q 295 832 336 878 q 202 765 254 786 l 155 834 q 207 884 193 853 q 227 946 221 915 l 238 1010 l 359 1010 m 345 780 l 347 798 l 463 1010 l 611 1010 l 609 996 l 411 780 l 345 780 z "},"ᾝ":{"ha":1520,"x_min":160,"x_max":1548,"o":"m 495 0 l 662 1010 l 907 1010 l 839 605 l 1237 605 l 1305 1010 l 1548 1010 l 1381 0 l 1137 0 l 1204 406 l 806 406 l 739 0 l 495 0 m 952 -335 q 863 -305 897 -335 q 840 -208 828 -275 l 863 -67 l 995 -67 l 973 -207 q 976 -234 969 -225 q 1004 -243 982 -243 q 1023 -242 1016 -243 q 1036 -241 1031 -241 l 1022 -326 q 989 -333 1006 -330 q 952 -335 973 -335 m 253 765 q 187 830 213 785 q 171 942 160 875 l 182 1010 l 302 1010 l 291 946 q 291 880 286 909 q 325 834 296 852 l 253 765 m 360 780 l 362 798 l 473 1010 l 624 1010 l 622 996 l 423 780 l 360 780 z "},"ᾞ":{"ha":1414,"x_min":184,"x_max":1442,"o":"m 388 0 l 556 1010 l 800 1010 l 733 605 l 1131 605 l 1198 1010 l 1442 1010 l 1274 0 l 1030 0 l 1097 406 l 699 406 l 632 0 l 388 0 m 845 -335 q 756 -305 791 -335 q 733 -208 722 -275 l 757 -67 l 889 -67 l 866 -207 q 869 -234 863 -225 q 898 -243 875 -243 q 917 -242 909 -243 q 930 -241 924 -241 l 915 -326 q 883 -333 899 -330 q 845 -335 866 -335 m 533 1181 l 621 1153 q 576 1067 613 1104 q 487 1030 538 1030 q 427 1041 451 1030 q 380 1064 402 1053 q 327 1075 357 1075 q 292 1057 307 1075 q 273 1016 278 1040 l 184 1043 q 230 1129 192 1091 q 318 1167 268 1167 q 374 1157 348 1167 q 425 1135 400 1146 q 478 1124 450 1124 q 513 1141 498 1124 q 533 1181 529 1158 m 454 995 l 445 939 q 398 847 436 883 q 313 794 360 810 l 267 849 q 315 890 302 863 q 331 943 327 917 l 340 995 l 454 995 z "},"ᾟ":{"ha":1431,"x_min":184,"x_max":1459,"o":"m 405 0 l 573 1010 l 817 1010 l 750 605 l 1148 605 l 1215 1010 l 1459 1010 l 1291 0 l 1048 0 l 1115 406 l 717 406 l 650 0 l 405 0 m 863 -335 q 773 -305 808 -335 q 751 -208 739 -275 l 774 -67 l 906 -67 l 883 -207 q 886 -234 880 -225 q 915 -243 893 -243 q 934 -242 927 -243 q 947 -241 942 -241 l 933 -326 q 900 -333 916 -330 q 863 -335 883 -335 m 533 1182 l 621 1154 q 576 1068 613 1105 q 487 1031 538 1031 q 427 1042 451 1031 q 380 1065 402 1054 q 327 1076 357 1076 q 292 1058 307 1076 q 273 1017 278 1041 l 184 1044 q 230 1130 192 1092 q 318 1168 268 1168 q 374 1158 348 1168 q 425 1136 400 1147 q 478 1125 450 1125 q 513 1142 498 1125 q 533 1182 529 1159 m 331 940 l 341 996 l 455 996 l 445 944 q 445 891 442 918 q 479 850 449 864 l 413 795 q 349 846 376 810 q 331 940 322 882 z "},"ῌ":{"ha":1039,"x_min":13,"x_max":1067,"o":"m 13 0 l 181 1010 l 425 1010 l 358 605 l 756 605 l 823 1010 l 1067 1010 l 899 0 l 655 0 l 723 406 l 325 406 l 257 0 l 13 0 m 471 -335 q 381 -305 416 -335 q 359 -208 347 -275 l 382 -67 l 514 -67 l 491 -207 q 494 -234 488 -225 q 523 -243 501 -243 q 542 -242 535 -243 q 555 -241 549 -241 l 541 -326 q 508 -333 524 -330 q 471 -335 491 -335 z "},"I":{"ha":397,"x_min":13,"x_max":425,"o":"m 425 1010 l 257 0 l 13 0 l 181 1010 l 425 1010 z "},"Ï":{"ha":397,"x_min":13,"x_max":609,"o":"m 425 1010 l 257 0 l 13 0 l 181 1010 l 425 1010 m 489 1106 q 407 1142 438 1106 q 383 1228 375 1178 q 423 1294 390 1268 q 498 1321 457 1321 q 579 1285 549 1321 q 601 1199 609 1249 q 563 1133 595 1161 q 489 1106 530 1106 m 182 1106 q 99 1143 130 1106 q 75 1228 68 1179 q 116 1294 82 1268 q 190 1321 149 1321 q 271 1285 241 1321 q 293 1199 301 1249 q 255 1133 288 1161 q 182 1106 222 1106 z "},"Ḯ":{"ha":397,"x_min":13,"x_max":633,"o":"m 425 1010 l 257 0 l 13 0 l 181 1010 l 425 1010 m 265 1334 l 427 1516 l 633 1516 l 432 1334 l 265 1334 m 468 1076 q 389 1109 419 1076 q 367 1188 359 1142 q 405 1249 374 1224 q 475 1273 436 1273 q 553 1240 524 1273 q 573 1162 581 1207 q 537 1101 568 1126 q 468 1076 506 1076 m 176 1076 q 98 1109 127 1076 q 75 1188 68 1142 q 113 1249 82 1224 q 184 1273 145 1273 q 261 1240 232 1273 q 282 1162 290 1207 q 245 1101 276 1126 q 176 1076 215 1076 z "},"Ɨ":{"ha":397,"x_min":-44,"x_max":491,"o":"m 425 1010 l 257 0 l 13 0 l 181 1010 l 425 1010 m -44 470 l -21 604 l 491 604 l 467 470 l -44 470 z "},"Ḭ":{"ha":397,"x_min":-159,"x_max":425,"o":"m 425 1010 l 257 0 l 13 0 l 181 1010 l 425 1010 m -34 -278 l -159 -277 q -86 -125 -142 -177 q 38 -73 -31 -73 q 99 -85 74 -73 q 140 -112 123 -97 q 174 -139 158 -128 q 209 -151 189 -151 q 254 -130 237 -151 q 277 -74 271 -109 l 400 -76 q 326 -227 382 -176 q 202 -280 270 -279 q 141 -268 165 -280 q 101 -241 117 -256 q 69 -214 84 -226 q 33 -203 54 -203 q -10 -222 8 -203 q -34 -278 -28 -242 z "},"Ì":{"ha":397,"x_min":13,"x_max":425,"o":"m 425 1010 l 257 0 l 13 0 l 181 1010 l 425 1010 m 240 1106 l 127 1329 l 341 1329 l 404 1106 l 240 1106 z "},"Í":{"ha":397,"x_min":13,"x_max":587,"o":"m 425 1010 l 257 0 l 13 0 l 181 1010 l 425 1010 m 237 1106 l 374 1329 l 587 1329 l 400 1106 l 237 1106 z "},"Î":{"ha":397,"x_min":13,"x_max":620,"o":"m 425 1010 l 257 0 l 13 0 l 181 1010 l 425 1010 m 221 1101 l 19 1101 l 20 1107 l 271 1328 l 444 1328 l 620 1107 l 619 1101 l 417 1101 l 338 1215 l 221 1101 z "},"Ĩ":{"ha":630,"x_min":130,"x_max":733,"o":"m 542 1010 l 374 0 l 130 0 l 297 1010 l 542 1010 m 299 1104 l 174 1105 q 247 1256 191 1205 q 371 1308 302 1308 q 432 1296 407 1308 q 473 1269 456 1285 q 507 1242 491 1254 q 542 1231 522 1231 q 587 1252 570 1231 q 610 1307 604 1272 l 733 1306 q 659 1154 715 1206 q 535 1102 603 1103 q 474 1113 498 1102 q 434 1140 450 1125 q 402 1167 417 1156 q 365 1179 387 1179 q 323 1159 341 1179 q 299 1104 305 1140 z "},"Ī":{"ha":397,"x_min":13,"x_max":588,"o":"m 425 1010 l 257 0 l 13 0 l 181 1010 l 425 1010 m 588 1263 l 570 1143 l 81 1143 l 100 1263 l 588 1263 z "},"Ĭ":{"ha":397,"x_min":13,"x_max":606,"o":"m 425 1010 l 257 0 l 13 0 l 181 1010 l 425 1010 m 446 1278 l 606 1278 q 511 1129 590 1186 q 315 1073 433 1073 q 136 1129 196 1073 q 91 1278 76 1186 l 249 1278 q 262 1219 244 1246 q 334 1193 280 1193 q 414 1219 387 1193 q 446 1278 440 1245 z "},"Į":{"ha":397,"x_min":-41,"x_max":425,"o":"m 425 1010 l 257 0 l 13 0 l 181 1010 l 425 1010 m 113 -279 q 7 -245 46 -279 q -38 -148 -33 -211 q -28 -65 -41 -107 q 12 12 -15 -22 q 77 62 39 46 l 257 0 q 177 -39 208 -18 q 141 -93 146 -61 q 178 -144 131 -144 q 205 -140 193 -144 q 227 -134 217 -136 l 235 -249 q 183 -269 215 -259 q 113 -279 152 -279 z "},"İ":{"ha":397,"x_min":13,"x_max":468,"o":"m 425 1010 l 257 0 l 13 0 l 181 1010 l 425 1010 m 322 1098 q 238 1132 270 1098 q 213 1214 206 1166 q 262 1295 220 1262 q 354 1329 303 1329 q 436 1295 405 1329 q 461 1214 468 1262 q 414 1132 455 1166 q 322 1098 373 1098 z "},"Ǐ":{"ha":397,"x_min":13,"x_max":656,"o":"m 425 1010 l 257 0 l 13 0 l 181 1010 l 425 1010 m 258 1328 l 337 1214 l 454 1328 l 656 1328 l 655 1322 l 406 1101 l 233 1101 l 55 1322 l 56 1328 l 258 1328 z "},"Ȉ":{"ha":397,"x_min":13,"x_max":523,"o":"m 425 1010 l 257 0 l 13 0 l 181 1010 l 425 1010 m 261 1106 l 93 1152 l 33 1329 l 236 1283 l 261 1106 m 513 1106 l 357 1152 l 340 1329 l 523 1283 l 513 1106 z "},"Ȋ":{"ha":397,"x_min":13,"x_max":598,"o":"m 425 1010 l 257 0 l 13 0 l 181 1010 l 425 1010 m 67 1130 q 161 1283 82 1223 q 358 1342 239 1342 q 537 1283 476 1342 q 582 1130 598 1223 l 423 1130 q 410 1189 428 1163 q 338 1215 392 1215 q 257 1189 285 1215 q 226 1130 230 1163 l 67 1130 z "},"Ỉ":{"ha":397,"x_min":13,"x_max":548,"o":"m 425 1010 l 257 0 l 13 0 l 181 1010 l 425 1010 m 409 1121 l 233 1121 l 232 1203 q 309 1217 285 1205 q 335 1246 333 1229 q 314 1281 340 1273 q 247 1290 289 1290 l 270 1392 q 480 1356 411 1392 q 537 1257 548 1321 q 494 1191 530 1213 q 415 1162 457 1168 l 409 1121 z "},"Ị":{"ha":397,"x_min":-23,"x_max":425,"o":"m 425 1010 l 257 0 l 13 0 l 181 1010 l 425 1010 m 93 -294 q 9 -260 41 -294 q -16 -179 -23 -226 q 33 -98 -8 -131 q 125 -64 74 -64 q 207 -98 176 -64 q 232 -179 239 -131 q 185 -260 226 -226 q 93 -294 144 -294 z "},"Ι":{"ha":397,"x_min":13,"x_max":425,"o":"m 425 1010 l 257 0 l 13 0 l 181 1010 l 425 1010 z "},"Ί":{"ha":575,"x_min":79,"x_max":604,"o":"m 604 1010 l 436 0 l 192 0 l 360 1010 l 604 1010 m 79 850 l 177 1086 l 385 1086 l 217 850 l 79 850 z "},"Ϊ":{"ha":397,"x_min":13,"x_max":609,"o":"m 425 1010 l 257 0 l 13 0 l 181 1010 l 425 1010 m 489 1106 q 407 1142 438 1106 q 383 1228 375 1178 q 423 1294 390 1268 q 498 1321 457 1321 q 579 1285 549 1321 q 601 1199 609 1249 q 563 1133 595 1161 q 489 1106 530 1106 m 182 1106 q 99 1143 130 1106 q 75 1228 68 1179 q 116 1294 82 1268 q 190 1321 149 1321 q 271 1285 241 1321 q 293 1199 301 1249 q 255 1133 288 1161 q 182 1106 222 1106 z "},"Ἰ":{"ha":611,"x_min":147,"x_max":644,"o":"m 644 1010 l 476 0 l 232 0 l 400 1010 l 644 1010 m 348 1010 l 336 942 q 286 832 326 877 q 196 765 246 786 l 147 834 q 198 880 182 852 q 220 946 214 909 l 230 1010 l 348 1010 z "},"Ἱ":{"ha":593,"x_min":162,"x_max":626,"o":"m 626 1010 l 459 0 l 215 0 l 382 1010 l 626 1010 m 171 942 l 182 1010 l 302 1010 l 291 946 q 291 884 286 915 q 325 834 296 853 l 253 765 q 186 832 211 786 q 171 942 162 877 z "},"Ἲ":{"ha":849,"x_min":147,"x_max":882,"o":"m 882 1010 l 714 0 l 470 0 l 638 1010 l 882 1010 m 366 1010 l 359 955 q 305 847 348 896 q 196 765 262 798 l 147 807 q 202 874 182 838 q 230 959 223 911 l 238 1010 l 366 1010 m 591 791 l 589 781 l 522 781 l 396 996 l 398 1010 l 546 1010 l 591 791 z "},"Ἳ":{"ha":808,"x_min":156,"x_max":841,"o":"m 841 1010 l 673 0 l 429 0 l 597 1010 l 841 1010 m 167 942 l 178 1010 l 299 1010 l 288 946 q 286 884 282 915 q 324 834 291 853 l 252 765 q 181 832 206 786 q 167 942 156 877 m 549 798 l 547 780 l 481 780 l 355 996 l 357 1010 l 507 1010 l 549 798 z "},"Ἴ":{"ha":834,"x_min":155,"x_max":867,"o":"m 867 1010 l 699 0 l 455 0 l 623 1010 l 867 1010 m 359 1010 l 347 942 q 295 832 336 878 q 202 765 254 786 l 155 834 q 207 884 193 853 q 227 946 221 915 l 238 1010 l 359 1010 m 345 780 l 347 798 l 463 1010 l 611 1010 l 609 996 l 411 780 l 345 780 z "},"Ἵ":{"ha":849,"x_min":160,"x_max":882,"o":"m 882 1010 l 714 0 l 470 0 l 638 1010 l 882 1010 m 253 765 q 187 830 213 785 q 171 942 160 875 l 182 1010 l 302 1010 l 291 946 q 291 880 286 909 q 325 834 296 852 l 253 765 m 360 780 l 362 798 l 473 1010 l 624 1010 l 622 996 l 423 780 l 360 780 z "},"Ἶ":{"ha":743,"x_min":184,"x_max":775,"o":"m 775 1010 l 608 0 l 363 0 l 531 1010 l 775 1010 m 533 1181 l 621 1153 q 576 1067 613 1104 q 487 1030 538 1030 q 427 1041 451 1030 q 380 1064 402 1053 q 327 1075 357 1075 q 292 1057 307 1075 q 273 1016 278 1040 l 184 1043 q 230 1129 192 1091 q 318 1167 268 1167 q 374 1157 348 1167 q 425 1135 400 1146 q 478 1124 450 1124 q 513 1141 498 1124 q 533 1181 529 1158 m 454 995 l 445 939 q 398 847 436 883 q 313 794 360 810 l 267 849 q 315 890 302 863 q 331 943 327 917 l 340 995 l 454 995 z "},"Ἷ":{"ha":760,"x_min":184,"x_max":793,"o":"m 793 1010 l 625 0 l 381 0 l 549 1010 l 793 1010 m 533 1182 l 621 1154 q 576 1068 613 1105 q 487 1031 538 1031 q 427 1042 451 1031 q 380 1065 402 1054 q 327 1076 357 1076 q 292 1058 307 1076 q 273 1017 278 1041 l 184 1044 q 230 1130 192 1092 q 318 1168 268 1168 q 374 1158 348 1168 q 425 1136 400 1147 q 478 1125 450 1125 q 513 1142 498 1125 q 533 1182 529 1159 m 331 940 l 341 996 l 455 996 l 445 944 q 445 891 442 918 q 479 850 449 864 l 413 795 q 349 846 376 810 q 331 940 322 882 z "},"Ῐ":{"ha":397,"x_min":13,"x_max":606,"o":"m 425 1010 l 257 0 l 13 0 l 181 1010 l 425 1010 m 446 1278 l 606 1278 q 511 1129 590 1186 q 315 1073 433 1073 q 136 1129 196 1073 q 91 1278 76 1186 l 249 1278 q 262 1219 244 1246 q 334 1193 280 1193 q 414 1219 387 1193 q 446 1278 440 1245 z "},"Ῑ":{"ha":397,"x_min":13,"x_max":588,"o":"m 425 1010 l 257 0 l 13 0 l 181 1010 l 425 1010 m 588 1263 l 570 1143 l 81 1143 l 100 1263 l 588 1263 z "},"Ὶ":{"ha":646,"x_min":181,"x_max":679,"o":"m 679 1010 l 511 0 l 267 0 l 435 1010 l 679 1010 m 308 779 l 181 996 l 181 1010 l 331 1010 l 374 800 l 374 779 l 308 779 z "},"Ί":{"ha":629,"x_min":144,"x_max":662,"o":"m 662 1010 l 494 0 l 250 0 l 418 1010 l 662 1010 m 144 852 l 147 873 l 260 1083 l 463 1083 l 461 1069 l 262 852 l 144 852 z "},"І":{"ha":397,"x_min":13,"x_max":425,"o":"m 425 1010 l 257 0 l 13 0 l 181 1010 l 425 1010 z "},"Ї":{"ha":397,"x_min":13,"x_max":609,"o":"m 425 1010 l 257 0 l 13 0 l 181 1010 l 425 1010 m 489 1106 q 407 1142 438 1106 q 383 1228 375 1178 q 423 1294 390 1268 q 498 1321 457 1321 q 579 1285 549 1321 q 601 1199 609 1249 q 563 1133 595 1161 q 489 1106 530 1106 m 182 1106 q 99 1143 130 1106 q 75 1228 68 1179 q 116 1294 82 1268 q 190 1321 149 1321 q 271 1285 241 1321 q 293 1199 301 1249 q 255 1133 288 1161 q 182 1106 222 1106 z "},"":{"ha":684,"x_min":-20,"x_max":745,"o":"m 114 812 l 148 1010 l 745 1010 l 711 812 l 535 812 l 434 198 l 611 198 l 577 0 l -20 0 l 14 198 l 189 198 l 291 812 l 114 812 z "},"":{"ha":684,"x_min":-20,"x_max":752,"o":"m 114 812 l 148 1010 l 745 1010 l 711 812 l 535 812 l 434 198 l 611 198 l 577 0 l -20 0 l 14 198 l 189 198 l 291 812 l 114 812 m 632 1106 q 550 1142 581 1106 q 526 1228 518 1178 q 566 1294 533 1268 q 641 1321 600 1321 q 722 1285 692 1321 q 744 1199 752 1249 q 706 1133 738 1161 q 632 1106 673 1106 m 325 1106 q 242 1143 273 1106 q 218 1228 211 1179 q 259 1294 225 1268 q 333 1321 292 1321 q 414 1285 384 1321 q 436 1199 444 1249 q 398 1133 431 1161 q 325 1106 365 1106 z "},"":{"ha":684,"x_min":-20,"x_max":776,"o":"m 114 812 l 148 1010 l 745 1010 l 711 812 l 535 812 l 434 198 l 611 198 l 577 0 l -20 0 l 14 198 l 189 198 l 291 812 l 114 812 m 408 1334 l 570 1516 l 776 1516 l 575 1334 l 408 1334 m 611 1076 q 532 1109 562 1076 q 510 1188 502 1142 q 548 1249 517 1224 q 618 1273 580 1273 q 696 1240 667 1273 q 716 1162 724 1207 q 680 1101 711 1126 q 611 1076 649 1076 m 319 1076 q 241 1109 270 1076 q 218 1188 211 1142 q 256 1249 225 1224 q 327 1273 288 1273 q 404 1240 375 1273 q 425 1162 433 1207 q 388 1101 419 1126 q 319 1076 358 1076 z "},"":{"ha":684,"x_min":-20,"x_max":745,"o":"m 114 812 l 148 1010 l 745 1010 l 711 812 l 535 812 l 434 198 l 611 198 l 577 0 l -20 0 l 14 198 l 189 198 l 291 812 l 114 812 m 99 470 l 122 604 l 634 604 l 610 470 l 99 470 z "},"":{"ha":684,"x_min":-20,"x_max":745,"o":"m 114 812 l 148 1010 l 745 1010 l 711 812 l 535 812 l 434 198 l 611 198 l 577 0 l -20 0 l 14 198 l 189 198 l 291 812 l 114 812 m 109 -278 l -16 -277 q 57 -125 1 -177 q 181 -73 112 -73 q 242 -85 218 -73 q 283 -112 266 -97 q 317 -139 301 -128 q 352 -151 332 -151 q 397 -130 380 -151 q 420 -74 414 -109 l 543 -76 q 469 -227 525 -176 q 345 -280 413 -279 q 284 -268 308 -280 q 244 -241 260 -256 q 212 -214 227 -226 q 176 -203 197 -203 q 133 -222 151 -203 q 109 -278 115 -242 z "},"":{"ha":684,"x_min":-20,"x_max":745,"o":"m 114 812 l 148 1010 l 745 1010 l 711 812 l 535 812 l 434 198 l 611 198 l 577 0 l -20 0 l 14 198 l 189 198 l 291 812 l 114 812 m 384 1106 l 271 1329 l 484 1329 l 548 1106 l 384 1106 z "},"":{"ha":684,"x_min":-20,"x_max":745,"o":"m 114 812 l 148 1010 l 745 1010 l 711 812 l 535 812 l 434 198 l 611 198 l 577 0 l -20 0 l 14 198 l 189 198 l 291 812 l 114 812 m 380 1106 l 517 1329 l 730 1329 l 544 1106 l 380 1106 z "},"":{"ha":684,"x_min":-20,"x_max":763,"o":"m 114 812 l 148 1010 l 745 1010 l 711 812 l 535 812 l 434 198 l 611 198 l 577 0 l -20 0 l 14 198 l 189 198 l 291 812 l 114 812 m 364 1101 l 162 1101 l 163 1107 l 414 1328 l 587 1328 l 763 1107 l 762 1101 l 560 1101 l 481 1215 l 364 1101 z "},"":{"ha":684,"x_min":-20,"x_max":760,"o":"m 114 812 l 148 1010 l 745 1010 l 711 812 l 535 812 l 434 198 l 611 198 l 577 0 l -20 0 l 14 198 l 189 198 l 291 812 l 114 812 m 327 1104 l 201 1105 q 274 1256 218 1205 q 398 1308 329 1308 q 459 1296 435 1308 q 500 1269 483 1285 q 534 1242 518 1254 q 569 1231 549 1231 q 614 1252 597 1231 q 637 1307 631 1272 l 760 1306 q 686 1154 742 1206 q 562 1102 630 1103 q 501 1113 525 1102 q 461 1140 477 1125 q 429 1167 444 1156 q 393 1179 414 1179 q 350 1159 368 1179 q 327 1104 332 1140 z "},"":{"ha":684,"x_min":-20,"x_max":745,"o":"m 114 812 l 148 1010 l 745 1010 l 711 812 l 535 812 l 434 198 l 611 198 l 577 0 l -20 0 l 14 198 l 189 198 l 291 812 l 114 812 m 732 1263 l 713 1143 l 224 1143 l 244 1263 l 732 1263 z "},"":{"ha":684,"x_min":-20,"x_max":749,"o":"m 114 812 l 148 1010 l 745 1010 l 711 812 l 535 812 l 434 198 l 611 198 l 577 0 l -20 0 l 14 198 l 189 198 l 291 812 l 114 812 m 589 1278 l 749 1278 q 654 1129 733 1186 q 458 1073 576 1073 q 279 1129 339 1073 q 234 1278 219 1186 l 392 1278 q 405 1219 387 1246 q 477 1193 423 1193 q 557 1219 530 1193 q 589 1278 583 1245 z "},"":{"ha":684,"x_min":-20,"x_max":745,"o":"m 114 812 l 148 1010 l 745 1010 l 711 812 l 535 812 l 434 198 l 611 198 l 577 0 l -20 0 l 14 198 l 189 198 l 291 812 l 114 812 m 433 -279 q 326 -245 366 -279 q 282 -148 287 -211 q 291 -65 278 -107 q 331 12 304 -22 q 397 62 359 46 l 577 0 q 497 -39 528 -18 q 461 -93 466 -61 q 498 -144 451 -144 q 525 -140 512 -144 q 546 -134 537 -136 l 555 -249 q 503 -269 534 -259 q 433 -279 472 -279 z "},"":{"ha":684,"x_min":-20,"x_max":745,"o":"m 114 812 l 148 1010 l 745 1010 l 711 812 l 535 812 l 434 198 l 611 198 l 577 0 l -20 0 l 14 198 l 189 198 l 291 812 l 114 812 m 465 1098 q 381 1132 413 1098 q 356 1214 349 1166 q 405 1295 363 1262 q 497 1329 446 1329 q 579 1295 548 1329 q 604 1214 611 1262 q 557 1132 598 1166 q 465 1098 516 1098 z "},"":{"ha":684,"x_min":-20,"x_max":799,"o":"m 114 812 l 148 1010 l 745 1010 l 711 812 l 535 812 l 434 198 l 611 198 l 577 0 l -20 0 l 14 198 l 189 198 l 291 812 l 114 812 m 401 1328 l 480 1214 l 597 1328 l 799 1328 l 798 1322 l 549 1101 l 376 1101 l 198 1322 l 199 1328 l 401 1328 z "},"":{"ha":684,"x_min":-20,"x_max":745,"o":"m 114 812 l 148 1010 l 745 1010 l 711 812 l 535 812 l 434 198 l 611 198 l 577 0 l -20 0 l 14 198 l 189 198 l 291 812 l 114 812 m 405 1106 l 236 1152 l 177 1329 l 380 1283 l 405 1106 m 656 1106 l 500 1152 l 483 1329 l 667 1283 l 656 1106 z "},"":{"ha":684,"x_min":-20,"x_max":745,"o":"m 114 812 l 148 1010 l 745 1010 l 711 812 l 535 812 l 434 198 l 611 198 l 577 0 l -20 0 l 14 198 l 189 198 l 291 812 l 114 812 m 210 1130 q 304 1283 225 1223 q 501 1342 382 1342 q 680 1283 619 1342 q 726 1130 741 1223 l 566 1130 q 553 1189 571 1163 q 481 1215 535 1215 q 400 1189 428 1215 q 369 1130 373 1163 l 210 1130 z "},"":{"ha":684,"x_min":-20,"x_max":745,"o":"m 114 812 l 148 1010 l 745 1010 l 711 812 l 535 812 l 434 198 l 611 198 l 577 0 l -20 0 l 14 198 l 189 198 l 291 812 l 114 812 m 552 1121 l 376 1121 l 375 1203 q 452 1217 428 1205 q 478 1246 476 1229 q 457 1281 483 1273 q 390 1290 432 1290 l 413 1392 q 623 1356 554 1392 q 680 1257 691 1321 q 637 1191 673 1213 q 558 1162 600 1168 l 552 1121 z "},"":{"ha":684,"x_min":-20,"x_max":745,"o":"m 114 812 l 148 1010 l 745 1010 l 711 812 l 535 812 l 434 198 l 611 198 l 577 0 l -20 0 l 14 198 l 189 198 l 291 812 l 114 812 m 236 -294 q 152 -260 184 -294 q 127 -179 120 -226 q 176 -98 135 -131 q 268 -64 217 -64 q 350 -98 319 -64 q 375 -179 382 -131 q 328 -260 369 -226 q 236 -294 287 -294 z "},"":{"ha":905,"x_min":117,"x_max":967,"o":"m 336 812 l 370 1010 l 967 1010 l 933 812 l 757 812 l 655 198 l 833 198 l 799 0 l 202 0 l 236 198 l 411 198 l 513 812 l 336 812 m 318 1010 l 306 942 q 256 832 296 877 q 166 765 216 786 l 117 834 q 168 880 152 852 q 190 946 184 909 l 200 1010 l 318 1010 z "},"":{"ha":883,"x_min":127,"x_max":945,"o":"m 314 812 l 348 1010 l 945 1010 l 911 812 l 735 812 l 633 198 l 810 198 l 777 0 l 180 0 l 214 198 l 389 198 l 491 812 l 314 812 m 136 942 l 147 1010 l 267 1010 l 255 946 q 256 884 251 915 q 290 834 261 853 l 218 765 q 151 832 176 786 q 136 942 127 877 z "},"":{"ha":1140,"x_min":114,"x_max":1201,"o":"m 571 812 l 605 1010 l 1201 1010 l 1168 812 l 992 812 l 890 198 l 1067 198 l 1034 0 l 437 0 l 471 198 l 646 198 l 748 812 l 571 812 m 333 1010 l 326 955 q 272 847 315 896 q 163 765 229 798 l 114 807 q 169 874 148 838 q 197 959 190 911 l 205 1010 l 333 1010 m 558 791 l 556 781 l 489 781 l 363 996 l 365 1010 l 513 1010 l 558 791 z "},"":{"ha":1102,"x_min":126,"x_max":1164,"o":"m 534 812 l 567 1010 l 1164 1010 l 1130 812 l 954 812 l 853 198 l 1030 198 l 996 0 l 400 0 l 433 198 l 609 198 l 710 812 l 534 812 m 137 942 l 148 1010 l 269 1010 l 258 946 q 257 884 252 915 q 294 834 261 853 l 222 765 q 151 832 176 786 q 137 942 126 877 m 520 798 l 518 780 l 452 780 l 325 996 l 327 1010 l 477 1010 l 520 798 z "},"":{"ha":1121,"x_min":117,"x_max":1182,"o":"m 551 812 l 585 1010 l 1182 1010 l 1148 812 l 972 812 l 871 198 l 1048 198 l 1014 0 l 417 0 l 451 198 l 626 198 l 728 812 l 551 812 m 321 1010 l 309 942 q 257 832 298 878 q 164 765 216 786 l 117 834 q 169 884 155 853 q 189 946 183 915 l 200 1010 l 321 1010 m 307 780 l 309 798 l 425 1010 l 573 1010 l 571 996 l 373 780 l 307 780 z "},"":{"ha":1139,"x_min":125,"x_max":1200,"o":"m 570 812 l 603 1010 l 1200 1010 l 1166 812 l 990 812 l 889 198 l 1066 198 l 1032 0 l 436 0 l 469 198 l 645 198 l 746 812 l 570 812 m 218 765 q 152 830 178 785 q 136 942 125 875 l 147 1010 l 267 1010 l 256 946 q 256 880 251 909 q 290 834 261 852 l 218 765 m 325 780 l 327 798 l 438 1010 l 589 1010 l 587 996 l 388 780 l 325 780 z "},"":{"ha":1035,"x_min":152,"x_max":1097,"o":"m 467 812 l 500 1010 l 1097 1010 l 1063 812 l 887 812 l 786 198 l 963 198 l 929 0 l 332 0 l 366 198 l 542 198 l 643 812 l 467 812 m 501 1181 l 590 1153 q 544 1067 581 1104 q 456 1030 507 1030 q 395 1041 420 1030 q 348 1064 370 1053 q 295 1075 326 1075 q 261 1057 275 1075 q 241 1016 246 1040 l 152 1043 q 199 1129 160 1091 q 287 1167 237 1167 q 342 1157 317 1167 q 393 1135 368 1146 q 447 1124 419 1124 q 482 1141 466 1124 q 501 1181 498 1158 m 423 995 l 413 939 q 366 847 404 883 q 281 794 328 810 l 236 849 q 283 890 271 863 q 299 943 296 917 l 309 995 l 423 995 z "},"":{"ha":1054,"x_min":154,"x_max":1116,"o":"m 485 812 l 519 1010 l 1116 1010 l 1082 812 l 906 812 l 804 198 l 981 198 l 948 0 l 351 0 l 385 198 l 560 198 l 662 812 l 485 812 m 503 1182 l 591 1154 q 545 1068 583 1105 q 457 1031 508 1031 q 397 1042 421 1031 q 349 1065 372 1054 q 296 1076 327 1076 q 262 1058 277 1076 q 243 1017 248 1041 l 154 1044 q 200 1130 162 1092 q 288 1168 238 1168 q 344 1158 318 1168 q 395 1136 369 1147 q 448 1125 420 1125 q 483 1142 468 1125 q 503 1182 499 1159 m 301 940 l 311 996 l 425 996 l 415 944 q 415 891 412 918 q 449 850 419 864 l 383 795 q 319 846 346 810 q 301 940 292 882 z "},"":{"ha":684,"x_min":-20,"x_max":749,"o":"m 114 812 l 148 1010 l 745 1010 l 711 812 l 535 812 l 434 198 l 611 198 l 577 0 l -20 0 l 14 198 l 189 198 l 291 812 l 114 812 m 589 1278 l 749 1278 q 654 1129 733 1186 q 458 1073 576 1073 q 279 1129 339 1073 q 234 1278 219 1186 l 392 1278 q 405 1219 387 1246 q 477 1193 423 1193 q 557 1219 530 1193 q 589 1278 583 1245 z "},"":{"ha":684,"x_min":-20,"x_max":745,"o":"m 114 812 l 148 1010 l 745 1010 l 711 812 l 535 812 l 434 198 l 611 198 l 577 0 l -20 0 l 14 198 l 189 198 l 291 812 l 114 812 m 732 1263 l 713 1143 l 224 1143 l 244 1263 l 732 1263 z "},"":{"ha":938,"x_min":148,"x_max":999,"o":"m 368 812 l 402 1010 l 999 1010 l 965 812 l 789 812 l 688 198 l 865 198 l 831 0 l 234 0 l 268 198 l 443 198 l 545 812 l 368 812 m 275 779 l 148 996 l 148 1010 l 298 1010 l 341 800 l 341 779 l 275 779 z "},"":{"ha":918,"x_min":109,"x_max":980,"o":"m 349 812 l 383 1010 l 980 1010 l 946 812 l 770 812 l 668 198 l 845 198 l 812 0 l 215 0 l 249 198 l 424 198 l 526 812 l 349 812 m 109 852 l 112 873 l 225 1083 l 428 1083 l 426 1069 l 227 852 l 109 852 z "},"":{"ha":684,"x_min":-20,"x_max":745,"o":"m 114 812 l 148 1010 l 745 1010 l 711 812 l 535 812 l 434 198 l 611 198 l 577 0 l -20 0 l 14 198 l 189 198 l 291 812 l 114 812 z "},"":{"ha":684,"x_min":-20,"x_max":752,"o":"m 114 812 l 148 1010 l 745 1010 l 711 812 l 535 812 l 434 198 l 611 198 l 577 0 l -20 0 l 14 198 l 189 198 l 291 812 l 114 812 m 632 1106 q 550 1142 581 1106 q 526 1228 518 1178 q 566 1294 533 1268 q 641 1321 600 1321 q 722 1285 692 1321 q 744 1199 752 1249 q 706 1133 738 1161 q 632 1106 673 1106 m 325 1106 q 242 1143 273 1106 q 218 1228 211 1179 q 259 1294 225 1268 q 333 1321 292 1321 q 414 1285 384 1321 q 436 1199 444 1249 q 398 1133 431 1161 q 325 1106 365 1106 z "},"J":{"ha":804,"x_min":-7,"x_max":832,"o":"m 591 1010 l 832 1010 l 717 311 q 642 140 700 213 q 496 26 584 67 q 300 -14 408 -14 q 134 19 206 -14 q 28 122 62 53 q 11 300 -7 191 l 254 300 q 343 179 238 179 q 476 313 452 179 l 591 1010 z "},"Ĵ":{"ha":804,"x_min":-7,"x_max":1027,"o":"m 591 1010 l 832 1010 l 717 311 q 642 140 700 213 q 496 26 584 67 q 300 -14 408 -14 q 134 19 206 -14 q 28 122 62 53 q 11 300 -7 191 l 254 300 q 343 179 238 179 q 476 313 452 179 l 591 1010 m 629 1101 l 427 1101 l 428 1107 l 679 1328 l 852 1328 l 1027 1107 l 1026 1101 l 825 1101 l 746 1215 l 629 1101 z "},"Ɉ":{"ha":804,"x_min":-7,"x_max":910,"o":"m 591 1010 l 832 1010 l 717 311 q 642 140 700 213 q 496 26 584 67 q 300 -14 408 -14 q 134 19 206 -14 q 28 122 62 53 q 11 300 -7 191 l 254 300 q 343 179 238 179 q 476 313 452 179 l 591 1010 m 375 537 l 399 672 l 910 672 l 886 537 l 375 537 z "},"Ϳ":{"ha":804,"x_min":-7,"x_max":832,"o":"m 591 1010 l 832 1010 l 717 311 q 642 140 700 213 q 496 26 584 67 q 300 -14 408 -14 q 134 19 206 -14 q 28 122 62 53 q 11 300 -7 191 l 254 300 q 343 179 238 179 q 476 313 452 179 l 591 1010 z "},"Ј":{"ha":804,"x_min":-7,"x_max":832,"o":"m 591 1010 l 832 1010 l 717 311 q 642 140 700 213 q 496 26 584 67 q 300 -14 408 -14 q 134 19 206 -14 q 28 122 62 53 q 11 300 -7 191 l 254 300 q 343 179 238 179 q 476 313 452 179 l 591 1010 z "},"K":{"ha":975,"x_min":13,"x_max":1060,"o":"m 13 0 l 181 1010 l 425 1010 l 355 583 l 368 583 l 772 1010 l 1060 1010 l 628 559 l 899 0 l 607 0 l 423 397 l 303 272 l 257 0 l 13 0 z "},"Ķ":{"ha":975,"x_min":13,"x_max":1060,"o":"m 13 0 l 181 1010 l 425 1010 l 355 583 l 368 583 l 772 1010 l 1060 1010 l 628 559 l 899 0 l 607 0 l 423 397 l 303 272 l 257 0 l 13 0 m 200 -318 l 303 -78 l 522 -78 l 366 -318 l 200 -318 z "},"Ǩ":{"ha":975,"x_min":13,"x_max":1060,"o":"m 13 0 l 181 1010 l 425 1010 l 355 583 l 368 583 l 772 1010 l 1060 1010 l 628 559 l 899 0 l 607 0 l 423 397 l 303 272 l 257 0 l 13 0 m 543 1328 l 622 1214 l 739 1328 l 941 1328 l 940 1322 l 690 1101 l 517 1101 l 340 1322 l 341 1328 l 543 1328 z "},"Ḱ":{"ha":975,"x_min":13,"x_max":1060,"o":"m 13 0 l 181 1010 l 425 1010 l 355 583 l 368 583 l 772 1010 l 1060 1010 l 628 559 l 899 0 l 607 0 l 423 397 l 303 272 l 257 0 l 13 0 m 521 1106 l 658 1329 l 872 1329 l 685 1106 l 521 1106 z "},"Ḳ":{"ha":975,"x_min":13,"x_max":1060,"o":"m 13 0 l 181 1010 l 425 1010 l 355 583 l 368 583 l 772 1010 l 1060 1010 l 628 559 l 899 0 l 607 0 l 423 397 l 303 272 l 257 0 l 13 0 m 379 -293 q 296 -259 328 -293 q 271 -178 264 -225 q 319 -96 278 -130 q 411 -63 361 -63 q 494 -96 463 -63 q 519 -178 525 -130 q 472 -259 512 -225 q 379 -293 431 -293 z "},"Ḵ":{"ha":975,"x_min":13,"x_max":1060,"o":"m 13 0 l 181 1010 l 425 1010 l 355 583 l 368 583 l 772 1010 l 1060 1010 l 628 559 l 899 0 l 607 0 l 423 397 l 303 272 l 257 0 l 13 0 m 647 -125 l 628 -245 l 139 -245 l 158 -125 l 647 -125 z "},"Ҡ":{"ha":1227,"x_min":100,"x_max":1253,"o":"m 801 0 l 554 419 l 498 419 l 429 0 l 184 0 l 321 824 l 100 824 l 131 1010 l 596 1010 l 531 618 l 570 618 l 948 1010 l 1253 1010 l 786 533 l 1106 0 l 801 0 z "},"Қ":{"ha":1054,"x_min":13,"x_max":1082,"o":"m 630 0 l 383 419 l 327 419 l 257 0 l 13 0 l 181 1010 l 425 1010 l 360 618 l 399 618 l 777 1010 l 1082 1010 l 615 533 l 935 0 l 630 0 m 979 167 l 914 -234 l 681 -234 l 746 167 l 979 167 z "},"Ƙ":{"ha":1039,"x_min":13,"x_max":1129,"o":"m 13 0 l 181 1010 l 425 1010 l 356 597 l 370 597 l 733 918 q 932 1020 831 1004 q 1129 975 1032 1036 l 1026 804 q 954 813 985 826 q 886 768 923 800 l 625 540 l 950 0 l 659 0 l 440 367 l 297 239 l 257 0 l 13 0 z "},"Κ":{"ha":975,"x_min":13,"x_max":1060,"o":"m 13 0 l 181 1010 l 425 1010 l 355 583 l 368 583 l 772 1010 l 1060 1010 l 628 559 l 899 0 l 607 0 l 423 397 l 303 272 l 257 0 l 13 0 z "},"L":{"ha":791,"x_min":13,"x_max":711,"o":"m 13 0 l 181 1010 l 425 1010 l 291 198 l 711 198 l 678 0 l 13 0 z "},"Ĺ":{"ha":791,"x_min":13,"x_max":711,"o":"m 13 0 l 181 1010 l 425 1010 l 291 198 l 711 198 l 678 0 l 13 0 m 234 1106 l 371 1329 l 585 1329 l 398 1106 l 234 1106 z "},"Ļ":{"ha":791,"x_min":13,"x_max":711,"o":"m 13 0 l 181 1010 l 425 1010 l 291 198 l 711 198 l 678 0 l 13 0 m 98 -320 l 201 -80 l 421 -80 l 264 -320 l 98 -320 z "},"Ľ":{"ha":791,"x_min":13,"x_max":750,"o":"m 13 0 l 181 1010 l 425 1010 l 291 198 l 711 198 l 678 0 l 13 0 m 537 802 l 580 1064 l 750 1064 l 671 802 l 537 802 z "},"Ḷ":{"ha":791,"x_min":13,"x_max":711,"o":"m 13 0 l 181 1010 l 425 1010 l 291 198 l 711 198 l 678 0 l 13 0 m 278 -294 q 194 -260 226 -294 q 169 -179 162 -226 q 218 -98 177 -131 q 310 -64 259 -64 q 392 -98 361 -64 q 417 -179 424 -131 q 370 -260 411 -226 q 278 -294 329 -294 z "},"Ḹ":{"ha":791,"x_min":13,"x_max":711,"o":"m 13 0 l 181 1010 l 425 1010 l 291 198 l 711 198 l 678 0 l 13 0 m 278 -294 q 194 -260 226 -294 q 169 -179 162 -226 q 218 -98 177 -131 q 310 -64 259 -64 q 392 -98 361 -64 q 417 -179 424 -131 q 370 -260 411 -226 q 278 -294 329 -294 m 586 1263 l 568 1143 l 79 1143 l 98 1263 l 586 1263 z "},"Ḻ":{"ha":791,"x_min":13,"x_max":711,"o":"m 13 0 l 181 1010 l 425 1010 l 291 198 l 711 198 l 678 0 l 13 0 m 545 -127 l 526 -246 l 37 -246 l 57 -127 l 545 -127 z "},"Ḽ":{"ha":791,"x_min":-15,"x_max":711,"o":"m 13 0 l 181 1010 l 425 1010 l 291 198 l 711 198 l 678 0 l 13 0 m 187 -291 l -15 -291 l -14 -284 l 237 -63 l 410 -63 l 586 -284 l 585 -291 l 383 -291 l 304 -176 l 187 -291 z "},"Ł":{"ha":824,"x_min":20,"x_max":768,"o":"m 531 660 l 514 533 l 398 504 l 348 198 l 768 198 l 734 0 l 70 0 l 143 438 l 20 407 l 37 532 l 164 564 l 238 1010 l 482 1010 l 419 631 l 531 660 z "},"Ƚ":{"ha":791,"x_min":-44,"x_max":711,"o":"m 13 0 l 181 1010 l 425 1010 l 291 198 l 711 198 l 678 0 l 13 0 m -44 470 l -21 604 l 491 604 l 467 470 l -44 470 z "},"ǈ":{"ha":1185,"x_min":13,"x_max":1213,"o":"m 13 0 l 181 1010 l 425 1010 l 291 198 l 711 198 l 678 0 l 13 0 m 930 758 l 1171 758 l 1040 -32 q 922 -228 1016 -172 q 686 -284 828 -284 q 640 -283 666 -284 l 670 -100 q 699 -102 684 -102 q 771 -83 749 -102 q 800 -27 794 -64 l 930 758 m 1067 846 q 983 880 1016 846 q 958 961 951 914 q 1007 1043 966 1009 q 1099 1076 1048 1076 q 1181 1043 1150 1076 q 1206 961 1213 1009 q 1159 880 1200 914 q 1067 846 1118 846 z "},"M":{"ha":1282,"x_min":13,"x_max":1310,"o":"m 181 1010 l 483 1010 l 636 385 l 648 385 l 1008 1010 l 1310 1010 l 1143 0 l 905 0 l 1008 620 l 1000 620 l 655 6 l 504 6 l 364 624 l 356 624 l 251 0 l 13 0 l 181 1010 z "},"Ḿ":{"ha":1282,"x_min":13,"x_max":1310,"o":"m 181 1010 l 483 1010 l 636 385 l 648 385 l 1008 1010 l 1310 1010 l 1143 0 l 905 0 l 1008 620 l 1000 620 l 655 6 l 504 6 l 364 624 l 356 624 l 251 0 l 13 0 l 181 1010 m 679 1106 l 816 1329 l 1029 1329 l 842 1106 l 679 1106 z "},"Ṁ":{"ha":1282,"x_min":13,"x_max":1310,"o":"m 181 1010 l 483 1010 l 636 385 l 648 385 l 1008 1010 l 1310 1010 l 1143 0 l 905 0 l 1008 620 l 1000 620 l 655 6 l 504 6 l 364 624 l 356 624 l 251 0 l 13 0 l 181 1010 m 764 1098 q 681 1132 713 1098 q 655 1214 649 1166 q 704 1295 663 1262 q 796 1329 745 1329 q 879 1295 847 1329 q 904 1214 910 1262 q 856 1132 897 1166 q 764 1098 815 1098 z "},"Ṃ":{"ha":1282,"x_min":13,"x_max":1310,"o":"m 181 1010 l 483 1010 l 636 385 l 648 385 l 1008 1010 l 1310 1010 l 1143 0 l 905 0 l 1008 620 l 1000 620 l 655 6 l 504 6 l 364 624 l 356 624 l 251 0 l 13 0 l 181 1010 m 534 -294 q 451 -260 483 -294 q 426 -179 419 -226 q 474 -98 433 -131 q 566 -64 515 -64 q 649 -98 618 -64 q 674 -179 680 -131 q 626 -260 667 -226 q 534 -294 585 -294 z "},"Ӎ":{"ha":1406,"x_min":13,"x_max":1346,"o":"m 181 1010 l 483 1010 l 636 385 l 648 385 l 1008 1010 l 1310 1010 l 1143 0 l 905 0 l 1008 620 l 1000 620 l 655 6 l 504 6 l 364 624 l 356 624 l 251 0 l 13 0 l 181 1010 m 1346 127 l 1325 1 q 1289 -112 1317 -56 q 1219 -217 1260 -169 q 1131 -298 1178 -265 l 1025 -239 q 1068 -179 1045 -210 q 1109 -109 1090 -148 q 1137 -15 1128 -70 l 1160 127 l 1346 127 z "},"Μ":{"ha":1282,"x_min":13,"x_max":1310,"o":"m 181 1010 l 483 1010 l 636 385 l 648 385 l 1008 1010 l 1310 1010 l 1143 0 l 905 0 l 1008 620 l 1000 620 l 655 6 l 504 6 l 364 624 l 356 624 l 251 0 l 13 0 l 181 1010 z "},"Ϻ":{"ha":1282,"x_min":13,"x_max":1310,"o":"m 181 1010 l 483 1010 l 636 385 l 648 385 l 1008 1010 l 1310 1010 l 1143 0 l 905 0 l 1008 620 l 1000 620 l 655 6 l 504 6 l 364 624 l 356 624 l 251 0 l 13 0 l 181 1010 z "},"М":{"ha":1282,"x_min":13,"x_max":1310,"o":"m 181 1010 l 483 1010 l 636 385 l 648 385 l 1008 1010 l 1310 1010 l 1143 0 l 905 0 l 1008 620 l 1000 620 l 655 6 l 504 6 l 364 624 l 356 624 l 251 0 l 13 0 l 181 1010 z "},"N":{"ha":1013,"x_min":13,"x_max":1041,"o":"m 1041 1010 l 873 0 l 666 0 l 362 583 l 355 583 l 257 0 l 13 0 l 181 1010 l 391 1010 l 693 428 l 701 428 l 797 1010 l 1041 1010 z "},"Ñ":{"ha":1013,"x_min":13,"x_max":1041,"o":"m 1041 1010 l 873 0 l 666 0 l 362 583 l 355 583 l 257 0 l 13 0 l 181 1010 l 391 1010 l 693 428 l 701 428 l 797 1010 l 1041 1010 m 491 1104 l 366 1105 q 438 1256 383 1205 q 563 1308 494 1308 q 623 1296 599 1308 q 665 1269 648 1285 q 698 1242 683 1254 q 734 1231 714 1231 q 779 1252 762 1231 q 802 1307 796 1272 l 925 1306 q 851 1154 907 1206 q 727 1102 795 1103 q 666 1113 690 1102 q 626 1140 642 1125 q 594 1167 609 1156 q 557 1179 579 1179 q 515 1159 533 1179 q 491 1104 497 1140 z "},"Ń":{"ha":1013,"x_min":13,"x_max":1041,"o":"m 1041 1010 l 873 0 l 666 0 l 362 583 l 355 583 l 257 0 l 13 0 l 181 1010 l 391 1010 l 693 428 l 701 428 l 797 1010 l 1041 1010 m 545 1106 l 682 1329 l 895 1329 l 708 1106 l 545 1106 z "},"Ņ":{"ha":1013,"x_min":13,"x_max":1041,"o":"m 1041 1010 l 873 0 l 666 0 l 362 583 l 355 583 l 257 0 l 13 0 l 181 1010 l 391 1010 l 693 428 l 701 428 l 797 1010 l 1041 1010 m 220 -320 l 324 -80 l 543 -80 l 387 -320 l 220 -320 z "},"Ň":{"ha":1013,"x_min":13,"x_max":1041,"o":"m 1041 1010 l 873 0 l 666 0 l 362 583 l 355 583 l 257 0 l 13 0 l 181 1010 l 391 1010 l 693 428 l 701 428 l 797 1010 l 1041 1010 m 567 1328 l 646 1214 l 763 1328 l 964 1328 l 963 1322 l 714 1101 l 541 1101 l 363 1322 l 364 1328 l 567 1328 z "},"Ǹ":{"ha":1013,"x_min":13,"x_max":1041,"o":"m 1041 1010 l 873 0 l 666 0 l 362 583 l 355 583 l 257 0 l 13 0 l 181 1010 l 391 1010 l 693 428 l 701 428 l 797 1010 l 1041 1010 m 548 1106 l 436 1329 l 649 1329 l 713 1106 l 548 1106 z "},"Ṅ":{"ha":1013,"x_min":13,"x_max":1041,"o":"m 1041 1010 l 873 0 l 666 0 l 362 583 l 355 583 l 257 0 l 13 0 l 181 1010 l 391 1010 l 693 428 l 701 428 l 797 1010 l 1041 1010 m 630 1098 q 546 1132 579 1098 q 521 1214 514 1166 q 570 1295 529 1262 q 662 1329 611 1329 q 745 1295 713 1329 q 769 1214 776 1262 q 722 1132 763 1166 q 630 1098 681 1098 z "},"Ṇ":{"ha":1013,"x_min":13,"x_max":1041,"o":"m 1041 1010 l 873 0 l 666 0 l 362 583 l 355 583 l 257 0 l 13 0 l 181 1010 l 391 1010 l 693 428 l 701 428 l 797 1010 l 1041 1010 m 400 -294 q 317 -260 349 -294 q 291 -179 285 -226 q 340 -98 299 -131 q 432 -64 381 -64 q 515 -98 483 -64 q 540 -179 546 -131 q 492 -260 533 -226 q 400 -294 451 -294 z "},"Ṉ":{"ha":1013,"x_min":13,"x_max":1041,"o":"m 1041 1010 l 873 0 l 666 0 l 362 583 l 355 583 l 257 0 l 13 0 l 181 1010 l 391 1010 l 693 428 l 701 428 l 797 1010 l 1041 1010 m 667 -127 l 649 -246 l 160 -246 l 179 -127 l 667 -127 z "},"Ṋ":{"ha":1013,"x_min":13,"x_max":1041,"o":"m 1041 1010 l 873 0 l 666 0 l 362 583 l 355 583 l 257 0 l 13 0 l 181 1010 l 391 1010 l 693 428 l 701 428 l 797 1010 l 1041 1010 m 310 -291 l 108 -291 l 109 -284 l 360 -63 l 533 -63 l 708 -284 l 707 -291 l 506 -291 l 427 -176 l 310 -291 z "},"Ɲ":{"ha":1043,"x_min":-150,"x_max":1071,"o":"m 44 0 l 212 1010 l 422 1010 l 724 428 l 732 428 l 828 1010 l 1071 1010 l 904 0 l 696 0 l 392 583 l 385 583 l 288 0 l 288 0 l 281 -35 q 235 -167 267 -117 q 157 -242 202 -217 q 61 -276 112 -267 q -40 -285 10 -285 q -97 -284 -62 -285 q -150 -280 -132 -283 l -120 -99 q -104 -100 -113 -100 q -86 -100 -94 -100 q -76 -100 -79 -100 q -3 -87 -37 -100 q 38 -35 32 -74 l 44 0 z "},"Ŋ":{"ha":1013,"x_min":13,"x_max":1041,"o":"m 666 0 l 362 583 l 355 583 l 257 0 l 13 0 l 181 1010 l 391 1010 l 693 428 l 701 428 l 797 1010 l 1041 1010 l 873 0 l 868 -27 q 802 -193 852 -133 q 673 -279 752 -254 q 493 -305 594 -305 q 415 -292 455 -305 l 445 -114 q 484 -121 462 -118 q 528 -123 506 -123 q 617 -100 581 -123 q 661 -32 653 -76 l 666 0 z "},"И":{"ha":1013,"x_min":13,"x_max":1040,"o":"m 180 1010 l 424 1010 l 327 428 l 335 428 l 830 1010 l 1040 1010 l 873 0 l 629 0 l 725 583 l 718 583 l 220 0 l 13 0 l 180 1010 z "},"Ѝ":{"ha":1013,"x_min":13,"x_max":1040,"o":"m 180 1010 l 424 1010 l 327 428 l 335 428 l 830 1010 l 1040 1010 l 873 0 l 629 0 l 725 583 l 718 583 l 220 0 l 13 0 l 180 1010 m 544 1106 l 431 1329 l 645 1329 l 708 1106 l 544 1106 z "},"Й":{"ha":1013,"x_min":13,"x_max":1040,"o":"m 180 1010 l 424 1010 l 327 428 l 335 428 l 830 1010 l 1040 1010 l 873 0 l 629 0 l 725 583 l 718 583 l 220 0 l 13 0 l 180 1010 m 750 1278 l 909 1278 q 815 1129 893 1186 q 618 1073 736 1073 q 439 1129 499 1073 q 395 1278 379 1186 l 552 1278 q 565 1219 547 1246 q 637 1193 583 1193 q 717 1219 690 1193 q 750 1278 744 1245 z "},"Ӣ":{"ha":1013,"x_min":13,"x_max":1040,"o":"m 180 1010 l 424 1010 l 327 428 l 335 428 l 830 1010 l 1040 1010 l 873 0 l 629 0 l 725 583 l 718 583 l 220 0 l 13 0 l 180 1010 m 892 1263 l 873 1143 l 385 1143 l 404 1263 l 892 1263 z "},"Ӥ":{"ha":1013,"x_min":13,"x_max":1040,"o":"m 180 1010 l 424 1010 l 327 428 l 335 428 l 830 1010 l 1040 1010 l 873 0 l 629 0 l 725 583 l 718 583 l 220 0 l 13 0 l 180 1010 m 793 1106 q 710 1142 742 1106 q 687 1228 679 1178 q 727 1294 694 1268 q 801 1321 761 1321 q 883 1285 853 1321 q 905 1199 913 1249 q 867 1133 899 1161 q 793 1106 834 1106 m 485 1106 q 403 1143 434 1106 q 379 1228 371 1179 q 419 1294 386 1268 q 494 1321 453 1321 q 575 1285 545 1321 q 597 1199 605 1249 q 559 1133 591 1161 q 485 1106 526 1106 z "},"Ҋ":{"ha":1013,"x_min":13,"x_max":1077,"o":"m 180 1010 l 424 1010 l 327 428 l 335 428 l 830 1010 l 1040 1010 l 873 0 l 629 0 l 725 583 l 718 583 l 220 0 l 13 0 l 180 1010 m 750 1278 l 909 1278 q 815 1129 893 1186 q 618 1073 736 1073 q 439 1129 499 1073 q 395 1278 379 1186 l 552 1278 q 565 1219 547 1246 q 637 1193 583 1193 q 717 1219 690 1193 q 750 1278 744 1245 m 1077 127 l 1056 1 q 1019 -112 1048 -56 q 950 -217 991 -169 q 862 -298 909 -265 l 756 -239 q 799 -179 776 -210 q 840 -109 821 -148 q 868 -15 859 -70 l 890 127 l 1077 127 z "},"Ͷ":{"ha":1088,"x_min":50,"x_max":1076,"o":"m 217 1010 l 460 1010 l 363 428 l 371 428 l 866 1010 l 1076 1010 l 909 0 l 665 0 l 761 583 l 754 583 l 257 0 l 50 0 l 217 1010 z "},"Ν":{"ha":1013,"x_min":13,"x_max":1041,"o":"m 1041 1010 l 873 0 l 666 0 l 362 583 l 355 583 l 257 0 l 13 0 l 181 1010 l 391 1010 l 693 428 l 701 428 l 797 1010 l 1041 1010 z "},"ǋ":{"ha":1365,"x_min":13,"x_max":1393,"o":"m 1041 1010 l 873 0 l 666 0 l 362 583 l 355 583 l 257 0 l 13 0 l 181 1010 l 391 1010 l 693 428 l 701 428 l 797 1010 l 1041 1010 m 1110 758 l 1351 758 l 1220 -32 q 1102 -228 1196 -172 q 866 -284 1008 -284 q 820 -283 846 -284 l 850 -100 q 879 -102 864 -102 q 951 -83 929 -102 q 980 -27 974 -64 l 1110 758 m 1247 846 q 1163 880 1196 846 q 1138 961 1131 914 q 1187 1043 1146 1009 q 1279 1076 1228 1076 q 1362 1043 1330 1076 q 1386 961 1393 1009 q 1339 880 1380 914 q 1247 846 1298 846 z "},"O":{"ha":1095,"x_min":61,"x_max":1076,"o":"m 1048 489 q 940 214 1021 326 q 744 44 860 102 q 497 -14 629 -14 q 255 48 357 -14 q 107 229 153 110 q 89 518 61 348 q 196 794 115 681 q 393 965 277 907 q 642 1024 509 1024 q 883 961 781 1024 q 1030 779 984 899 q 1048 489 1076 660 m 804 518 q 782 735 827 661 q 633 810 737 810 q 437 726 517 810 q 333 489 358 642 q 355 273 307 345 q 506 200 403 200 q 699 283 620 200 q 804 518 778 365 z "},"Ö":{"ha":1095,"x_min":61,"x_max":1076,"o":"m 1048 489 q 940 214 1021 326 q 744 44 860 102 q 497 -14 629 -14 q 255 48 357 -14 q 107 229 153 110 q 89 518 61 348 q 196 794 115 681 q 393 965 277 907 q 642 1024 509 1024 q 883 961 781 1024 q 1030 779 984 899 q 1048 489 1076 660 m 804 518 q 782 735 827 661 q 633 810 737 810 q 437 726 517 810 q 333 489 358 642 q 355 273 307 345 q 506 200 403 200 q 699 283 620 200 q 804 518 778 365 m 837 1106 q 755 1142 786 1106 q 731 1228 724 1178 q 772 1294 738 1268 q 846 1321 805 1321 q 927 1285 897 1321 q 949 1199 957 1249 q 911 1133 944 1161 q 837 1106 878 1106 m 530 1106 q 447 1143 478 1106 q 424 1228 416 1179 q 464 1294 431 1268 q 538 1321 497 1321 q 619 1285 589 1321 q 641 1199 650 1249 q 603 1133 636 1161 q 530 1106 571 1106 z "},"Õ":{"ha":1095,"x_min":61,"x_max":1076,"o":"m 1048 489 q 940 214 1021 326 q 744 44 860 102 q 497 -14 629 -14 q 255 48 357 -14 q 107 229 153 110 q 89 518 61 348 q 196 794 115 681 q 393 965 277 907 q 642 1024 509 1024 q 883 961 781 1024 q 1030 779 984 899 q 1048 489 1076 660 m 804 518 q 782 735 827 661 q 633 810 737 810 q 437 726 517 810 q 333 489 358 642 q 355 273 307 345 q 506 200 403 200 q 699 283 620 200 q 804 518 778 365 m 532 1109 l 406 1110 q 479 1261 423 1210 q 603 1313 535 1313 q 664 1301 640 1313 q 706 1274 688 1290 q 739 1247 723 1259 q 774 1235 755 1235 q 819 1256 802 1235 q 842 1312 836 1277 l 965 1310 q 891 1159 947 1211 q 767 1107 836 1108 q 706 1118 730 1107 q 666 1145 683 1130 q 634 1172 650 1161 q 598 1184 619 1184 q 556 1164 574 1184 q 532 1109 538 1145 z "},"Ø":{"ha":1096,"x_min":67,"x_max":1070,"o":"m 182 -51 l 88 19 l 171 119 q 90 287 113 187 q 89 517 67 388 q 196 794 115 681 q 393 965 277 907 q 642 1023 509 1023 q 877 964 778 1023 l 956 1059 l 1050 989 l 966 889 q 1047 720 1024 821 q 1048 489 1070 619 q 940 213 1021 326 q 744 43 860 101 q 497 -14 629 -14 q 261 44 361 -14 l 182 -51 m 335 316 l 729 787 q 633 809 690 809 q 437 725 517 809 q 333 489 358 641 q 335 316 315 385 m 804 517 q 800 690 821 621 l 409 221 q 506 200 449 200 q 699 282 620 200 q 804 517 778 365 z "},"Ơ":{"ha":1148,"x_min":61,"x_max":1243,"o":"m 1102 1052 l 1243 1052 q 1174 860 1224 936 q 1037 756 1124 784 q 1058 633 1054 700 q 1048 489 1061 566 q 940 214 1021 326 q 744 44 860 102 q 497 -14 629 -14 q 255 48 357 -14 q 107 229 153 110 q 89 518 61 348 q 196 794 115 681 q 393 965 277 907 q 642 1024 509 1024 q 846 981 756 1024 q 990 858 936 939 q 1064 922 1039 872 q 1102 1052 1089 972 m 804 518 q 782 735 827 661 q 633 810 737 810 q 437 726 517 810 q 333 489 358 642 q 355 273 307 345 q 506 200 403 200 q 699 283 620 200 q 804 518 778 365 z "},"Ò":{"ha":1095,"x_min":61,"x_max":1076,"o":"m 1048 489 q 940 214 1021 326 q 744 44 860 102 q 497 -14 629 -14 q 255 48 357 -14 q 107 229 153 110 q 89 518 61 348 q 196 794 115 681 q 393 965 277 907 q 642 1024 509 1024 q 883 961 781 1024 q 1030 779 984 899 q 1048 489 1076 660 m 804 518 q 782 735 827 661 q 633 810 737 810 q 437 726 517 810 q 333 489 358 642 q 355 273 307 345 q 506 200 403 200 q 699 283 620 200 q 804 518 778 365 m 589 1106 l 476 1329 l 690 1329 l 753 1106 l 589 1106 z "},"Ó":{"ha":1095,"x_min":61,"x_max":1076,"o":"m 1048 489 q 940 214 1021 326 q 744 44 860 102 q 497 -14 629 -14 q 255 48 357 -14 q 107 229 153 110 q 89 518 61 348 q 196 794 115 681 q 393 965 277 907 q 642 1024 509 1024 q 883 961 781 1024 q 1030 779 984 899 q 1048 489 1076 660 m 804 518 q 782 735 827 661 q 633 810 737 810 q 437 726 517 810 q 333 489 358 642 q 355 273 307 345 q 506 200 403 200 q 699 283 620 200 q 804 518 778 365 m 585 1106 l 722 1329 l 936 1329 l 749 1106 l 585 1106 z "},"Ô":{"ha":1095,"x_min":61,"x_max":1076,"o":"m 1048 489 q 940 214 1021 326 q 744 44 860 102 q 497 -14 629 -14 q 255 48 357 -14 q 107 229 153 110 q 89 518 61 348 q 196 794 115 681 q 393 965 277 907 q 642 1024 509 1024 q 883 961 781 1024 q 1030 779 984 899 q 1048 489 1076 660 m 804 518 q 782 735 827 661 q 633 810 737 810 q 437 726 517 810 q 333 489 358 642 q 355 273 307 345 q 506 200 403 200 q 699 283 620 200 q 804 518 778 365 m 570 1101 l 367 1101 l 368 1107 l 619 1328 l 793 1328 l 968 1107 l 967 1101 l 765 1101 l 687 1215 l 570 1101 z "},"Ō":{"ha":1095,"x_min":61,"x_max":1076,"o":"m 1048 489 q 940 214 1021 326 q 744 44 860 102 q 497 -14 629 -14 q 255 48 357 -14 q 107 229 153 110 q 89 518 61 348 q 196 794 115 681 q 393 965 277 907 q 642 1024 509 1024 q 883 961 781 1024 q 1030 779 984 899 q 1048 489 1076 660 m 804 518 q 782 735 827 661 q 633 810 737 810 q 437 726 517 810 q 333 489 358 642 q 355 273 307 345 q 506 200 403 200 q 699 283 620 200 q 804 518 778 365 m 937 1263 l 918 1143 l 430 1143 l 449 1263 l 937 1263 z "},"Ŏ":{"ha":1095,"x_min":61,"x_max":1076,"o":"m 1048 489 q 940 214 1021 326 q 744 44 860 102 q 497 -14 629 -14 q 255 48 357 -14 q 107 229 153 110 q 89 518 61 348 q 196 794 115 681 q 393 965 277 907 q 642 1024 509 1024 q 883 961 781 1024 q 1030 779 984 899 q 1048 489 1076 660 m 804 518 q 782 735 827 661 q 633 810 737 810 q 437 726 517 810 q 333 489 358 642 q 355 273 307 345 q 506 200 403 200 q 699 283 620 200 q 804 518 778 365 m 795 1278 l 954 1278 q 859 1129 938 1186 q 663 1073 781 1073 q 484 1129 544 1073 q 439 1278 424 1186 l 597 1278 q 610 1219 592 1246 q 682 1193 628 1193 q 762 1219 735 1193 q 795 1278 789 1245 z "},"Ő":{"ha":1095,"x_min":61,"x_max":1092,"o":"m 1048 489 q 940 214 1021 326 q 744 44 860 102 q 497 -14 629 -14 q 255 48 357 -14 q 107 229 153 110 q 89 518 61 348 q 196 794 115 681 q 393 965 277 907 q 642 1024 509 1024 q 883 961 781 1024 q 1030 779 984 899 q 1048 489 1076 660 m 804 518 q 782 735 827 661 q 633 810 737 810 q 437 726 517 810 q 333 489 358 642 q 355 273 307 345 q 506 200 403 200 q 699 283 620 200 q 804 518 778 365 m 437 1099 l 610 1302 l 802 1302 l 602 1099 l 437 1099 m 706 1099 l 899 1302 l 1092 1302 l 871 1099 l 706 1099 z "},"Ǒ":{"ha":1095,"x_min":61,"x_max":1076,"o":"m 1048 489 q 940 214 1021 326 q 744 44 860 102 q 497 -14 629 -14 q 255 48 357 -14 q 107 229 153 110 q 89 518 61 348 q 196 794 115 681 q 393 965 277 907 q 642 1024 509 1024 q 883 961 781 1024 q 1030 779 984 899 q 1048 489 1076 660 m 804 518 q 782 735 827 661 q 633 810 737 810 q 437 726 517 810 q 333 489 358 642 q 355 273 307 345 q 506 200 403 200 q 699 283 620 200 q 804 518 778 365 m 607 1328 l 686 1214 l 802 1328 l 1004 1328 l 1003 1322 l 754 1101 l 581 1101 l 403 1322 l 404 1328 l 607 1328 z "},"Ǫ":{"ha":1095,"x_min":61,"x_max":1076,"o":"m 1048 489 q 940 214 1021 326 q 744 44 860 102 q 497 -14 629 -14 q 255 48 357 -14 q 107 229 153 110 q 89 518 61 348 q 196 794 115 681 q 393 965 277 907 q 642 1024 509 1024 q 883 961 781 1024 q 1030 779 984 899 q 1048 489 1076 660 m 804 518 q 782 735 827 661 q 633 810 737 810 q 437 726 517 810 q 333 489 358 642 q 355 273 307 345 q 506 200 403 200 q 699 283 620 200 q 804 518 778 365 m 475 -276 q 369 -242 408 -276 q 324 -145 329 -208 q 334 -62 321 -104 q 374 15 347 -19 q 439 65 401 49 l 619 3 q 539 -36 570 -15 q 503 -90 508 -58 q 540 -141 493 -141 q 567 -137 555 -141 q 589 -131 579 -133 l 597 -246 q 545 -266 577 -256 q 475 -276 514 -276 z "},"Ǭ":{"ha":1095,"x_min":61,"x_max":1076,"o":"m 1048 489 q 940 214 1021 326 q 744 44 860 102 q 497 -14 629 -14 q 255 48 357 -14 q 107 229 153 110 q 89 518 61 348 q 196 794 115 681 q 393 965 277 907 q 642 1024 509 1024 q 883 961 781 1024 q 1030 779 984 899 q 1048 489 1076 660 m 804 518 q 782 735 827 661 q 633 810 737 810 q 437 726 517 810 q 333 489 358 642 q 355 273 307 345 q 506 200 403 200 q 699 283 620 200 q 804 518 778 365 m 475 -276 q 369 -242 408 -276 q 324 -145 329 -208 q 334 -62 321 -104 q 374 15 347 -19 q 439 65 401 49 l 619 3 q 539 -36 570 -15 q 503 -90 508 -58 q 540 -141 493 -141 q 567 -137 555 -141 q 589 -131 579 -133 l 597 -246 q 545 -266 577 -256 q 475 -276 514 -276 m 937 1263 l 918 1143 l 430 1143 l 449 1263 l 937 1263 z "},"Ȍ":{"ha":1095,"x_min":61,"x_max":1076,"o":"m 1048 489 q 940 214 1021 326 q 744 44 860 102 q 497 -14 629 -14 q 255 48 357 -14 q 107 229 153 110 q 89 518 61 348 q 196 794 115 681 q 393 965 277 907 q 642 1024 509 1024 q 883 961 781 1024 q 1030 779 984 899 q 1048 489 1076 660 m 804 518 q 782 735 827 661 q 633 810 737 810 q 437 726 517 810 q 333 489 358 642 q 355 273 307 345 q 506 200 403 200 q 699 283 620 200 q 804 518 778 365 m 610 1106 l 441 1152 l 382 1329 l 585 1283 l 610 1106 m 862 1106 l 705 1152 l 689 1329 l 872 1283 l 862 1106 z "},"Ȏ":{"ha":1095,"x_min":61,"x_max":1076,"o":"m 1048 489 q 940 214 1021 326 q 744 44 860 102 q 497 -14 629 -14 q 255 48 357 -14 q 107 229 153 110 q 89 518 61 348 q 196 794 115 681 q 393 965 277 907 q 642 1024 509 1024 q 883 961 781 1024 q 1030 779 984 899 q 1048 489 1076 660 m 804 518 q 782 735 827 661 q 633 810 737 810 q 437 726 517 810 q 333 489 358 642 q 355 273 307 345 q 506 200 403 200 q 699 283 620 200 q 804 518 778 365 m 415 1130 q 509 1283 430 1223 q 706 1342 587 1342 q 885 1283 824 1342 q 931 1130 946 1223 l 771 1130 q 758 1189 776 1163 q 687 1215 740 1215 q 605 1189 633 1215 q 574 1130 578 1163 l 415 1130 z "},"Ȫ":{"ha":1095,"x_min":61,"x_max":1076,"o":"m 1048 489 q 940 214 1021 326 q 744 44 860 102 q 497 -14 629 -14 q 255 48 357 -14 q 107 229 153 110 q 89 518 61 348 q 196 794 115 681 q 393 965 277 907 q 642 1024 509 1024 q 883 961 781 1024 q 1030 779 984 899 q 1048 489 1076 660 m 804 518 q 782 735 827 661 q 633 810 737 810 q 437 726 517 810 q 333 489 358 642 q 355 273 307 345 q 506 200 403 200 q 699 283 620 200 q 804 518 778 365 m 837 1106 q 755 1142 786 1106 q 731 1228 724 1178 q 772 1294 738 1268 q 846 1321 805 1321 q 927 1285 897 1321 q 949 1199 957 1249 q 911 1133 944 1161 q 837 1106 878 1106 m 530 1106 q 447 1143 478 1106 q 424 1228 416 1179 q 464 1294 431 1268 q 538 1321 497 1321 q 619 1285 589 1321 q 641 1199 650 1249 q 603 1133 636 1161 q 530 1106 571 1106 m 980 1515 l 961 1396 l 472 1396 l 492 1515 l 980 1515 z "},"Ȭ":{"ha":1095,"x_min":61,"x_max":1076,"o":"m 1048 489 q 940 214 1021 326 q 744 44 860 102 q 497 -14 629 -14 q 255 48 357 -14 q 107 229 153 110 q 89 518 61 348 q 196 794 115 681 q 393 965 277 907 q 642 1024 509 1024 q 883 961 781 1024 q 1030 779 984 899 q 1048 489 1076 660 m 804 518 q 782 735 827 661 q 633 810 737 810 q 437 726 517 810 q 333 489 358 642 q 355 273 307 345 q 506 200 403 200 q 699 283 620 200 q 804 518 778 365 m 971 1457 l 950 1338 l 462 1338 l 482 1457 l 971 1457 m 812 1273 l 904 1246 q 856 1161 895 1199 q 766 1124 816 1124 q 705 1134 729 1124 q 658 1156 680 1145 q 606 1167 636 1167 q 573 1150 588 1167 q 553 1109 557 1133 l 465 1136 q 509 1221 472 1184 q 597 1259 547 1259 q 654 1248 628 1259 q 704 1227 679 1237 q 758 1216 729 1216 q 792 1233 775 1216 q 812 1273 809 1249 z "},"Ȯ":{"ha":1095,"x_min":61,"x_max":1076,"o":"m 1048 489 q 940 214 1021 326 q 744 44 860 102 q 497 -14 629 -14 q 255 48 357 -14 q 107 229 153 110 q 89 518 61 348 q 196 794 115 681 q 393 965 277 907 q 642 1024 509 1024 q 883 961 781 1024 q 1030 779 984 899 q 1048 489 1076 660 m 804 518 q 782 735 827 661 q 633 810 737 810 q 437 726 517 810 q 333 489 358 642 q 355 273 307 345 q 506 200 403 200 q 699 283 620 200 q 804 518 778 365 m 670 1098 q 586 1132 618 1098 q 561 1214 554 1166 q 610 1295 569 1262 q 702 1329 651 1329 q 784 1295 753 1329 q 809 1214 816 1262 q 762 1132 803 1166 q 670 1098 721 1098 z "},"Ȱ":{"ha":1095,"x_min":61,"x_max":1076,"o":"m 1048 489 q 940 214 1021 326 q 744 44 860 102 q 497 -14 629 -14 q 255 48 357 -14 q 107 229 153 110 q 89 518 61 348 q 196 794 115 681 q 393 965 277 907 q 642 1024 509 1024 q 883 961 781 1024 q 1030 779 984 899 q 1048 489 1076 660 m 804 518 q 782 735 827 661 q 633 810 737 810 q 437 726 517 810 q 333 489 358 642 q 355 273 307 345 q 506 200 403 200 q 699 283 620 200 q 804 518 778 365 m 980 1515 l 961 1396 l 472 1396 l 492 1515 l 980 1515 m 671 1106 q 595 1138 624 1106 q 572 1213 566 1169 q 616 1290 579 1258 q 700 1321 654 1321 q 775 1290 747 1321 q 798 1213 804 1258 q 755 1138 792 1169 q 671 1106 718 1106 z "},"Ṍ":{"ha":1095,"x_min":61,"x_max":1076,"o":"m 1048 489 q 940 214 1021 326 q 744 44 860 102 q 497 -14 629 -14 q 255 48 357 -14 q 107 229 153 110 q 89 518 61 348 q 196 794 115 681 q 393 965 277 907 q 642 1024 509 1024 q 883 961 781 1024 q 1030 779 984 899 q 1048 489 1076 660 m 804 518 q 782 735 827 661 q 633 810 737 810 q 437 726 517 810 q 333 489 358 642 q 355 273 307 345 q 506 200 403 200 q 699 283 620 200 q 804 518 778 365 m 532 1093 l 414 1094 q 482 1232 430 1185 q 600 1278 535 1278 q 672 1261 646 1278 q 718 1226 699 1243 q 763 1208 737 1208 q 805 1227 789 1208 q 827 1278 821 1246 l 943 1276 q 873 1139 926 1186 q 756 1091 820 1092 q 698 1102 720 1091 q 660 1126 675 1112 q 630 1150 644 1140 q 595 1161 615 1161 q 532 1093 544 1161 m 606 1334 l 768 1516 l 974 1516 l 773 1334 l 606 1334 z "},"Ṏ":{"ha":1095,"x_min":61,"x_max":1076,"o":"m 1048 489 q 940 214 1021 326 q 744 44 860 102 q 497 -14 629 -14 q 255 48 357 -14 q 107 229 153 110 q 89 518 61 348 q 196 794 115 681 q 393 965 277 907 q 642 1024 509 1024 q 883 961 781 1024 q 1030 779 984 899 q 1048 489 1076 660 m 804 518 q 782 735 827 661 q 633 810 737 810 q 437 726 517 810 q 333 489 358 642 q 355 273 307 345 q 506 200 403 200 q 699 283 620 200 q 804 518 778 365 m 808 1258 l 900 1231 q 851 1145 890 1181 q 763 1108 812 1108 q 702 1119 726 1108 q 655 1140 677 1129 q 603 1151 633 1151 q 570 1134 585 1151 q 550 1093 554 1118 l 462 1120 q 506 1206 469 1168 q 594 1243 544 1243 q 651 1233 625 1243 q 701 1211 676 1222 q 755 1200 727 1200 q 788 1217 772 1200 q 808 1258 804 1234 m 465 1380 q 502 1439 471 1415 q 578 1463 534 1463 q 647 1439 622 1463 q 667 1380 672 1415 q 628 1322 660 1345 q 550 1299 596 1299 q 483 1322 507 1299 q 465 1380 459 1345 m 761 1380 q 799 1439 766 1415 q 875 1463 831 1463 q 944 1439 919 1463 q 962 1380 968 1415 q 924 1322 956 1345 q 848 1299 892 1299 q 779 1322 803 1299 q 761 1380 755 1345 z "},"Ṑ":{"ha":1095,"x_min":61,"x_max":1076,"o":"m 1048 489 q 940 214 1021 326 q 744 44 860 102 q 497 -14 629 -14 q 255 48 357 -14 q 107 229 153 110 q 89 518 61 348 q 196 794 115 681 q 393 965 277 907 q 642 1024 509 1024 q 883 961 781 1024 q 1030 779 984 899 q 1048 489 1076 660 m 804 518 q 782 735 827 661 q 633 810 737 810 q 437 726 517 810 q 333 489 358 642 q 355 273 307 345 q 506 200 403 200 q 699 283 620 200 q 804 518 778 365 m 933 1241 l 914 1122 l 426 1122 l 445 1241 l 933 1241 m 629 1331 l 489 1513 l 695 1513 l 799 1331 l 629 1331 z "},"Ṓ":{"ha":1095,"x_min":61,"x_max":1076,"o":"m 1048 489 q 940 214 1021 326 q 744 44 860 102 q 497 -14 629 -14 q 255 48 357 -14 q 107 229 153 110 q 89 518 61 348 q 196 794 115 681 q 393 965 277 907 q 642 1024 509 1024 q 883 961 781 1024 q 1030 779 984 899 q 1048 489 1076 660 m 804 518 q 782 735 827 661 q 633 810 737 810 q 437 726 517 810 q 333 489 358 642 q 355 273 307 345 q 506 200 403 200 q 699 283 620 200 q 804 518 778 365 m 931 1241 l 912 1122 l 423 1122 l 442 1241 l 931 1241 m 611 1331 l 775 1513 l 982 1513 l 781 1331 l 611 1331 z "},"Ọ":{"ha":1095,"x_min":61,"x_max":1076,"o":"m 1048 489 q 940 214 1021 326 q 744 44 860 102 q 497 -14 629 -14 q 255 48 357 -14 q 107 229 153 110 q 89 518 61 348 q 196 794 115 681 q 393 965 277 907 q 642 1024 509 1024 q 883 961 781 1024 q 1030 779 984 899 q 1048 489 1076 660 m 804 518 q 782 735 827 661 q 633 810 737 810 q 437 726 517 810 q 333 489 358 642 q 355 273 307 345 q 506 200 403 200 q 699 283 620 200 q 804 518 778 365 m 442 -293 q 359 -259 391 -293 q 334 -178 327 -225 q 382 -97 341 -130 q 474 -63 424 -63 q 557 -97 526 -63 q 582 -178 588 -130 q 535 -259 576 -225 q 442 -293 494 -293 z "},"Ỏ":{"ha":1095,"x_min":61,"x_max":1076,"o":"m 1048 489 q 940 214 1021 326 q 744 44 860 102 q 497 -14 629 -14 q 255 48 357 -14 q 107 229 153 110 q 89 518 61 348 q 196 794 115 681 q 393 965 277 907 q 642 1024 509 1024 q 883 961 781 1024 q 1030 779 984 899 q 1048 489 1076 660 m 804 518 q 782 735 827 661 q 633 810 737 810 q 437 726 517 810 q 333 489 358 642 q 355 273 307 345 q 506 200 403 200 q 699 283 620 200 q 804 518 778 365 m 757 1121 l 581 1121 l 581 1203 q 657 1217 633 1205 q 683 1246 682 1229 q 662 1281 688 1273 q 595 1290 637 1290 l 618 1392 q 828 1356 760 1392 q 885 1257 896 1321 q 842 1191 878 1213 q 763 1162 805 1168 l 757 1121 z "},"Ố":{"ha":1095,"x_min":61,"x_max":1204,"o":"m 1048 489 q 940 214 1021 326 q 744 44 860 102 q 497 -14 629 -14 q 255 48 357 -14 q 107 229 153 110 q 89 518 61 348 q 196 794 115 681 q 393 965 277 907 q 642 1024 509 1024 q 883 961 781 1024 q 1030 779 984 899 q 1048 489 1076 660 m 804 518 q 782 735 827 661 q 633 810 737 810 q 437 726 517 810 q 333 489 358 642 q 355 273 307 345 q 506 200 403 200 q 699 283 620 200 q 804 518 778 365 m 407 1085 l 630 1229 l 745 1229 l 920 1085 l 765 1085 l 676 1161 l 561 1085 l 407 1085 m 881 1161 l 1034 1347 l 1204 1347 l 1006 1161 l 881 1161 z "},"Ồ":{"ha":1095,"x_min":61,"x_max":1076,"o":"m 1048 489 q 940 214 1021 326 q 744 44 860 102 q 497 -14 629 -14 q 255 48 357 -14 q 107 229 153 110 q 89 518 61 348 q 196 794 115 681 q 393 965 277 907 q 642 1024 509 1024 q 883 961 781 1024 q 1030 779 984 899 q 1048 489 1076 660 m 804 518 q 782 735 827 661 q 633 810 737 810 q 437 726 517 810 q 333 489 358 642 q 355 273 307 345 q 506 200 403 200 q 699 283 620 200 q 804 518 778 365 m 746 1230 l 922 1086 l 767 1086 l 679 1162 l 563 1086 l 410 1086 l 631 1230 l 746 1230 m 382 1347 l 473 1162 l 351 1162 l 215 1347 l 382 1347 z "},"Ổ":{"ha":1095,"x_min":61,"x_max":1100,"o":"m 1048 489 q 940 214 1021 326 q 744 44 860 102 q 497 -14 629 -14 q 255 48 357 -14 q 107 229 153 110 q 89 518 61 348 q 196 794 115 681 q 393 965 277 907 q 642 1024 509 1024 q 883 961 781 1024 q 1030 779 984 899 q 1048 489 1076 660 m 804 518 q 782 735 827 661 q 633 810 737 810 q 437 726 517 810 q 333 489 358 642 q 355 273 307 345 q 506 200 403 200 q 699 283 620 200 q 804 518 778 365 m 745 1231 l 917 1087 l 765 1087 l 676 1160 l 560 1087 l 408 1087 l 630 1231 l 745 1231 m 984 1170 l 867 1170 l 865 1239 q 952 1274 947 1242 q 934 1304 956 1297 q 876 1311 911 1311 l 897 1395 q 1051 1366 1001 1395 q 1091 1283 1100 1337 q 1054 1229 1085 1248 q 990 1203 1023 1209 l 984 1170 z "},"Ỗ":{"ha":1095,"x_min":61,"x_max":1076,"o":"m 1048 489 q 940 214 1021 326 q 744 44 860 102 q 497 -14 629 -14 q 255 48 357 -14 q 107 229 153 110 q 89 518 61 348 q 196 794 115 681 q 393 965 277 907 q 642 1024 509 1024 q 883 961 781 1024 q 1030 779 984 899 q 1048 489 1076 660 m 804 518 q 782 735 827 661 q 633 810 737 810 q 437 726 517 810 q 333 489 358 642 q 355 273 307 345 q 506 200 403 200 q 699 283 620 200 q 804 518 778 365 m 749 1235 l 921 1089 l 769 1089 l 678 1164 l 564 1089 l 409 1089 l 631 1235 l 749 1235 m 820 1401 l 894 1373 q 859 1299 888 1333 q 789 1266 830 1266 q 735 1277 759 1266 q 690 1298 712 1287 q 645 1308 669 1308 q 620 1295 630 1308 q 609 1263 611 1281 l 535 1284 q 569 1355 541 1322 q 640 1388 598 1388 q 688 1378 664 1388 q 736 1358 712 1368 q 784 1347 761 1347 q 807 1365 797 1347 q 820 1401 817 1382 z "},"Ộ":{"ha":1095,"x_min":61,"x_max":1076,"o":"m 1048 489 q 940 214 1021 326 q 744 44 860 102 q 497 -14 629 -14 q 255 48 357 -14 q 107 229 153 110 q 89 518 61 348 q 196 794 115 681 q 393 965 277 907 q 642 1024 509 1024 q 883 961 781 1024 q 1030 779 984 899 q 1048 489 1076 660 m 804 518 q 782 735 827 661 q 633 810 737 810 q 437 726 517 810 q 333 489 358 642 q 355 273 307 345 q 506 200 403 200 q 699 283 620 200 q 804 518 778 365 m 570 1101 l 367 1101 l 368 1107 l 619 1328 l 793 1328 l 968 1107 l 967 1101 l 765 1101 l 687 1215 l 570 1101 m 442 -293 q 359 -259 391 -293 q 334 -178 327 -225 q 382 -97 341 -130 q 474 -63 424 -63 q 557 -97 526 -63 q 582 -178 588 -130 q 535 -259 576 -225 q 442 -293 494 -293 z "},"Ớ":{"ha":1148,"x_min":61,"x_max":1243,"o":"m 1102 1052 l 1243 1052 q 1174 860 1224 936 q 1037 756 1124 784 q 1058 633 1054 700 q 1048 489 1061 566 q 940 214 1021 326 q 744 44 860 102 q 497 -14 629 -14 q 255 48 357 -14 q 107 229 153 110 q 89 518 61 348 q 196 794 115 681 q 393 965 277 907 q 642 1024 509 1024 q 846 981 756 1024 q 990 858 936 939 q 1064 922 1039 872 q 1102 1052 1089 972 m 804 518 q 782 735 827 661 q 633 810 737 810 q 437 726 517 810 q 333 489 358 642 q 355 273 307 345 q 506 200 403 200 q 699 283 620 200 q 804 518 778 365 m 585 1106 l 722 1329 l 936 1329 l 749 1106 l 585 1106 z "},"Ờ":{"ha":1148,"x_min":61,"x_max":1243,"o":"m 1102 1052 l 1243 1052 q 1174 860 1224 936 q 1037 756 1124 784 q 1058 633 1054 700 q 1048 489 1061 566 q 940 214 1021 326 q 744 44 860 102 q 497 -14 629 -14 q 255 48 357 -14 q 107 229 153 110 q 89 518 61 348 q 196 794 115 681 q 393 965 277 907 q 642 1024 509 1024 q 846 981 756 1024 q 990 858 936 939 q 1064 922 1039 872 q 1102 1052 1089 972 m 804 518 q 782 735 827 661 q 633 810 737 810 q 437 726 517 810 q 333 489 358 642 q 355 273 307 345 q 506 200 403 200 q 699 283 620 200 q 804 518 778 365 m 589 1106 l 476 1329 l 690 1329 l 753 1106 l 589 1106 z "},"Ở":{"ha":1148,"x_min":61,"x_max":1243,"o":"m 1102 1052 l 1243 1052 q 1174 860 1224 936 q 1037 756 1124 784 q 1058 633 1054 700 q 1048 489 1061 566 q 940 214 1021 326 q 744 44 860 102 q 497 -14 629 -14 q 255 48 357 -14 q 107 229 153 110 q 89 518 61 348 q 196 794 115 681 q 393 965 277 907 q 642 1024 509 1024 q 846 981 756 1024 q 990 858 936 939 q 1064 922 1039 872 q 1102 1052 1089 972 m 804 518 q 782 735 827 661 q 633 810 737 810 q 437 726 517 810 q 333 489 358 642 q 355 273 307 345 q 506 200 403 200 q 699 283 620 200 q 804 518 778 365 m 757 1121 l 581 1121 l 581 1203 q 657 1217 633 1205 q 683 1246 682 1229 q 662 1281 688 1273 q 595 1290 637 1290 l 618 1392 q 828 1356 760 1392 q 885 1257 896 1321 q 842 1191 878 1213 q 763 1162 805 1168 l 757 1121 z "},"Ỡ":{"ha":1148,"x_min":61,"x_max":1243,"o":"m 1102 1052 l 1243 1052 q 1174 860 1224 936 q 1037 756 1124 784 q 1058 633 1054 700 q 1048 489 1061 566 q 940 214 1021 326 q 744 44 860 102 q 497 -14 629 -14 q 255 48 357 -14 q 107 229 153 110 q 89 518 61 348 q 196 794 115 681 q 393 965 277 907 q 642 1024 509 1024 q 846 981 756 1024 q 990 858 936 939 q 1064 922 1039 872 q 1102 1052 1089 972 m 804 518 q 782 735 827 661 q 633 810 737 810 q 437 726 517 810 q 333 489 358 642 q 355 273 307 345 q 506 200 403 200 q 699 283 620 200 q 804 518 778 365 m 532 1104 l 406 1105 q 479 1256 423 1205 q 603 1308 535 1308 q 664 1296 640 1308 q 706 1269 688 1285 q 739 1242 723 1254 q 774 1231 755 1231 q 819 1252 802 1231 q 842 1307 836 1272 l 965 1306 q 891 1154 947 1206 q 767 1102 836 1103 q 706 1113 730 1102 q 666 1140 683 1125 q 634 1167 650 1156 q 598 1179 619 1179 q 556 1159 574 1179 q 532 1104 538 1140 z "},"Ợ":{"ha":1148,"x_min":61,"x_max":1243,"o":"m 1102 1052 l 1243 1052 q 1174 860 1224 936 q 1037 756 1124 784 q 1058 633 1054 700 q 1048 489 1061 566 q 940 214 1021 326 q 744 44 860 102 q 497 -14 629 -14 q 255 48 357 -14 q 107 229 153 110 q 89 518 61 348 q 196 794 115 681 q 393 965 277 907 q 642 1024 509 1024 q 846 981 756 1024 q 990 858 936 939 q 1064 922 1039 872 q 1102 1052 1089 972 m 804 518 q 782 735 827 661 q 633 810 737 810 q 437 726 517 810 q 333 489 358 642 q 355 273 307 345 q 506 200 403 200 q 699 283 620 200 q 804 518 778 365 m 442 -293 q 359 -259 391 -293 q 334 -178 327 -225 q 382 -97 341 -130 q 474 -63 424 -63 q 557 -97 526 -63 q 582 -178 588 -130 q 535 -259 576 -225 q 442 -293 494 -293 z "},"Ǿ":{"ha":1096,"x_min":67,"x_max":1070,"o":"m 182 -51 l 88 19 l 171 119 q 90 287 113 187 q 89 517 67 388 q 196 794 115 681 q 393 965 277 907 q 642 1023 509 1023 q 877 964 778 1023 l 956 1059 l 1050 989 l 966 889 q 1047 720 1024 821 q 1048 489 1070 619 q 940 213 1021 326 q 744 43 860 101 q 497 -14 629 -14 q 261 44 361 -14 l 182 -51 m 335 316 l 729 787 q 633 809 690 809 q 437 725 517 809 q 333 489 358 641 q 335 316 315 385 m 804 517 q 800 690 821 621 l 409 221 q 506 200 449 200 q 699 282 620 200 q 804 517 778 365 m 585 1106 l 722 1328 l 936 1328 l 749 1106 l 585 1106 z "},"Ο":{"ha":1095,"x_min":61,"x_max":1076,"o":"m 1048 489 q 940 214 1021 326 q 744 44 860 102 q 497 -14 629 -14 q 255 48 357 -14 q 107 229 153 110 q 89 518 61 348 q 196 794 115 681 q 393 965 277 907 q 642 1024 509 1024 q 883 961 781 1024 q 1030 779 984 899 q 1048 489 1076 660 m 804 518 q 782 735 827 661 q 633 810 737 810 q 437 726 517 810 q 333 489 358 642 q 355 273 307 345 q 506 200 403 200 q 699 283 620 200 q 804 518 778 365 z "},"Ό":{"ha":1135,"x_min":61,"x_max":1162,"o":"m 1134 489 q 1026 214 1107 326 q 830 44 945 102 q 582 -14 715 -14 q 341 48 443 -14 q 193 229 239 110 q 175 518 146 348 q 282 794 201 681 q 479 965 363 907 q 728 1024 595 1024 q 969 961 867 1024 q 1116 779 1070 899 q 1134 489 1162 660 m 890 518 q 868 735 913 661 q 719 810 823 810 q 523 726 603 810 q 419 489 443 642 q 441 273 393 345 q 591 200 489 200 q 785 283 706 200 q 890 518 864 365 m 61 850 l 159 1086 l 367 1086 l 199 850 l 61 850 z "},"Ὀ":{"ha":1143,"x_min":63,"x_max":1170,"o":"m 1142 489 q 1034 214 1115 326 q 838 44 953 102 q 590 -14 723 -14 q 349 48 451 -14 q 200 229 247 110 q 182 518 154 348 q 290 794 209 681 q 487 965 370 907 q 736 1024 603 1024 q 977 961 875 1024 q 1124 779 1078 899 q 1142 489 1170 660 m 898 518 q 876 735 921 661 q 727 810 831 810 q 531 726 611 810 q 427 489 451 642 q 449 273 401 345 q 599 200 497 200 q 793 283 714 200 q 898 518 872 365 m 263 1010 l 252 942 q 202 832 242 877 q 112 765 162 786 l 63 834 q 114 880 98 852 q 136 946 130 909 l 145 1010 l 263 1010 z "},"Ὁ":{"ha":1193,"x_min":145,"x_max":1220,"o":"m 1192 489 q 1084 214 1164 326 q 888 44 1003 102 q 640 -14 772 -14 q 399 48 501 -14 q 250 229 296 110 q 232 518 204 348 q 340 794 259 681 q 536 965 420 907 q 786 1024 653 1024 q 1026 961 925 1024 q 1174 779 1128 899 q 1192 489 1220 660 m 947 518 q 926 735 971 661 q 776 810 880 810 q 581 726 660 810 q 476 489 501 642 q 499 273 451 345 q 649 200 546 200 q 843 283 763 200 q 947 518 922 365 m 154 942 l 165 1010 l 285 1010 l 273 946 q 274 884 269 915 q 308 834 279 853 l 236 765 q 169 832 194 786 q 154 942 145 877 z "},"Ὂ":{"ha":1381,"x_min":63,"x_max":1408,"o":"m 1380 489 q 1272 214 1353 326 q 1076 44 1192 102 q 829 -14 961 -14 q 587 48 689 -14 q 439 229 485 110 q 421 518 393 348 q 528 794 447 681 q 725 965 609 907 q 974 1024 841 1024 q 1215 961 1113 1024 q 1362 779 1316 899 q 1380 489 1408 660 m 1136 518 q 1114 735 1159 661 q 965 810 1069 810 q 769 726 849 810 q 665 489 690 642 q 687 273 639 345 q 837 200 735 200 q 1031 283 952 200 q 1136 518 1110 365 m 282 1010 l 274 955 q 221 847 264 896 q 112 765 178 798 l 63 807 q 118 874 97 838 q 145 959 139 911 l 153 1010 l 282 1010 m 507 791 l 505 781 l 438 781 l 312 996 l 314 1010 l 462 1010 l 507 791 z "},"Ὃ":{"ha":1341,"x_min":72,"x_max":1367,"o":"m 1339 489 q 1231 214 1312 326 q 1035 44 1151 102 q 788 -14 920 -14 q 546 48 648 -14 q 398 229 444 110 q 380 518 352 348 q 487 794 406 681 q 684 965 568 907 q 933 1024 800 1024 q 1174 961 1072 1024 q 1321 779 1275 899 q 1339 489 1367 660 m 1095 518 q 1073 735 1118 661 q 924 810 1028 810 q 728 726 808 810 q 624 489 649 642 q 646 273 598 345 q 797 200 694 200 q 990 283 911 200 q 1095 518 1069 365 m 82 942 l 94 1010 l 215 1010 l 203 946 q 202 884 197 915 q 239 834 207 853 l 167 765 q 96 832 121 786 q 82 942 72 877 m 465 798 l 463 780 l 397 780 l 270 996 l 272 1010 l 423 1010 l 465 798 z "},"Ὄ":{"ha":1290,"x_min":68,"x_max":1317,"o":"m 1289 489 q 1181 214 1262 326 q 985 44 1100 102 q 737 -14 870 -14 q 496 48 598 -14 q 347 229 394 110 q 329 518 301 348 q 437 794 356 681 q 634 965 517 907 q 883 1024 750 1024 q 1124 961 1022 1024 q 1271 779 1225 899 q 1289 489 1317 660 m 1045 518 q 1023 735 1068 661 q 873 810 978 810 q 678 726 758 810 q 574 489 598 642 q 596 273 548 345 q 746 200 644 200 q 940 283 861 200 q 1045 518 1019 365 m 271 1010 l 259 942 q 207 832 249 878 q 114 765 166 786 l 68 834 q 119 884 106 853 q 139 946 133 915 l 150 1010 l 271 1010 m 257 780 l 259 798 l 375 1010 l 523 1010 l 521 996 l 324 780 l 257 780 z "},"Ὅ":{"ha":1304,"x_min":73,"x_max":1330,"o":"m 1302 489 q 1194 214 1275 326 q 998 44 1114 102 q 751 -14 883 -14 q 509 48 611 -14 q 361 229 407 110 q 343 518 315 348 q 450 794 369 681 q 647 965 531 907 q 896 1024 763 1024 q 1137 961 1035 1024 q 1284 779 1238 899 q 1302 489 1330 660 m 1058 518 q 1036 735 1081 661 q 887 810 991 810 q 691 726 771 810 q 587 489 612 642 q 609 273 561 345 q 760 200 657 200 q 953 283 874 200 q 1058 518 1032 365 m 165 765 q 99 830 125 785 q 83 942 73 875 l 95 1010 l 214 1010 l 203 946 q 203 880 198 909 q 237 834 209 852 l 165 765 m 272 780 l 274 798 l 386 1010 l 536 1010 l 534 996 l 335 780 l 272 780 z "},"Ὸ":{"ha":1179,"x_min":97,"x_max":1205,"o":"m 1177 489 q 1070 214 1150 326 q 873 44 989 102 q 626 -14 758 -14 q 384 48 486 -14 q 236 229 282 110 q 218 518 190 348 q 325 794 245 681 q 522 965 406 907 q 771 1024 638 1024 q 1012 961 910 1024 q 1160 779 1114 899 q 1177 489 1205 660 m 933 518 q 911 735 956 661 q 762 810 866 810 q 566 726 646 810 q 462 489 487 642 q 484 273 436 345 q 635 200 532 200 q 828 283 749 200 q 933 518 908 365 m 223 779 l 97 996 l 97 1010 l 247 1010 l 290 800 l 290 779 l 223 779 z "},"ϴ":{"ha":1095,"x_min":61,"x_max":1076,"o":"m 1048 489 q 940 214 1021 326 q 744 44 860 102 q 497 -14 629 -14 q 255 48 357 -14 q 107 229 153 110 q 89 518 61 348 q 196 794 115 681 q 393 965 277 907 q 642 1024 509 1024 q 883 961 781 1024 q 1030 779 984 899 q 1048 489 1076 660 m 506 200 q 674 260 602 200 q 783 431 747 320 l 326 431 q 365 258 317 316 q 506 200 414 200 m 811 579 q 771 751 817 692 q 633 810 725 810 q 463 750 535 810 q 354 579 390 690 l 811 579 z "},"Ό":{"ha":1085,"x_min":94,"x_max":1110,"o":"m 1082 489 q 974 214 1054 326 q 778 44 893 102 q 530 -14 662 -14 q 289 48 391 -14 q 140 229 186 110 q 122 518 94 348 q 230 794 149 681 q 426 965 310 907 q 676 1024 543 1024 q 916 961 815 1024 q 1064 779 1018 899 q 1082 489 1110 660 m 837 518 q 816 735 861 661 q 666 810 770 810 q 471 726 550 810 q 366 489 391 642 q 389 273 341 345 q 539 200 436 200 q 733 283 654 200 q 837 518 812 365 m 102 852 l 105 873 l 218 1083 l 421 1083 l 419 1069 l 220 852 l 102 852 z "},"О":{"ha":1095,"x_min":61,"x_max":1076,"o":"m 1048 489 q 940 214 1021 326 q 744 44 860 102 q 497 -14 629 -14 q 255 48 357 -14 q 107 229 153 110 q 89 518 61 348 q 196 794 115 681 q 393 965 277 907 q 642 1024 509 1024 q 883 961 781 1024 q 1030 779 984 899 q 1048 489 1076 660 m 804 518 q 782 735 827 661 q 633 810 737 810 q 437 726 517 810 q 333 489 358 642 q 355 273 307 345 q 506 200 403 200 q 699 283 620 200 q 804 518 778 365 z "},"Ӧ":{"ha":1095,"x_min":61,"x_max":1076,"o":"m 1048 489 q 940 214 1021 326 q 744 44 860 102 q 497 -14 629 -14 q 255 48 357 -14 q 107 229 153 110 q 89 518 61 348 q 196 794 115 681 q 393 965 277 907 q 642 1024 509 1024 q 883 961 781 1024 q 1030 779 984 899 q 1048 489 1076 660 m 804 518 q 782 735 827 661 q 633 810 737 810 q 437 726 517 810 q 333 489 358 642 q 355 273 307 345 q 506 200 403 200 q 699 283 620 200 q 804 518 778 365 m 837 1106 q 755 1142 786 1106 q 731 1228 724 1178 q 772 1294 738 1268 q 846 1321 805 1321 q 927 1285 897 1321 q 949 1199 957 1249 q 911 1133 944 1161 q 837 1106 878 1106 m 530 1106 q 447 1143 478 1106 q 424 1228 416 1179 q 464 1294 431 1268 q 538 1321 497 1321 q 619 1285 589 1321 q 641 1199 650 1249 q 603 1133 636 1161 q 530 1106 571 1106 z "},"Ɵ":{"ha":1095,"x_min":61,"x_max":1076,"o":"m 1048 489 q 940 214 1021 326 q 744 44 860 102 q 497 -14 629 -14 q 255 48 357 -14 q 107 229 153 110 q 89 518 61 348 q 196 794 115 681 q 393 965 277 907 q 642 1024 509 1024 q 883 961 781 1024 q 1030 779 984 899 q 1048 489 1076 660 m 506 200 q 674 260 602 200 q 783 431 747 320 l 326 431 q 365 258 317 316 q 506 200 414 200 m 811 579 q 771 751 817 692 q 633 810 725 810 q 463 750 535 810 q 354 579 390 690 l 811 579 z "},"Ө":{"ha":1095,"x_min":61,"x_max":1076,"o":"m 1048 489 q 940 214 1021 326 q 744 44 860 102 q 497 -14 629 -14 q 255 48 357 -14 q 107 229 153 110 q 89 518 61 348 q 196 794 115 681 q 393 965 277 907 q 642 1024 509 1024 q 883 961 781 1024 q 1030 779 984 899 q 1048 489 1076 660 m 506 200 q 674 260 602 200 q 783 431 747 320 l 326 431 q 365 258 317 316 q 506 200 414 200 m 811 579 q 771 751 817 692 q 633 810 725 810 q 463 750 535 810 q 354 579 390 690 l 811 579 z "},"Ӫ":{"ha":1095,"x_min":61,"x_max":1076,"o":"m 1048 489 q 940 214 1021 326 q 744 44 860 102 q 497 -14 629 -14 q 255 48 357 -14 q 107 229 153 110 q 89 518 61 348 q 196 794 115 681 q 393 965 277 907 q 642 1024 509 1024 q 883 961 781 1024 q 1030 779 984 899 q 1048 489 1076 660 m 506 200 q 674 260 602 200 q 783 431 747 320 l 326 431 q 365 258 317 316 q 506 200 414 200 m 811 579 q 771 751 817 692 q 633 810 725 810 q 463 750 535 810 q 354 579 390 690 l 811 579 m 837 1106 q 755 1142 786 1106 q 731 1228 724 1178 q 772 1294 738 1268 q 846 1321 805 1321 q 927 1285 897 1321 q 949 1199 957 1249 q 911 1133 944 1161 q 837 1106 878 1106 m 530 1106 q 447 1143 478 1106 q 424 1228 416 1179 q 464 1294 431 1268 q 538 1321 497 1321 q 619 1285 589 1321 q 641 1199 650 1249 q 603 1133 636 1161 q 530 1106 571 1106 z "},"Œ":{"ha":1444,"x_min":59,"x_max":1473,"o":"m 467 0 q 240 56 335 0 q 102 224 145 112 q 87 504 59 336 q 194 785 114 672 q 389 954 274 897 q 634 1010 503 1010 l 1473 1010 l 1439 812 l 979 812 l 945 605 l 1370 605 l 1336 406 l 912 406 l 878 198 l 1339 198 l 1305 0 l 467 0 m 634 198 l 735 812 l 601 812 q 433 742 506 812 q 333 504 361 672 q 331 324 314 391 q 393 228 348 257 q 501 198 437 198 l 634 198 z "},"P":{"ha":905,"x_min":13,"x_max":926,"o":"m 13 0 l 181 1010 l 598 1010 q 787 966 712 1010 q 894 843 863 922 q 908 660 926 764 q 833 477 892 555 q 683 357 774 400 q 474 314 591 314 l 310 314 l 257 0 l 13 0 m 342 506 l 462 506 q 595 548 545 506 q 656 660 645 590 q 632 772 667 731 q 513 813 596 813 l 393 813 l 342 506 z "},"Ṕ":{"ha":905,"x_min":13,"x_max":926,"o":"m 13 0 l 181 1010 l 598 1010 q 787 966 712 1010 q 894 843 863 922 q 908 660 926 764 q 833 477 892 555 q 683 357 774 400 q 474 314 591 314 l 310 314 l 257 0 l 13 0 m 342 506 l 462 506 q 595 548 545 506 q 656 660 645 590 q 632 772 667 731 q 513 813 596 813 l 393 813 l 342 506 m 482 1106 l 619 1329 l 833 1329 l 646 1106 l 482 1106 z "},"Ṗ":{"ha":905,"x_min":13,"x_max":926,"o":"m 13 0 l 181 1010 l 598 1010 q 787 966 712 1010 q 894 843 863 922 q 908 660 926 764 q 833 477 892 555 q 683 357 774 400 q 474 314 591 314 l 310 314 l 257 0 l 13 0 m 342 506 l 462 506 q 595 548 545 506 q 656 660 645 590 q 632 772 667 731 q 513 813 596 813 l 393 813 l 342 506 m 567 1098 q 484 1132 516 1098 q 459 1214 452 1166 q 507 1295 466 1262 q 599 1329 548 1329 q 682 1295 651 1329 q 707 1214 713 1262 q 659 1132 700 1166 q 567 1098 618 1098 z "},"Ҏ":{"ha":929,"x_min":18,"x_max":931,"o":"m 18 0 l 186 1010 l 603 1010 q 792 966 717 1010 q 899 843 868 922 q 913 660 931 764 q 846 488 898 562 q 713 369 794 413 l 775 258 l 681 200 l 609 329 q 479 314 547 314 l 315 314 l 262 0 l 18 0 m 545 668 l 608 556 q 661 660 650 596 q 636 772 672 731 q 518 813 601 813 l 398 813 l 347 506 l 467 506 q 508 509 488 506 l 451 611 l 545 668 z "},"Ƥ":{"ha":1216,"x_min":84,"x_max":1236,"o":"m 299 620 l 84 620 l 102 730 q 221 936 123 861 q 466 1010 319 1010 l 909 1010 q 1098 966 1023 1010 q 1205 843 1173 922 q 1219 660 1236 764 q 1144 477 1202 555 q 994 357 1085 400 q 785 314 902 314 l 620 314 l 568 0 l 324 0 l 459 813 l 435 813 q 367 794 393 813 q 328 745 341 775 q 310 686 315 716 l 299 620 m 653 506 l 772 506 q 906 548 856 506 q 967 660 955 590 q 942 772 978 731 q 824 813 907 813 l 704 813 l 653 506 z "},"Ρ":{"ha":905,"x_min":13,"x_max":926,"o":"m 13 0 l 181 1010 l 598 1010 q 787 966 712 1010 q 894 843 863 922 q 908 660 926 764 q 833 477 892 555 q 683 357 774 400 q 474 314 591 314 l 310 314 l 257 0 l 13 0 m 342 506 l 462 506 q 595 548 545 506 q 656 660 645 590 q 632 772 667 731 q 513 813 596 813 l 393 813 l 342 506 z "},"Ῥ":{"ha":1135,"x_min":152,"x_max":1133,"o":"m 221 0 l 389 1010 l 806 1010 q 995 966 920 1010 q 1102 843 1070 922 q 1116 660 1133 764 q 1041 477 1099 555 q 890 357 982 400 q 682 314 799 314 l 517 314 l 465 0 l 221 0 m 549 506 l 669 506 q 803 548 753 506 q 864 660 852 590 q 839 772 875 731 q 721 813 803 813 l 601 813 l 549 506 m 162 942 l 173 1010 l 292 1010 l 281 946 q 282 884 277 915 q 316 834 287 853 l 244 765 q 177 832 202 786 q 162 942 152 877 z "},"Q":{"ha":1099,"x_min":61,"x_max":1076,"o":"m 1048 489 q 970 263 1026 360 q 835 102 914 166 l 958 -79 l 737 -79 l 672 14 q 497 -14 588 -14 q 255 48 357 -14 q 107 229 153 110 q 89 518 61 348 q 196 794 115 681 q 393 965 277 907 q 642 1024 509 1024 q 883 961 781 1024 q 1030 779 984 899 q 1048 489 1076 660 m 457 363 l 654 363 l 704 289 q 804 518 779 372 q 782 735 827 661 q 633 810 737 810 q 437 726 517 810 q 333 489 358 642 q 355 273 307 345 q 506 200 403 200 q 556 205 531 200 l 457 363 z "},"R":{"ha":930,"x_min":13,"x_max":937,"o":"m 13 0 l 181 1010 l 598 1010 q 853 920 769 1010 q 910 674 937 830 q 836 496 894 569 q 688 385 777 423 l 834 0 l 567 0 l 440 346 l 315 346 l 257 0 l 13 0 m 347 538 l 468 538 q 598 571 550 538 q 658 674 647 604 q 513 813 680 813 l 393 813 l 347 538 z "},"Ŕ":{"ha":930,"x_min":13,"x_max":937,"o":"m 13 0 l 181 1010 l 598 1010 q 853 920 769 1010 q 910 674 937 830 q 836 496 894 569 q 688 385 777 423 l 834 0 l 567 0 l 440 346 l 315 346 l 257 0 l 13 0 m 347 538 l 468 538 q 598 571 550 538 q 658 674 647 604 q 513 813 680 813 l 393 813 l 347 538 m 491 1106 l 628 1329 l 842 1329 l 655 1106 l 491 1106 z "},"Ŗ":{"ha":930,"x_min":13,"x_max":937,"o":"m 13 0 l 181 1010 l 598 1010 q 853 920 769 1010 q 910 674 937 830 q 836 496 894 569 q 688 385 777 423 l 834 0 l 567 0 l 440 346 l 315 346 l 257 0 l 13 0 m 347 538 l 468 538 q 598 571 550 538 q 658 674 647 604 q 513 813 680 813 l 393 813 l 347 538 m 183 -320 l 287 -80 l 506 -80 l 350 -320 l 183 -320 z "},"Ř":{"ha":930,"x_min":13,"x_max":937,"o":"m 13 0 l 181 1010 l 598 1010 q 853 920 769 1010 q 910 674 937 830 q 836 496 894 569 q 688 385 777 423 l 834 0 l 567 0 l 440 346 l 315 346 l 257 0 l 13 0 m 347 538 l 468 538 q 598 571 550 538 q 658 674 647 604 q 513 813 680 813 l 393 813 l 347 538 m 513 1328 l 592 1214 l 709 1328 l 911 1328 l 910 1322 l 661 1101 l 488 1101 l 310 1322 l 311 1328 l 513 1328 z "},"Ȑ":{"ha":930,"x_min":13,"x_max":937,"o":"m 13 0 l 181 1010 l 598 1010 q 853 920 769 1010 q 910 674 937 830 q 836 496 894 569 q 688 385 777 423 l 834 0 l 567 0 l 440 346 l 315 346 l 257 0 l 13 0 m 347 538 l 468 538 q 598 571 550 538 q 658 674 647 604 q 513 813 680 813 l 393 813 l 347 538 m 516 1106 l 348 1152 l 288 1329 l 491 1283 l 516 1106 m 768 1106 l 612 1152 l 595 1329 l 778 1283 l 768 1106 z "},"Ȓ":{"ha":930,"x_min":13,"x_max":937,"o":"m 13 0 l 181 1010 l 598 1010 q 853 920 769 1010 q 910 674 937 830 q 836 496 894 569 q 688 385 777 423 l 834 0 l 567 0 l 440 346 l 315 346 l 257 0 l 13 0 m 347 538 l 468 538 q 598 571 550 538 q 658 674 647 604 q 513 813 680 813 l 393 813 l 347 538 m 321 1130 q 415 1283 336 1223 q 613 1342 494 1342 q 791 1283 730 1342 q 837 1130 852 1223 l 678 1130 q 664 1189 682 1163 q 593 1215 646 1215 q 512 1189 539 1215 q 480 1130 484 1163 l 321 1130 z "},"Ṙ":{"ha":930,"x_min":13,"x_max":937,"o":"m 13 0 l 181 1010 l 598 1010 q 853 920 769 1010 q 910 674 937 830 q 836 496 894 569 q 688 385 777 423 l 834 0 l 567 0 l 440 346 l 315 346 l 257 0 l 13 0 m 347 538 l 468 538 q 598 571 550 538 q 658 674 647 604 q 513 813 680 813 l 393 813 l 347 538 m 577 1098 q 493 1132 525 1098 q 468 1214 461 1166 q 517 1295 475 1262 q 609 1329 558 1329 q 691 1295 660 1329 q 716 1214 723 1262 q 669 1132 710 1166 q 577 1098 628 1098 z "},"Ṛ":{"ha":930,"x_min":13,"x_max":937,"o":"m 13 0 l 181 1010 l 598 1010 q 853 920 769 1010 q 910 674 937 830 q 836 496 894 569 q 688 385 777 423 l 834 0 l 567 0 l 440 346 l 315 346 l 257 0 l 13 0 m 347 538 l 468 538 q 598 571 550 538 q 658 674 647 604 q 513 813 680 813 l 393 813 l 347 538 m 363 -294 q 280 -260 312 -294 q 254 -179 248 -226 q 303 -98 262 -131 q 395 -64 344 -64 q 478 -98 446 -64 q 503 -179 509 -131 q 455 -260 496 -226 q 363 -294 414 -294 z "},"Ṝ":{"ha":930,"x_min":13,"x_max":937,"o":"m 13 0 l 181 1010 l 598 1010 q 853 920 769 1010 q 910 674 937 830 q 836 496 894 569 q 688 385 777 423 l 834 0 l 567 0 l 440 346 l 315 346 l 257 0 l 13 0 m 347 538 l 468 538 q 598 571 550 538 q 658 674 647 604 q 513 813 680 813 l 393 813 l 347 538 m 363 -294 q 280 -260 312 -294 q 254 -179 248 -226 q 303 -98 262 -131 q 395 -64 344 -64 q 478 -98 446 -64 q 503 -179 509 -131 q 455 -260 496 -226 q 363 -294 414 -294 m 843 1263 l 825 1143 l 336 1143 l 355 1263 l 843 1263 z "},"Ṟ":{"ha":930,"x_min":13,"x_max":937,"o":"m 13 0 l 181 1010 l 598 1010 q 853 920 769 1010 q 910 674 937 830 q 836 496 894 569 q 688 385 777 423 l 834 0 l 567 0 l 440 346 l 315 346 l 257 0 l 13 0 m 347 538 l 468 538 q 598 571 550 538 q 658 674 647 604 q 513 813 680 813 l 393 813 l 347 538 m 630 -127 l 612 -246 l 123 -246 l 142 -127 l 630 -127 z "},"℟":{"ha":927,"x_min":18,"x_max":937,"o":"m 769 1155 l 713 998 q 883 887 829 972 q 915 674 937 802 q 840 496 899 569 q 692 385 782 423 l 838 0 l 572 0 l 461 301 l 262 -252 l 184 -242 l 398 346 l 320 346 l 262 0 l 18 0 l 186 1010 l 603 1010 q 638 1009 621 1010 l 672 1101 l 461 1149 l 494 1222 l 769 1155 m 352 538 l 468 538 l 566 810 q 518 813 545 813 l 398 813 l 352 538 m 550 547 q 663 674 647 573 q 634 781 674 746 l 550 547 z "},"℞":{"ha":1102,"x_min":13,"x_max":1013,"o":"m 181 1010 l 588 1010 q 856 927 773 1010 q 914 694 940 844 q 848 533 898 598 q 728 428 797 469 l 770 355 l 866 461 l 1013 461 l 828 252 l 970 0 l 771 0 l 707 115 l 606 0 l 453 0 l 649 219 l 566 369 l 319 369 l 257 0 l 13 0 l 181 1010 m 351 565 l 515 565 q 618 594 575 565 q 672 688 661 623 q 649 782 683 752 q 554 812 615 812 l 392 812 l 351 565 z "},"Ɍ":{"ha":946,"x_min":9,"x_max":961,"o":"m 38 0 l 99 364 l 9 364 l 37 542 l 128 542 l 206 1010 l 623 1010 q 877 920 794 1010 q 935 674 961 830 q 860 496 918 569 q 712 385 802 423 l 858 0 l 592 0 l 465 346 l 340 346 l 282 0 l 38 0 m 372 538 l 492 538 q 623 571 575 538 q 683 674 671 604 q 538 813 705 813 l 418 813 l 372 538 z "},"S":{"ha":917,"x_min":22,"x_max":925,"o":"m 676 705 q 646 792 680 761 q 542 822 613 822 q 431 796 471 822 q 384 727 391 769 q 411 657 374 683 q 514 617 447 631 l 597 597 q 808 489 740 564 q 855 293 875 414 q 712 68 831 149 q 403 -13 592 -13 q 189 25 277 -13 q 62 141 101 64 q 40 336 22 219 l 274 336 q 309 226 265 263 q 434 189 354 189 q 554 218 509 189 q 608 293 600 247 q 580 362 615 336 q 464 406 545 388 l 363 431 q 174 528 238 461 q 128 710 109 595 q 206 875 144 804 q 364 985 268 945 q 576 1024 460 1024 q 773 984 693 1024 q 889 873 853 945 q 909 705 925 801 l 676 705 z "},"Ś":{"ha":917,"x_min":22,"x_max":925,"o":"m 676 705 q 646 792 680 761 q 542 822 613 822 q 431 796 471 822 q 384 727 391 769 q 411 657 374 683 q 514 617 447 631 l 597 597 q 808 489 740 564 q 855 293 875 414 q 712 68 831 149 q 403 -13 592 -13 q 189 25 277 -13 q 62 141 101 64 q 40 336 22 219 l 274 336 q 309 226 265 263 q 434 189 354 189 q 554 218 509 189 q 608 293 600 247 q 580 362 615 336 q 464 406 545 388 l 363 431 q 174 528 238 461 q 128 710 109 595 q 206 875 144 804 q 364 985 268 945 q 576 1024 460 1024 q 773 984 693 1024 q 889 873 853 945 q 909 705 925 801 l 676 705 m 497 1106 l 634 1329 l 848 1329 l 661 1106 l 497 1106 z "},"Ŝ":{"ha":917,"x_min":22,"x_max":925,"o":"m 676 705 q 646 792 680 761 q 542 822 613 822 q 431 796 471 822 q 384 727 391 769 q 411 657 374 683 q 514 617 447 631 l 597 597 q 808 489 740 564 q 855 293 875 414 q 712 68 831 149 q 403 -13 592 -13 q 189 25 277 -13 q 62 141 101 64 q 40 336 22 219 l 274 336 q 309 226 265 263 q 434 189 354 189 q 554 218 509 189 q 608 293 600 247 q 580 362 615 336 q 464 406 545 388 l 363 431 q 174 528 238 461 q 128 710 109 595 q 206 875 144 804 q 364 985 268 945 q 576 1024 460 1024 q 773 984 693 1024 q 889 873 853 945 q 909 705 925 801 l 676 705 m 482 1101 l 280 1101 l 281 1107 l 532 1328 l 705 1328 l 880 1107 l 879 1101 l 678 1101 l 599 1215 l 482 1101 z "},"Ş":{"ha":917,"x_min":22,"x_max":925,"o":"m 676 705 q 646 792 680 761 q 542 822 613 822 q 431 796 471 822 q 384 727 391 769 q 411 657 374 683 q 514 617 447 631 l 597 597 q 808 489 740 564 q 855 293 875 414 q 712 68 831 149 q 403 -13 592 -13 q 189 25 277 -13 q 62 141 101 64 q 40 336 22 219 l 274 336 q 309 226 265 263 q 434 189 354 189 q 554 218 509 189 q 608 293 600 247 q 580 362 615 336 q 464 406 545 388 l 363 431 q 174 528 238 461 q 128 710 109 595 q 206 875 144 804 q 364 985 268 945 q 576 1024 460 1024 q 773 984 693 1024 q 889 873 853 945 q 909 705 925 801 l 676 705 m 353 4 l 449 4 l 434 -40 q 514 -80 486 -48 q 532 -161 541 -112 q 439 -283 520 -238 q 227 -327 359 -327 l 243 -228 q 396 -167 381 -228 q 312 -98 407 -111 l 353 4 z "},"Š":{"ha":917,"x_min":22,"x_max":925,"o":"m 676 705 q 646 792 680 761 q 542 822 613 822 q 431 796 471 822 q 384 727 391 769 q 411 657 374 683 q 514 617 447 631 l 597 597 q 808 489 740 564 q 855 293 875 414 q 712 68 831 149 q 403 -13 592 -13 q 189 25 277 -13 q 62 141 101 64 q 40 336 22 219 l 274 336 q 309 226 265 263 q 434 189 354 189 q 554 218 509 189 q 608 293 600 247 q 580 362 615 336 q 464 406 545 388 l 363 431 q 174 528 238 461 q 128 710 109 595 q 206 875 144 804 q 364 985 268 945 q 576 1024 460 1024 q 773 984 693 1024 q 889 873 853 945 q 909 705 925 801 l 676 705 m 519 1328 l 598 1214 l 715 1328 l 916 1328 l 915 1322 l 666 1101 l 493 1101 l 316 1322 l 317 1328 l 519 1328 z "},"Ș":{"ha":917,"x_min":22,"x_max":925,"o":"m 676 705 q 646 792 680 761 q 542 822 613 822 q 431 796 471 822 q 384 727 391 769 q 411 657 374 683 q 514 617 447 631 l 597 597 q 808 489 740 564 q 855 293 875 414 q 712 68 831 149 q 403 -13 592 -13 q 189 25 277 -13 q 62 141 101 64 q 40 336 22 219 l 274 336 q 309 226 265 263 q 434 189 354 189 q 554 218 509 189 q 608 293 600 247 q 580 362 615 336 q 464 406 545 388 l 363 431 q 174 528 238 461 q 128 710 109 595 q 206 875 144 804 q 364 985 268 945 q 576 1024 460 1024 q 773 984 693 1024 q 889 873 853 945 q 909 705 925 801 l 676 705 m 176 -323 l 279 -83 l 499 -83 l 342 -323 l 176 -323 z "},"Ṡ":{"ha":917,"x_min":22,"x_max":925,"o":"m 676 705 q 646 792 680 761 q 542 822 613 822 q 431 796 471 822 q 384 727 391 769 q 411 657 374 683 q 514 617 447 631 l 597 597 q 808 489 740 564 q 855 293 875 414 q 712 68 831 149 q 403 -13 592 -13 q 189 25 277 -13 q 62 141 101 64 q 40 336 22 219 l 274 336 q 309 226 265 263 q 434 189 354 189 q 554 218 509 189 q 608 293 600 247 q 580 362 615 336 q 464 406 545 388 l 363 431 q 174 528 238 461 q 128 710 109 595 q 206 875 144 804 q 364 985 268 945 q 576 1024 460 1024 q 773 984 693 1024 q 889 873 853 945 q 909 705 925 801 l 676 705 m 582 1098 q 499 1132 531 1098 q 473 1214 467 1166 q 522 1295 481 1262 q 614 1329 563 1329 q 697 1295 665 1329 q 722 1214 728 1262 q 674 1132 715 1166 q 582 1098 633 1098 z "},"Ṣ":{"ha":917,"x_min":22,"x_max":925,"o":"m 676 705 q 646 792 680 761 q 542 822 613 822 q 431 796 471 822 q 384 727 391 769 q 411 657 374 683 q 514 617 447 631 l 597 597 q 808 489 740 564 q 855 293 875 414 q 712 68 831 149 q 403 -13 592 -13 q 189 25 277 -13 q 62 141 101 64 q 40 336 22 219 l 274 336 q 309 226 265 263 q 434 189 354 189 q 554 218 509 189 q 608 293 600 247 q 580 362 615 336 q 464 406 545 388 l 363 431 q 174 528 238 461 q 128 710 109 595 q 206 875 144 804 q 364 985 268 945 q 576 1024 460 1024 q 773 984 693 1024 q 889 873 853 945 q 909 705 925 801 l 676 705 m 356 -298 q 272 -264 304 -298 q 247 -182 240 -230 q 296 -101 254 -135 q 388 -68 337 -68 q 470 -101 439 -68 q 495 -182 502 -135 q 448 -264 489 -230 q 356 -298 407 -298 z "},"Ṥ":{"ha":917,"x_min":22,"x_max":925,"o":"m 676 705 q 646 792 680 761 q 542 822 613 822 q 431 796 471 822 q 384 727 391 769 q 411 657 374 683 q 514 617 447 631 l 597 597 q 808 489 740 564 q 855 293 875 414 q 712 68 831 149 q 403 -13 592 -13 q 189 25 277 -13 q 62 141 101 64 q 40 336 22 219 l 274 336 q 309 226 265 263 q 434 189 354 189 q 554 218 509 189 q 608 293 600 247 q 580 362 615 336 q 464 406 545 388 l 363 431 q 174 528 238 461 q 128 710 109 595 q 206 875 144 804 q 364 985 268 945 q 576 1024 460 1024 q 773 984 693 1024 q 889 873 853 945 q 909 705 925 801 l 676 705 m 361 1260 q 400 1319 367 1295 q 477 1343 434 1343 q 546 1319 522 1343 q 563 1260 569 1295 q 526 1201 558 1226 q 448 1177 494 1177 q 380 1201 404 1177 q 361 1260 356 1226 m 530 1106 l 659 1278 l 813 1278 l 648 1106 l 530 1106 z "},"Ṧ":{"ha":917,"x_min":22,"x_max":925,"o":"m 676 705 q 646 792 680 761 q 542 822 613 822 q 431 796 471 822 q 384 727 391 769 q 411 657 374 683 q 514 617 447 631 l 597 597 q 808 489 740 564 q 855 293 875 414 q 712 68 831 149 q 403 -13 592 -13 q 189 25 277 -13 q 62 141 101 64 q 40 336 22 219 l 274 336 q 309 226 265 263 q 434 189 354 189 q 554 218 509 189 q 608 293 600 247 q 580 362 615 336 q 464 406 545 388 l 363 431 q 174 528 238 461 q 128 710 109 595 q 206 875 144 804 q 364 985 268 945 q 576 1024 460 1024 q 773 984 693 1024 q 889 873 853 945 q 909 705 925 801 l 676 705 m 524 1302 l 603 1228 l 703 1302 l 900 1302 l 898 1290 l 668 1131 l 506 1131 l 326 1293 l 327 1302 l 524 1302 m 532 1418 q 570 1477 538 1453 q 647 1501 602 1501 q 715 1477 691 1501 q 734 1418 739 1453 q 695 1360 727 1383 q 619 1337 663 1337 q 550 1360 575 1337 q 532 1418 526 1383 z "},"Ṩ":{"ha":917,"x_min":22,"x_max":925,"o":"m 676 705 q 646 792 680 761 q 542 822 613 822 q 431 796 471 822 q 384 727 391 769 q 411 657 374 683 q 514 617 447 631 l 597 597 q 808 489 740 564 q 855 293 875 414 q 712 68 831 149 q 403 -13 592 -13 q 189 25 277 -13 q 62 141 101 64 q 40 336 22 219 l 274 336 q 309 226 265 263 q 434 189 354 189 q 554 218 509 189 q 608 293 600 247 q 580 362 615 336 q 464 406 545 388 l 363 431 q 174 528 238 461 q 128 710 109 595 q 206 875 144 804 q 364 985 268 945 q 576 1024 460 1024 q 773 984 693 1024 q 889 873 853 945 q 909 705 925 801 l 676 705 m 356 -298 q 272 -264 304 -298 q 247 -182 240 -230 q 296 -101 254 -135 q 388 -68 337 -68 q 470 -101 439 -68 q 495 -182 502 -135 q 448 -264 489 -230 q 356 -298 407 -298 m 582 1098 q 499 1132 531 1098 q 473 1214 467 1166 q 522 1295 481 1262 q 614 1329 563 1329 q 697 1295 665 1329 q 722 1214 728 1262 q 674 1132 715 1166 q 582 1098 633 1098 z "},"Ѕ":{"ha":917,"x_min":22,"x_max":925,"o":"m 676 705 q 646 792 680 761 q 542 822 613 822 q 431 796 471 822 q 384 727 391 769 q 411 657 374 683 q 514 617 447 631 l 597 597 q 808 489 740 564 q 855 293 875 414 q 712 68 831 149 q 403 -13 592 -13 q 189 25 277 -13 q 62 141 101 64 q 40 336 22 219 l 274 336 q 309 226 265 263 q 434 189 354 189 q 554 218 509 189 q 608 293 600 247 q 580 362 615 336 q 464 406 545 388 l 363 431 q 174 528 238 461 q 128 710 109 595 q 206 875 144 804 q 364 985 268 945 q 576 1024 460 1024 q 773 984 693 1024 q 889 873 853 945 q 909 705 925 801 l 676 705 z "},"Ƨ":{"ha":920,"x_min":8,"x_max":913,"o":"m 348 705 l 114 705 q 190 873 131 801 q 343 984 250 945 q 553 1024 436 1024 q 752 985 669 1024 q 874 875 835 945 q 898 710 913 804 q 792 528 878 595 q 570 431 705 461 l 460 406 q 330 362 374 388 q 280 293 287 336 q 308 218 272 247 q 419 189 344 189 q 556 226 499 189 q 628 336 612 263 l 861 336 q 701 73 830 160 q 382 -13 572 -13 q 101 68 193 -13 q 32 293 8 149 q 144 489 52 414 q 391 597 237 564 l 480 617 q 597 657 552 631 q 647 727 642 683 q 623 796 654 769 q 521 822 592 822 q 406 792 449 822 q 348 705 363 761 z "},"ẞ":{"ha":1012,"x_min":13,"x_max":999,"o":"m 13 0 l 124 663 q 202 853 143 772 q 354 979 262 934 q 556 1024 445 1024 q 709 1000 629 1024 q 864 936 789 977 q 999 842 939 895 l 733 589 q 909 488 849 569 q 950 295 969 407 q 877 134 935 203 q 729 25 818 64 q 533 -14 641 -14 q 413 -2 474 -14 q 307 29 351 10 l 400 206 q 471 182 433 191 q 544 174 509 174 q 662 206 616 174 q 718 295 709 239 q 706 384 727 351 q 646 434 686 418 q 557 449 606 449 l 467 449 l 489 584 l 699 773 q 625 818 670 800 q 527 835 580 835 q 421 787 461 835 q 368 663 381 740 l 257 0 l 13 0 z "},"T":{"ha":941,"x_min":114,"x_max":1002,"o":"m 114 812 l 148 1010 l 1002 1010 l 968 812 l 662 812 l 528 0 l 287 0 l 421 812 l 114 812 z "},"Ţ":{"ha":941,"x_min":114,"x_max":1002,"o":"m 114 812 l 148 1010 l 1002 1010 l 968 812 l 662 812 l 528 0 l 287 0 l 421 812 l 114 812 m 360 4 l 457 4 l 441 -40 q 521 -80 494 -48 q 540 -161 548 -112 q 447 -283 528 -238 q 234 -327 366 -327 l 251 -228 q 403 -167 389 -228 q 319 -98 415 -111 l 360 4 z "},"Ť":{"ha":941,"x_min":114,"x_max":1002,"o":"m 114 812 l 148 1010 l 1002 1010 l 968 812 l 662 812 l 528 0 l 287 0 l 421 812 l 114 812 m 531 1328 l 610 1214 l 727 1328 l 928 1328 l 927 1322 l 678 1101 l 505 1101 l 327 1322 l 328 1328 l 531 1328 z "},"Ț":{"ha":941,"x_min":114,"x_max":1002,"o":"m 114 812 l 148 1010 l 1002 1010 l 968 812 l 662 812 l 528 0 l 287 0 l 421 812 l 114 812 m 183 -320 l 286 -80 l 506 -80 l 349 -320 l 183 -320 z "},"Ṫ":{"ha":941,"x_min":114,"x_max":1002,"o":"m 114 812 l 148 1010 l 1002 1010 l 968 812 l 662 812 l 528 0 l 287 0 l 421 812 l 114 812 m 594 1098 q 510 1132 543 1098 q 485 1214 478 1166 q 534 1295 493 1262 q 626 1329 575 1329 q 709 1295 677 1329 q 733 1214 740 1262 q 686 1132 727 1166 q 594 1098 645 1098 z "},"Ṭ":{"ha":941,"x_min":114,"x_max":1002,"o":"m 114 812 l 148 1010 l 1002 1010 l 968 812 l 662 812 l 528 0 l 287 0 l 421 812 l 114 812 m 363 -294 q 279 -260 311 -294 q 254 -179 247 -226 q 303 -98 261 -131 q 395 -64 344 -64 q 477 -98 446 -64 q 502 -179 509 -131 q 455 -260 496 -226 q 363 -294 414 -294 z "},"Ṯ":{"ha":941,"x_min":114,"x_max":1002,"o":"m 114 812 l 148 1010 l 1002 1010 l 968 812 l 662 812 l 528 0 l 287 0 l 421 812 l 114 812 m 630 -127 l 611 -246 l 122 -246 l 142 -127 l 630 -127 z "},"Ṱ":{"ha":941,"x_min":70,"x_max":1002,"o":"m 114 812 l 148 1010 l 1002 1010 l 968 812 l 662 812 l 528 0 l 287 0 l 421 812 l 114 812 m 272 -291 l 70 -291 l 71 -284 l 322 -63 l 495 -63 l 671 -284 l 670 -291 l 468 -291 l 389 -176 l 272 -291 z "},"Ƭ":{"ha":986,"x_min":82,"x_max":1048,"o":"m 1048 1010 l 1014 812 l 707 812 l 573 0 l 332 0 l 467 812 l 417 812 q 349 793 374 812 q 311 745 324 774 q 293 685 298 716 l 281 619 l 82 619 l 102 729 q 212 935 123 860 q 450 1010 301 1010 l 1048 1010 z "},"Ʈ":{"ha":941,"x_min":114,"x_max":1002,"o":"m 528 0 l 522 -35 q 546 -87 515 -74 q 615 -100 577 -100 l 658 -100 l 628 -284 l 520 -284 q 420 -275 469 -284 q 336 -240 372 -266 q 284 -165 299 -215 q 281 -34 268 -115 l 287 0 l 421 812 l 114 812 l 148 1010 l 1002 1010 l 968 812 l 662 812 l 528 0 z "},"Ⱦ":{"ha":941,"x_min":114,"x_max":1002,"o":"m 139 -128 l 333 277 l 421 812 l 114 812 l 148 1010 l 684 1010 l 746 1138 l 880 1138 l 819 1010 l 1002 1010 l 968 812 l 724 812 l 629 615 l 528 0 l 335 0 l 273 -128 l 139 -128 z "},"Τ":{"ha":941,"x_min":114,"x_max":1002,"o":"m 114 812 l 148 1010 l 1002 1010 l 968 812 l 662 812 l 528 0 l 287 0 l 421 812 l 114 812 z "},"U":{"ha":1008,"x_min":55,"x_max":1036,"o":"m 792 1010 l 1036 1010 l 928 359 q 842 162 909 246 q 670 33 774 79 q 438 -13 566 -13 q 222 33 310 -13 q 94 162 134 79 q 73 359 55 246 l 181 1010 l 425 1010 l 320 380 q 350 250 308 301 q 474 199 393 199 q 616 250 556 199 q 687 380 675 301 l 792 1010 z "},"Ư":{"ha":1211,"x_min":55,"x_max":1277,"o":"m 1134 1038 l 1277 1038 q 1229 878 1262 946 q 1139 768 1197 809 q 987 715 1080 726 l 928 359 q 842 162 909 246 q 670 33 774 79 q 438 -13 566 -13 q 222 33 310 -13 q 94 162 134 79 q 73 359 55 246 l 181 1010 l 425 1010 l 320 380 q 350 250 308 301 q 474 199 393 199 q 616 250 556 199 q 687 380 675 301 l 792 1010 l 1036 1010 l 1007 833 q 1077 872 1053 844 q 1114 942 1102 900 q 1134 1038 1126 984 z "},"Ù":{"ha":1008,"x_min":55,"x_max":1036,"o":"m 792 1010 l 1036 1010 l 928 359 q 842 162 909 246 q 670 33 774 79 q 438 -13 566 -13 q 222 33 310 -13 q 94 162 134 79 q 73 359 55 246 l 181 1010 l 425 1010 l 320 380 q 350 250 308 301 q 474 199 393 199 q 616 250 556 199 q 687 380 675 301 l 792 1010 m 545 1106 l 432 1329 l 645 1329 l 709 1106 l 545 1106 z "},"Ú":{"ha":1008,"x_min":55,"x_max":1036,"o":"m 792 1010 l 1036 1010 l 928 359 q 842 162 909 246 q 670 33 774 79 q 438 -13 566 -13 q 222 33 310 -13 q 94 162 134 79 q 73 359 55 246 l 181 1010 l 425 1010 l 320 380 q 350 250 308 301 q 474 199 393 199 q 616 250 556 199 q 687 380 675 301 l 792 1010 m 541 1106 l 678 1329 l 891 1329 l 704 1106 l 541 1106 z "},"Û":{"ha":1008,"x_min":55,"x_max":1036,"o":"m 792 1010 l 1036 1010 l 928 359 q 842 162 909 246 q 670 33 774 79 q 438 -13 566 -13 q 222 33 310 -13 q 94 162 134 79 q 73 359 55 246 l 181 1010 l 425 1010 l 320 380 q 350 250 308 301 q 474 199 393 199 q 616 250 556 199 q 687 380 675 301 l 792 1010 m 525 1101 l 323 1101 l 324 1107 l 575 1328 l 748 1328 l 924 1107 l 923 1101 l 721 1101 l 642 1215 l 525 1101 z "},"Ü":{"ha":1008,"x_min":55,"x_max":1036,"o":"m 792 1010 l 1036 1010 l 928 359 q 842 162 909 246 q 670 33 774 79 q 438 -13 566 -13 q 222 33 310 -13 q 94 162 134 79 q 73 359 55 246 l 181 1010 l 425 1010 l 320 380 q 350 250 308 301 q 474 199 393 199 q 616 250 556 199 q 687 380 675 301 l 792 1010 m 793 1106 q 710 1142 742 1106 q 687 1228 679 1178 q 727 1294 694 1268 q 801 1321 761 1321 q 883 1285 853 1321 q 905 1199 913 1249 q 867 1133 899 1161 q 793 1106 834 1106 m 485 1106 q 403 1143 434 1106 q 379 1228 371 1179 q 419 1294 386 1268 q 494 1321 453 1321 q 575 1285 545 1321 q 597 1199 605 1249 q 559 1133 591 1161 q 485 1106 526 1106 z "},"Ũ":{"ha":1008,"x_min":55,"x_max":1036,"o":"m 792 1010 l 1036 1010 l 928 359 q 842 162 909 246 q 670 33 774 79 q 438 -13 566 -13 q 222 33 310 -13 q 94 162 134 79 q 73 359 55 246 l 181 1010 l 425 1010 l 320 380 q 350 250 308 301 q 474 199 393 199 q 616 250 556 199 q 687 380 675 301 l 792 1010 m 487 1104 l 362 1105 q 435 1256 379 1205 q 559 1308 490 1308 q 619 1296 595 1308 q 661 1269 644 1285 q 694 1242 679 1254 q 730 1231 710 1231 q 775 1252 758 1231 q 798 1307 792 1272 l 921 1306 q 847 1154 903 1206 q 723 1102 791 1103 q 662 1113 686 1102 q 622 1140 638 1125 q 590 1167 605 1156 q 553 1179 575 1179 q 511 1159 529 1179 q 487 1104 493 1140 z "},"Ū":{"ha":1008,"x_min":55,"x_max":1036,"o":"m 792 1010 l 1036 1010 l 928 359 q 842 162 909 246 q 670 33 774 79 q 438 -13 566 -13 q 222 33 310 -13 q 94 162 134 79 q 73 359 55 246 l 181 1010 l 425 1010 l 320 380 q 350 250 308 301 q 474 199 393 199 q 616 250 556 199 q 687 380 675 301 l 792 1010 m 893 1263 l 874 1143 l 385 1143 l 404 1263 l 893 1263 z "},"Ŭ":{"ha":1008,"x_min":55,"x_max":1036,"o":"m 792 1010 l 1036 1010 l 928 359 q 842 162 909 246 q 670 33 774 79 q 438 -13 566 -13 q 222 33 310 -13 q 94 162 134 79 q 73 359 55 246 l 181 1010 l 425 1010 l 320 380 q 350 250 308 301 q 474 199 393 199 q 616 250 556 199 q 687 380 675 301 l 792 1010 m 750 1278 l 909 1278 q 815 1129 894 1186 q 618 1073 736 1073 q 440 1129 500 1073 q 395 1278 380 1186 l 553 1278 q 566 1219 547 1246 q 638 1193 584 1193 q 718 1219 691 1193 q 750 1278 744 1245 z "},"Ů":{"ha":1008,"x_min":55,"x_max":1036,"o":"m 792 1010 l 1036 1010 l 928 359 q 842 162 909 246 q 670 33 774 79 q 438 -13 566 -13 q 222 33 310 -13 q 94 162 134 79 q 73 359 55 246 l 181 1010 l 425 1010 l 320 380 q 350 250 308 301 q 474 199 393 199 q 616 250 556 199 q 687 380 675 301 l 792 1010 m 616 1060 q 511 1105 550 1060 q 483 1212 472 1150 q 516 1289 490 1255 q 582 1344 543 1324 q 665 1364 621 1364 q 773 1320 732 1364 q 800 1212 813 1275 q 736 1104 789 1149 q 616 1060 683 1060 m 631 1149 q 682 1168 658 1149 q 708 1212 705 1187 q 695 1257 712 1239 q 651 1275 679 1275 q 602 1257 624 1275 q 575 1212 580 1238 q 586 1168 570 1187 q 631 1149 603 1149 z "},"Ű":{"ha":1008,"x_min":55,"x_max":1048,"o":"m 792 1010 l 1036 1010 l 928 359 q 842 162 909 246 q 670 33 774 79 q 438 -13 566 -13 q 222 33 310 -13 q 94 162 134 79 q 73 359 55 246 l 181 1010 l 425 1010 l 320 380 q 350 250 308 301 q 474 199 393 199 q 616 250 556 199 q 687 380 675 301 l 792 1010 m 393 1099 l 565 1302 l 758 1302 l 558 1099 l 393 1099 m 662 1099 l 854 1302 l 1048 1302 l 826 1099 l 662 1099 z "},"Ų":{"ha":1008,"x_min":55,"x_max":1036,"o":"m 792 1010 l 1036 1010 l 928 359 q 842 162 909 246 q 670 33 774 79 q 438 -13 566 -13 q 222 33 310 -13 q 94 162 134 79 q 73 359 55 246 l 181 1010 l 425 1010 l 320 380 q 350 250 308 301 q 474 199 393 199 q 616 250 556 199 q 687 380 675 301 l 792 1010 m 436 -278 q 330 -244 369 -278 q 285 -148 290 -211 q 295 -64 282 -107 q 335 12 308 -22 q 400 63 362 46 l 580 0 q 500 -39 531 -18 q 464 -93 469 -60 q 501 -143 454 -143 q 528 -139 516 -143 q 550 -133 540 -136 l 558 -249 q 507 -269 538 -259 q 436 -278 475 -278 z "},"Ǔ":{"ha":1008,"x_min":55,"x_max":1036,"o":"m 792 1010 l 1036 1010 l 928 359 q 842 162 909 246 q 670 33 774 79 q 438 -13 566 -13 q 222 33 310 -13 q 94 162 134 79 q 73 359 55 246 l 181 1010 l 425 1010 l 320 380 q 350 250 308 301 q 474 199 393 199 q 616 250 556 199 q 687 380 675 301 l 792 1010 m 562 1328 l 641 1214 l 758 1328 l 960 1328 l 959 1322 l 710 1101 l 537 1101 l 359 1322 l 360 1328 l 562 1328 z "},"Ǖ":{"ha":1008,"x_min":55,"x_max":1036,"o":"m 792 1010 l 1036 1010 l 928 359 q 842 162 909 246 q 670 33 774 79 q 438 -13 566 -13 q 222 33 310 -13 q 94 162 134 79 q 73 359 55 246 l 181 1010 l 425 1010 l 320 380 q 350 250 308 301 q 474 199 393 199 q 616 250 556 199 q 687 380 675 301 l 792 1010 m 793 1106 q 710 1142 742 1106 q 687 1228 679 1178 q 727 1294 694 1268 q 801 1321 761 1321 q 883 1285 853 1321 q 905 1199 913 1249 q 867 1133 899 1161 q 793 1106 834 1106 m 485 1106 q 403 1143 434 1106 q 379 1228 371 1179 q 419 1294 386 1268 q 494 1321 453 1321 q 575 1285 545 1321 q 597 1199 605 1249 q 559 1133 591 1161 q 485 1106 526 1106 m 936 1515 l 917 1396 l 428 1396 l 447 1515 l 936 1515 z "},"Ǘ":{"ha":1008,"x_min":55,"x_max":1036,"o":"m 792 1010 l 1036 1010 l 928 359 q 842 162 909 246 q 670 33 774 79 q 438 -13 566 -13 q 222 33 310 -13 q 94 162 134 79 q 73 359 55 246 l 181 1010 l 425 1010 l 320 380 q 350 250 308 301 q 474 199 393 199 q 616 250 556 199 q 687 380 675 301 l 792 1010 m 569 1334 l 731 1516 l 937 1516 l 736 1334 l 569 1334 m 771 1076 q 693 1109 723 1076 q 671 1188 663 1142 q 709 1249 678 1224 q 779 1273 740 1273 q 856 1240 828 1273 q 877 1162 885 1207 q 841 1101 872 1126 q 771 1076 810 1076 m 479 1076 q 401 1109 431 1076 q 379 1188 372 1142 q 417 1249 386 1224 q 488 1273 449 1273 q 565 1240 536 1273 q 585 1162 593 1207 q 549 1101 580 1126 q 479 1076 518 1076 z "},"Ǚ":{"ha":1008,"x_min":55,"x_max":1036,"o":"m 792 1010 l 1036 1010 l 928 359 q 842 162 909 246 q 670 33 774 79 q 438 -13 566 -13 q 222 33 310 -13 q 94 162 134 79 q 73 359 55 246 l 181 1010 l 425 1010 l 320 380 q 350 250 308 301 q 474 199 393 199 q 616 250 556 199 q 687 380 675 301 l 792 1010 m 595 1458 l 672 1386 l 773 1458 l 970 1458 l 968 1448 l 737 1289 l 574 1289 l 395 1451 l 397 1458 l 595 1458 m 685 1201 q 722 1258 690 1235 q 799 1282 754 1282 q 867 1259 842 1282 q 887 1201 892 1236 q 848 1142 880 1165 q 772 1118 815 1118 q 703 1142 727 1118 q 685 1201 679 1166 m 390 1201 q 426 1259 395 1235 q 502 1283 458 1283 q 571 1259 547 1283 q 590 1201 595 1235 q 551 1142 583 1165 q 475 1119 519 1119 q 408 1142 432 1119 q 390 1201 383 1165 z "},"Ǜ":{"ha":1008,"x_min":55,"x_max":1036,"o":"m 792 1010 l 1036 1010 l 928 359 q 842 162 909 246 q 670 33 774 79 q 438 -13 566 -13 q 222 33 310 -13 q 94 162 134 79 q 73 359 55 246 l 181 1010 l 425 1010 l 320 380 q 350 250 308 301 q 474 199 393 199 q 616 250 556 199 q 687 380 675 301 l 792 1010 m 684 1201 q 723 1259 690 1236 q 798 1282 756 1282 q 868 1258 844 1282 q 885 1201 891 1235 q 848 1142 880 1166 q 771 1118 817 1118 q 703 1142 728 1118 q 684 1201 678 1165 m 388 1201 q 426 1259 394 1235 q 501 1283 458 1283 q 571 1259 546 1283 q 589 1201 595 1235 q 552 1142 584 1165 q 473 1119 519 1119 q 407 1142 431 1119 q 388 1201 382 1165 m 651 1406 l 720 1283 l 601 1283 l 497 1406 l 651 1406 z "},"Ȕ":{"ha":1008,"x_min":55,"x_max":1036,"o":"m 792 1010 l 1036 1010 l 928 359 q 842 162 909 246 q 670 33 774 79 q 438 -13 566 -13 q 222 33 310 -13 q 94 162 134 79 q 73 359 55 246 l 181 1010 l 425 1010 l 320 380 q 350 250 308 301 q 474 199 393 199 q 616 250 556 199 q 687 380 675 301 l 792 1010 m 566 1106 l 397 1152 l 337 1329 l 541 1283 l 566 1106 m 817 1106 l 661 1152 l 644 1329 l 828 1283 l 817 1106 z "},"Ȗ":{"ha":1008,"x_min":55,"x_max":1036,"o":"m 792 1010 l 1036 1010 l 928 359 q 842 162 909 246 q 670 33 774 79 q 438 -13 566 -13 q 222 33 310 -13 q 94 162 134 79 q 73 359 55 246 l 181 1010 l 425 1010 l 320 380 q 350 250 308 301 q 474 199 393 199 q 616 250 556 199 q 687 380 675 301 l 792 1010 m 370 1130 q 464 1283 386 1223 q 662 1342 543 1342 q 841 1283 780 1342 q 886 1130 902 1223 l 727 1130 q 713 1189 731 1163 q 642 1215 695 1215 q 561 1189 588 1215 q 530 1130 534 1163 l 370 1130 z "},"Ṳ":{"ha":1008,"x_min":55,"x_max":1036,"o":"m 792 1010 l 1036 1010 l 928 359 q 842 162 909 246 q 670 33 774 79 q 438 -13 566 -13 q 222 33 310 -13 q 94 162 134 79 q 73 359 55 246 l 181 1010 l 425 1010 l 320 380 q 350 250 308 301 q 474 199 393 199 q 616 250 556 199 q 687 380 675 301 l 792 1010 m 190 -292 q 107 -258 139 -292 q 82 -177 75 -224 q 130 -96 89 -129 q 222 -62 172 -62 q 305 -96 274 -62 q 330 -177 336 -129 q 283 -258 324 -224 q 190 -292 242 -292 m 564 -292 q 481 -258 513 -292 q 456 -177 449 -224 q 504 -96 463 -129 q 596 -62 545 -62 q 679 -96 648 -62 q 704 -177 710 -129 q 656 -258 697 -224 q 564 -292 616 -292 z "},"Ṵ":{"ha":1008,"x_min":55,"x_max":1036,"o":"m 792 1010 l 1036 1010 l 928 359 q 842 162 909 246 q 670 33 774 79 q 438 -13 566 -13 q 222 33 310 -13 q 94 162 134 79 q 73 359 55 246 l 181 1010 l 425 1010 l 320 380 q 350 250 308 301 q 474 199 393 199 q 616 250 556 199 q 687 380 675 301 l 792 1010 m 271 -276 l 146 -275 q 218 -123 163 -175 q 343 -72 274 -72 q 403 -83 379 -72 q 445 -110 428 -95 q 478 -137 463 -126 q 514 -149 494 -149 q 559 -128 542 -149 q 582 -73 576 -107 l 705 -74 q 631 -225 687 -174 q 507 -278 575 -277 q 446 -266 470 -278 q 406 -239 422 -254 q 374 -212 389 -224 q 337 -201 359 -201 q 295 -220 313 -201 q 271 -276 277 -240 z "},"Ṷ":{"ha":1008,"x_min":55,"x_max":1036,"o":"m 792 1010 l 1036 1010 l 928 359 q 842 162 909 246 q 670 33 774 79 q 438 -13 566 -13 q 222 33 310 -13 q 94 162 134 79 q 73 359 55 246 l 181 1010 l 425 1010 l 320 380 q 350 250 308 301 q 474 199 393 199 q 616 250 556 199 q 687 380 675 301 l 792 1010 m 307 -289 l 105 -289 l 106 -282 l 357 -61 l 530 -61 l 706 -282 l 705 -289 l 503 -289 l 424 -174 l 307 -289 z "},"Ṹ":{"ha":1008,"x_min":55,"x_max":1036,"o":"m 792 1010 l 1036 1010 l 928 359 q 842 162 909 246 q 670 33 774 79 q 438 -13 566 -13 q 222 33 310 -13 q 94 162 134 79 q 73 359 55 246 l 181 1010 l 425 1010 l 320 380 q 350 250 308 301 q 474 199 393 199 q 616 250 556 199 q 687 380 675 301 l 792 1010 m 488 1093 l 369 1094 q 438 1232 385 1185 q 556 1278 491 1278 q 628 1261 602 1278 q 674 1226 654 1243 q 718 1208 693 1208 q 761 1227 745 1208 q 782 1278 777 1246 l 899 1276 q 829 1139 882 1186 q 711 1091 776 1092 q 653 1102 676 1091 q 615 1126 631 1112 q 585 1150 600 1140 q 550 1161 571 1161 q 488 1093 500 1161 m 562 1334 l 724 1516 l 930 1516 l 729 1334 l 562 1334 z "},"Ṻ":{"ha":1008,"x_min":55,"x_max":1036,"o":"m 792 1010 l 1036 1010 l 928 359 q 842 162 909 246 q 670 33 774 79 q 438 -13 566 -13 q 222 33 310 -13 q 94 162 134 79 q 73 359 55 246 l 181 1010 l 425 1010 l 320 380 q 350 250 308 301 q 474 199 393 199 q 616 250 556 199 q 687 380 675 301 l 792 1010 m 887 1221 l 866 1103 l 378 1103 l 399 1221 l 887 1221 m 418 1364 q 455 1423 423 1399 q 531 1447 487 1447 q 600 1423 575 1447 q 619 1364 625 1399 q 581 1306 613 1330 q 504 1282 548 1282 q 435 1306 459 1282 q 418 1364 411 1330 m 713 1364 q 751 1423 719 1399 q 828 1447 783 1447 q 896 1423 872 1447 q 915 1364 920 1399 q 876 1306 908 1329 q 800 1283 844 1283 q 731 1306 756 1283 q 713 1364 707 1329 z "},"Ụ":{"ha":1008,"x_min":55,"x_max":1036,"o":"m 792 1010 l 1036 1010 l 928 359 q 842 162 909 246 q 670 33 774 79 q 438 -13 566 -13 q 222 33 310 -13 q 94 162 134 79 q 73 359 55 246 l 181 1010 l 425 1010 l 320 380 q 350 250 308 301 q 474 199 393 199 q 616 250 556 199 q 687 380 675 301 l 792 1010 m 397 -292 q 314 -258 346 -292 q 289 -177 282 -224 q 337 -96 296 -129 q 429 -62 378 -62 q 512 -96 480 -62 q 537 -177 543 -129 q 489 -258 530 -224 q 397 -292 448 -292 z "},"Ủ":{"ha":1008,"x_min":55,"x_max":1036,"o":"m 792 1010 l 1036 1010 l 928 359 q 842 162 909 246 q 670 33 774 79 q 438 -13 566 -13 q 222 33 310 -13 q 94 162 134 79 q 73 359 55 246 l 181 1010 l 425 1010 l 320 380 q 350 250 308 301 q 474 199 393 199 q 616 250 556 199 q 687 380 675 301 l 792 1010 m 713 1121 l 537 1121 l 536 1203 q 613 1217 588 1205 q 639 1246 637 1229 q 618 1281 644 1273 q 551 1290 592 1290 l 574 1392 q 783 1356 715 1392 q 841 1257 852 1321 q 798 1191 834 1213 q 719 1162 761 1168 l 713 1121 z "},"Ứ":{"ha":1211,"x_min":55,"x_max":1277,"o":"m 1134 1038 l 1277 1038 q 1229 878 1262 946 q 1139 768 1197 809 q 987 715 1080 726 l 928 359 q 842 162 909 246 q 670 33 774 79 q 438 -13 566 -13 q 222 33 310 -13 q 94 162 134 79 q 73 359 55 246 l 181 1010 l 425 1010 l 320 380 q 350 250 308 301 q 474 199 393 199 q 616 250 556 199 q 687 380 675 301 l 792 1010 l 1036 1010 l 1007 833 q 1077 872 1053 844 q 1114 942 1102 900 q 1134 1038 1126 984 m 541 1106 l 678 1329 l 891 1329 l 704 1106 l 541 1106 z "},"Ừ":{"ha":1211,"x_min":55,"x_max":1277,"o":"m 1134 1038 l 1277 1038 q 1229 878 1262 946 q 1139 768 1197 809 q 987 715 1080 726 l 928 359 q 842 162 909 246 q 670 33 774 79 q 438 -13 566 -13 q 222 33 310 -13 q 94 162 134 79 q 73 359 55 246 l 181 1010 l 425 1010 l 320 380 q 350 250 308 301 q 474 199 393 199 q 616 250 556 199 q 687 380 675 301 l 792 1010 l 1036 1010 l 1007 833 q 1077 872 1053 844 q 1114 942 1102 900 q 1134 1038 1126 984 m 545 1106 l 432 1329 l 645 1329 l 709 1106 l 545 1106 z "},"Ử":{"ha":1211,"x_min":55,"x_max":1277,"o":"m 1134 1038 l 1277 1038 q 1229 878 1262 946 q 1139 768 1197 809 q 987 715 1080 726 l 928 359 q 842 162 909 246 q 670 33 774 79 q 438 -13 566 -13 q 222 33 310 -13 q 94 162 134 79 q 73 359 55 246 l 181 1010 l 425 1010 l 320 380 q 350 250 308 301 q 474 199 393 199 q 616 250 556 199 q 687 380 675 301 l 792 1010 l 1036 1010 l 1007 833 q 1077 872 1053 844 q 1114 942 1102 900 q 1134 1038 1126 984 m 713 1121 l 537 1121 l 536 1203 q 613 1217 588 1205 q 639 1246 637 1229 q 618 1281 644 1273 q 551 1290 592 1290 l 574 1392 q 783 1356 715 1392 q 841 1257 852 1321 q 798 1191 834 1213 q 719 1162 761 1168 l 713 1121 z "},"Ữ":{"ha":1211,"x_min":55,"x_max":1277,"o":"m 1134 1038 l 1277 1038 q 1229 878 1262 946 q 1139 768 1197 809 q 987 715 1080 726 l 928 359 q 842 162 909 246 q 670 33 774 79 q 438 -13 566 -13 q 222 33 310 -13 q 94 162 134 79 q 73 359 55 246 l 181 1010 l 425 1010 l 320 380 q 350 250 308 301 q 474 199 393 199 q 616 250 556 199 q 687 380 675 301 l 792 1010 l 1036 1010 l 1007 833 q 1077 872 1053 844 q 1114 942 1102 900 q 1134 1038 1126 984 m 487 1104 l 362 1105 q 435 1256 379 1205 q 559 1308 490 1308 q 619 1296 595 1308 q 661 1269 644 1285 q 694 1242 679 1254 q 730 1231 710 1231 q 775 1252 758 1231 q 798 1307 792 1272 l 921 1306 q 847 1154 903 1206 q 723 1102 791 1103 q 662 1113 686 1102 q 622 1140 638 1125 q 590 1167 605 1156 q 553 1179 575 1179 q 511 1159 529 1179 q 487 1104 493 1140 z "},"Ự":{"ha":1211,"x_min":55,"x_max":1277,"o":"m 1134 1038 l 1277 1038 q 1229 878 1262 946 q 1139 768 1197 809 q 987 715 1080 726 l 928 359 q 842 162 909 246 q 670 33 774 79 q 438 -13 566 -13 q 222 33 310 -13 q 94 162 134 79 q 73 359 55 246 l 181 1010 l 425 1010 l 320 380 q 350 250 308 301 q 474 199 393 199 q 616 250 556 199 q 687 380 675 301 l 792 1010 l 1036 1010 l 1007 833 q 1077 872 1053 844 q 1114 942 1102 900 q 1134 1038 1126 984 m 397 -292 q 314 -258 346 -292 q 289 -177 282 -224 q 337 -96 296 -129 q 429 -62 378 -62 q 512 -96 480 -62 q 537 -177 543 -129 q 489 -258 530 -224 q 397 -292 448 -292 z "},"Ʉ":{"ha":1064,"x_min":2,"x_max":1104,"o":"m 1104 570 l 1081 434 l 973 434 l 961 359 q 875 162 943 246 q 703 33 807 79 q 472 -13 599 -13 q 255 33 343 -13 q 127 162 167 79 q 106 359 88 246 l 118 434 l 2 434 l 25 570 l 141 570 l 214 1010 l 458 1010 l 385 570 l 752 570 l 825 1010 l 1069 1010 l 996 570 l 1104 570 m 729 434 l 362 434 l 353 380 q 383 250 341 301 q 507 199 426 199 q 649 250 589 199 q 720 380 708 301 l 729 434 z "},"V":{"ha":1072,"x_min":137,"x_max":1144,"o":"m 410 1010 l 513 270 l 522 270 l 871 1010 l 1144 1010 l 635 0 l 310 0 l 137 1010 l 410 1010 z "},"Ṽ":{"ha":1072,"x_min":137,"x_max":1144,"o":"m 410 1010 l 513 270 l 522 270 l 871 1010 l 1144 1010 l 635 0 l 310 0 l 137 1010 l 410 1010 m 520 1104 l 395 1105 q 467 1256 411 1205 q 591 1308 523 1308 q 652 1296 628 1308 q 694 1269 676 1285 q 727 1242 711 1254 q 763 1231 743 1231 q 808 1252 791 1231 q 831 1307 825 1272 l 953 1306 q 880 1154 936 1206 q 756 1102 824 1103 q 694 1113 718 1102 q 654 1140 671 1125 q 622 1167 638 1156 q 586 1179 607 1179 q 544 1159 562 1179 q 520 1104 526 1140 z "},"Ṿ":{"ha":1072,"x_min":137,"x_max":1144,"o":"m 410 1010 l 513 270 l 522 270 l 871 1010 l 1144 1010 l 635 0 l 310 0 l 137 1010 l 410 1010 m 429 -294 q 346 -260 378 -294 q 321 -179 314 -226 q 369 -98 328 -131 q 461 -64 410 -64 q 544 -98 512 -64 q 569 -179 575 -131 q 521 -260 562 -226 q 429 -294 480 -294 z "},"W":{"ha":1479,"x_min":129,"x_max":1559,"o":"m 255 0 l 129 1010 l 399 1010 l 442 348 l 451 348 l 734 1010 l 954 1010 l 1019 347 l 1027 347 l 1289 1010 l 1559 1010 l 1097 0 l 862 0 l 783 613 l 775 613 l 490 0 l 255 0 z "},"Ŵ":{"ha":1479,"x_min":129,"x_max":1559,"o":"m 255 0 l 129 1010 l 399 1010 l 442 348 l 451 348 l 734 1010 l 954 1010 l 1019 347 l 1027 347 l 1289 1010 l 1559 1010 l 1097 0 l 862 0 l 783 613 l 775 613 l 490 0 l 255 0 m 762 1101 l 560 1101 l 561 1107 l 812 1328 l 985 1328 l 1161 1107 l 1160 1101 l 958 1101 l 879 1215 l 762 1101 z "},"Ẁ":{"ha":1479,"x_min":129,"x_max":1559,"o":"m 255 0 l 129 1010 l 399 1010 l 442 348 l 451 348 l 734 1010 l 954 1010 l 1019 347 l 1027 347 l 1289 1010 l 1559 1010 l 1097 0 l 862 0 l 783 613 l 775 613 l 490 0 l 255 0 m 781 1106 l 668 1329 l 881 1329 l 945 1106 l 781 1106 z "},"Ẃ":{"ha":1479,"x_min":129,"x_max":1559,"o":"m 255 0 l 129 1010 l 399 1010 l 442 348 l 451 348 l 734 1010 l 954 1010 l 1019 347 l 1027 347 l 1289 1010 l 1559 1010 l 1097 0 l 862 0 l 783 613 l 775 613 l 490 0 l 255 0 m 777 1106 l 914 1329 l 1128 1329 l 941 1106 l 777 1106 z "},"Ẅ":{"ha":1479,"x_min":129,"x_max":1559,"o":"m 255 0 l 129 1010 l 399 1010 l 442 348 l 451 348 l 734 1010 l 954 1010 l 1019 347 l 1027 347 l 1289 1010 l 1559 1010 l 1097 0 l 862 0 l 783 613 l 775 613 l 490 0 l 255 0 m 1030 1106 q 947 1142 979 1106 q 924 1228 916 1178 q 964 1294 931 1268 q 1038 1321 997 1321 q 1120 1285 1090 1321 q 1141 1199 1150 1249 q 1103 1133 1136 1161 q 1030 1106 1071 1106 m 722 1106 q 639 1143 671 1106 q 616 1228 608 1179 q 656 1294 623 1268 q 730 1321 690 1321 q 812 1285 782 1321 q 834 1199 842 1249 q 796 1133 828 1161 q 722 1106 763 1106 z "},"Ẇ":{"ha":1479,"x_min":129,"x_max":1559,"o":"m 255 0 l 129 1010 l 399 1010 l 442 348 l 451 348 l 734 1010 l 954 1010 l 1019 347 l 1027 347 l 1289 1010 l 1559 1010 l 1097 0 l 862 0 l 783 613 l 775 613 l 490 0 l 255 0 m 862 1098 q 779 1132 811 1098 q 754 1214 747 1166 q 802 1295 761 1262 q 894 1329 843 1329 q 977 1295 945 1329 q 1002 1214 1008 1262 q 954 1132 995 1166 q 862 1098 913 1098 z "},"Ẉ":{"ha":1479,"x_min":129,"x_max":1559,"o":"m 255 0 l 129 1010 l 399 1010 l 442 348 l 451 348 l 734 1010 l 954 1010 l 1019 347 l 1027 347 l 1289 1010 l 1559 1010 l 1097 0 l 862 0 l 783 613 l 775 613 l 490 0 l 255 0 m 633 -293 q 549 -259 581 -293 q 524 -178 517 -225 q 573 -96 532 -130 q 665 -63 614 -63 q 747 -96 716 -63 q 772 -178 779 -130 q 725 -259 766 -225 q 633 -293 684 -293 z "},"X":{"ha":1026,"x_min":-23,"x_max":1080,"o":"m 419 1010 l 550 691 l 558 691 l 798 1010 l 1080 1010 l 692 505 l 922 0 l 649 0 l 512 323 l 505 323 l 262 0 l -23 0 l 375 505 l 153 1010 l 419 1010 z "},"Ẋ":{"ha":1026,"x_min":-23,"x_max":1080,"o":"m 419 1010 l 550 691 l 558 691 l 798 1010 l 1080 1010 l 692 505 l 922 0 l 649 0 l 512 323 l 505 323 l 262 0 l -23 0 l 375 505 l 153 1010 l 419 1010 m 635 1098 q 551 1132 583 1098 q 526 1214 519 1166 q 575 1295 534 1262 q 667 1329 616 1329 q 749 1295 718 1329 q 774 1214 781 1262 q 727 1132 768 1166 q 635 1098 686 1098 z "},"Ẍ":{"ha":1026,"x_min":-23,"x_max":1080,"o":"m 419 1010 l 550 691 l 558 691 l 798 1010 l 1080 1010 l 692 505 l 922 0 l 649 0 l 512 323 l 505 323 l 262 0 l -23 0 l 375 505 l 153 1010 l 419 1010 m 802 1106 q 720 1142 751 1106 q 696 1228 689 1178 q 737 1294 703 1268 q 811 1321 770 1321 q 892 1285 862 1321 q 914 1199 922 1249 q 876 1133 908 1161 q 802 1106 843 1106 m 495 1106 q 412 1143 443 1106 q 389 1228 381 1179 q 429 1294 396 1268 q 503 1321 462 1321 q 584 1285 554 1321 q 606 1199 615 1249 q 568 1133 601 1161 q 495 1106 536 1106 z "},"Ҳ":{"ha":1026,"x_min":-23,"x_max":1080,"o":"m 419 1010 l 550 691 l 558 691 l 798 1010 l 1080 1010 l 692 505 l 922 0 l 649 0 l 512 323 l 505 323 l 262 0 l -23 0 l 375 505 l 153 1010 l 419 1010 m 1020 157 l 955 -243 l 722 -243 l 787 157 l 1020 157 z "},"Ӽ":{"ha":1026,"x_min":-23,"x_max":1080,"o":"m 419 1010 l 550 691 l 558 691 l 798 1010 l 1080 1010 l 692 505 l 922 0 l 649 0 l 512 323 l 505 323 l 262 0 l -23 0 l 375 505 l 153 1010 l 419 1010 m 826 212 l 1059 212 l 1024 -4 q 911 -221 1000 -147 q 688 -296 821 -296 q 635 -294 659 -296 q 580 -286 610 -292 l 620 -105 q 650 -111 636 -109 q 689 -113 664 -113 q 791 -4 772 -113 l 826 212 z "},"Χ":{"ha":1026,"x_min":-23,"x_max":1080,"o":"m 419 1010 l 550 691 l 558 691 l 798 1010 l 1080 1010 l 692 505 l 922 0 l 649 0 l 512 323 l 505 323 l 262 0 l -23 0 l 375 505 l 153 1010 l 419 1010 z "},"Y":{"ha":1034,"x_min":131,"x_max":1112,"o":"m 131 1010 l 403 1010 l 546 587 l 557 587 l 839 1010 l 1112 1010 l 631 337 l 575 0 l 332 0 l 389 337 l 131 1010 z "}}}
